%TF.GenerationSoftware,KiCad,Pcbnew,(5.99.0-13244-g73f40b11ee)*%
%TF.CreationDate,2021-12-22T23:44:12+01:00*%
%TF.ProjectId,TheKNOBDaughterboard,5468654b-4e4f-4424-9461-756768746572,rev?*%
%TF.SameCoordinates,Original*%
%TF.FileFunction,Legend,Top*%
%TF.FilePolarity,Positive*%
%FSLAX46Y46*%
G04 Gerber Fmt 4.6, Leading zero omitted, Abs format (unit mm)*
G04 Created by KiCad (PCBNEW (5.99.0-13244-g73f40b11ee)) date 2021-12-22 23:44:12*
%MOMM*%
%LPD*%
G01*
G04 APERTURE LIST*
%ADD10C,0.150000*%
%ADD11C,0.120000*%
G04 APERTURE END LIST*
D10*
X107650000Y-103600000D02*
X108900000Y-103600000D01*
%TO.C,R5*%
X127222380Y-94156666D02*
X126746190Y-94490000D01*
X127222380Y-94728095D02*
X126222380Y-94728095D01*
X126222380Y-94347142D01*
X126270000Y-94251904D01*
X126317619Y-94204285D01*
X126412857Y-94156666D01*
X126555714Y-94156666D01*
X126650952Y-94204285D01*
X126698571Y-94251904D01*
X126746190Y-94347142D01*
X126746190Y-94728095D01*
X126222380Y-93251904D02*
X126222380Y-93728095D01*
X126698571Y-93775714D01*
X126650952Y-93728095D01*
X126603333Y-93632857D01*
X126603333Y-93394761D01*
X126650952Y-93299523D01*
X126698571Y-93251904D01*
X126793809Y-93204285D01*
X127031904Y-93204285D01*
X127127142Y-93251904D01*
X127174761Y-93299523D01*
X127222380Y-93394761D01*
X127222380Y-93632857D01*
X127174761Y-93728095D01*
X127127142Y-93775714D01*
%TO.C,J1*%
X125706666Y-110832380D02*
X125706666Y-111546666D01*
X125659047Y-111689523D01*
X125563809Y-111784761D01*
X125420952Y-111832380D01*
X125325714Y-111832380D01*
X126706666Y-111832380D02*
X126135238Y-111832380D01*
X126420952Y-111832380D02*
X126420952Y-110832380D01*
X126325714Y-110975238D01*
X126230476Y-111070476D01*
X126135238Y-111118095D01*
%TO.C,R19*%
X77907142Y-93452380D02*
X77573809Y-92976190D01*
X77335714Y-93452380D02*
X77335714Y-92452380D01*
X77716666Y-92452380D01*
X77811904Y-92500000D01*
X77859523Y-92547619D01*
X77907142Y-92642857D01*
X77907142Y-92785714D01*
X77859523Y-92880952D01*
X77811904Y-92928571D01*
X77716666Y-92976190D01*
X77335714Y-92976190D01*
X78859523Y-93452380D02*
X78288095Y-93452380D01*
X78573809Y-93452380D02*
X78573809Y-92452380D01*
X78478571Y-92595238D01*
X78383333Y-92690476D01*
X78288095Y-92738095D01*
X79335714Y-93452380D02*
X79526190Y-93452380D01*
X79621428Y-93404761D01*
X79669047Y-93357142D01*
X79764285Y-93214285D01*
X79811904Y-93023809D01*
X79811904Y-92642857D01*
X79764285Y-92547619D01*
X79716666Y-92500000D01*
X79621428Y-92452380D01*
X79430952Y-92452380D01*
X79335714Y-92500000D01*
X79288095Y-92547619D01*
X79240476Y-92642857D01*
X79240476Y-92880952D01*
X79288095Y-92976190D01*
X79335714Y-93023809D01*
X79430952Y-93071428D01*
X79621428Y-93071428D01*
X79716666Y-93023809D01*
X79764285Y-92976190D01*
X79811904Y-92880952D01*
%TO.C,U2*%
X118992380Y-97691904D02*
X119801904Y-97691904D01*
X119897142Y-97644285D01*
X119944761Y-97596666D01*
X119992380Y-97501428D01*
X119992380Y-97310952D01*
X119944761Y-97215714D01*
X119897142Y-97168095D01*
X119801904Y-97120476D01*
X118992380Y-97120476D01*
X119087619Y-96691904D02*
X119040000Y-96644285D01*
X118992380Y-96549047D01*
X118992380Y-96310952D01*
X119040000Y-96215714D01*
X119087619Y-96168095D01*
X119182857Y-96120476D01*
X119278095Y-96120476D01*
X119420952Y-96168095D01*
X119992380Y-96739523D01*
X119992380Y-96120476D01*
%TO.C,R7*%
X87333333Y-101222380D02*
X87000000Y-100746190D01*
X86761904Y-101222380D02*
X86761904Y-100222380D01*
X87142857Y-100222380D01*
X87238095Y-100270000D01*
X87285714Y-100317619D01*
X87333333Y-100412857D01*
X87333333Y-100555714D01*
X87285714Y-100650952D01*
X87238095Y-100698571D01*
X87142857Y-100746190D01*
X86761904Y-100746190D01*
X87666666Y-100222380D02*
X88333333Y-100222380D01*
X87904761Y-101222380D01*
%TO.C,J2*%
X74366666Y-93152380D02*
X74366666Y-93866666D01*
X74319047Y-94009523D01*
X74223809Y-94104761D01*
X74080952Y-94152380D01*
X73985714Y-94152380D01*
X74795238Y-93247619D02*
X74842857Y-93200000D01*
X74938095Y-93152380D01*
X75176190Y-93152380D01*
X75271428Y-93200000D01*
X75319047Y-93247619D01*
X75366666Y-93342857D01*
X75366666Y-93438095D01*
X75319047Y-93580952D01*
X74747619Y-94152380D01*
X75366666Y-94152380D01*
%TO.C,R1*%
X76812380Y-108356666D02*
X76336190Y-108690000D01*
X76812380Y-108928095D02*
X75812380Y-108928095D01*
X75812380Y-108547142D01*
X75860000Y-108451904D01*
X75907619Y-108404285D01*
X76002857Y-108356666D01*
X76145714Y-108356666D01*
X76240952Y-108404285D01*
X76288571Y-108451904D01*
X76336190Y-108547142D01*
X76336190Y-108928095D01*
X76812380Y-107404285D02*
X76812380Y-107975714D01*
X76812380Y-107690000D02*
X75812380Y-107690000D01*
X75955238Y-107785238D01*
X76050476Y-107880476D01*
X76098095Y-107975714D01*
%TO.C,L2*%
X112083333Y-99602380D02*
X111607142Y-99602380D01*
X111607142Y-98602380D01*
X112369047Y-98697619D02*
X112416666Y-98650000D01*
X112511904Y-98602380D01*
X112750000Y-98602380D01*
X112845238Y-98650000D01*
X112892857Y-98697619D01*
X112940476Y-98792857D01*
X112940476Y-98888095D01*
X112892857Y-99030952D01*
X112321428Y-99602380D01*
X112940476Y-99602380D01*
%TO.C,J3*%
X99666666Y-111952380D02*
X99666666Y-112666666D01*
X99619047Y-112809523D01*
X99523809Y-112904761D01*
X99380952Y-112952380D01*
X99285714Y-112952380D01*
X100047619Y-111952380D02*
X100666666Y-111952380D01*
X100333333Y-112333333D01*
X100476190Y-112333333D01*
X100571428Y-112380952D01*
X100619047Y-112428571D01*
X100666666Y-112523809D01*
X100666666Y-112761904D01*
X100619047Y-112857142D01*
X100571428Y-112904761D01*
X100476190Y-112952380D01*
X100190476Y-112952380D01*
X100095238Y-112904761D01*
X100047619Y-112857142D01*
%TO.C,R17*%
X95007142Y-100607380D02*
X94673809Y-100131190D01*
X94435714Y-100607380D02*
X94435714Y-99607380D01*
X94816666Y-99607380D01*
X94911904Y-99655000D01*
X94959523Y-99702619D01*
X95007142Y-99797857D01*
X95007142Y-99940714D01*
X94959523Y-100035952D01*
X94911904Y-100083571D01*
X94816666Y-100131190D01*
X94435714Y-100131190D01*
X95959523Y-100607380D02*
X95388095Y-100607380D01*
X95673809Y-100607380D02*
X95673809Y-99607380D01*
X95578571Y-99750238D01*
X95483333Y-99845476D01*
X95388095Y-99893095D01*
X96292857Y-99607380D02*
X96959523Y-99607380D01*
X96530952Y-100607380D01*
%TO.C,R10*%
X98257142Y-107182380D02*
X97923809Y-106706190D01*
X97685714Y-107182380D02*
X97685714Y-106182380D01*
X98066666Y-106182380D01*
X98161904Y-106230000D01*
X98209523Y-106277619D01*
X98257142Y-106372857D01*
X98257142Y-106515714D01*
X98209523Y-106610952D01*
X98161904Y-106658571D01*
X98066666Y-106706190D01*
X97685714Y-106706190D01*
X99209523Y-107182380D02*
X98638095Y-107182380D01*
X98923809Y-107182380D02*
X98923809Y-106182380D01*
X98828571Y-106325238D01*
X98733333Y-106420476D01*
X98638095Y-106468095D01*
X99828571Y-106182380D02*
X99923809Y-106182380D01*
X100019047Y-106230000D01*
X100066666Y-106277619D01*
X100114285Y-106372857D01*
X100161904Y-106563333D01*
X100161904Y-106801428D01*
X100114285Y-106991904D01*
X100066666Y-107087142D01*
X100019047Y-107134761D01*
X99923809Y-107182380D01*
X99828571Y-107182380D01*
X99733333Y-107134761D01*
X99685714Y-107087142D01*
X99638095Y-106991904D01*
X99590476Y-106801428D01*
X99590476Y-106563333D01*
X99638095Y-106372857D01*
X99685714Y-106277619D01*
X99733333Y-106230000D01*
X99828571Y-106182380D01*
%TO.C,R9*%
X75452380Y-108366666D02*
X74976190Y-108700000D01*
X75452380Y-108938095D02*
X74452380Y-108938095D01*
X74452380Y-108557142D01*
X74500000Y-108461904D01*
X74547619Y-108414285D01*
X74642857Y-108366666D01*
X74785714Y-108366666D01*
X74880952Y-108414285D01*
X74928571Y-108461904D01*
X74976190Y-108557142D01*
X74976190Y-108938095D01*
X75452380Y-107890476D02*
X75452380Y-107700000D01*
X75404761Y-107604761D01*
X75357142Y-107557142D01*
X75214285Y-107461904D01*
X75023809Y-107414285D01*
X74642857Y-107414285D01*
X74547619Y-107461904D01*
X74500000Y-107509523D01*
X74452380Y-107604761D01*
X74452380Y-107795238D01*
X74500000Y-107890476D01*
X74547619Y-107938095D01*
X74642857Y-107985714D01*
X74880952Y-107985714D01*
X74976190Y-107938095D01*
X75023809Y-107890476D01*
X75071428Y-107795238D01*
X75071428Y-107604761D01*
X75023809Y-107509523D01*
X74976190Y-107461904D01*
X74880952Y-107414285D01*
%TO.C,D5*%
X118692380Y-98168095D02*
X117692380Y-98168095D01*
X117692380Y-97930000D01*
X117740000Y-97787142D01*
X117835238Y-97691904D01*
X117930476Y-97644285D01*
X118120952Y-97596666D01*
X118263809Y-97596666D01*
X118454285Y-97644285D01*
X118549523Y-97691904D01*
X118644761Y-97787142D01*
X118692380Y-97930000D01*
X118692380Y-98168095D01*
X117692380Y-96691904D02*
X117692380Y-97168095D01*
X118168571Y-97215714D01*
X118120952Y-97168095D01*
X118073333Y-97072857D01*
X118073333Y-96834761D01*
X118120952Y-96739523D01*
X118168571Y-96691904D01*
X118263809Y-96644285D01*
X118501904Y-96644285D01*
X118597142Y-96691904D01*
X118644761Y-96739523D01*
X118692380Y-96834761D01*
X118692380Y-97072857D01*
X118644761Y-97168095D01*
X118597142Y-97215714D01*
%TO.C,D4*%
X100801904Y-101782380D02*
X100801904Y-100782380D01*
X101040000Y-100782380D01*
X101182857Y-100830000D01*
X101278095Y-100925238D01*
X101325714Y-101020476D01*
X101373333Y-101210952D01*
X101373333Y-101353809D01*
X101325714Y-101544285D01*
X101278095Y-101639523D01*
X101182857Y-101734761D01*
X101040000Y-101782380D01*
X100801904Y-101782380D01*
X102230476Y-101115714D02*
X102230476Y-101782380D01*
X101992380Y-100734761D02*
X101754285Y-101449047D01*
X102373333Y-101449047D01*
%TO.C,R4*%
X86083333Y-107902380D02*
X85750000Y-107426190D01*
X85511904Y-107902380D02*
X85511904Y-106902380D01*
X85892857Y-106902380D01*
X85988095Y-106950000D01*
X86035714Y-106997619D01*
X86083333Y-107092857D01*
X86083333Y-107235714D01*
X86035714Y-107330952D01*
X85988095Y-107378571D01*
X85892857Y-107426190D01*
X85511904Y-107426190D01*
X86940476Y-107235714D02*
X86940476Y-107902380D01*
X86702380Y-106854761D02*
X86464285Y-107569047D01*
X87083333Y-107569047D01*
%TO.C,C3*%
X118183333Y-88307142D02*
X118135714Y-88354761D01*
X117992857Y-88402380D01*
X117897619Y-88402380D01*
X117754761Y-88354761D01*
X117659523Y-88259523D01*
X117611904Y-88164285D01*
X117564285Y-87973809D01*
X117564285Y-87830952D01*
X117611904Y-87640476D01*
X117659523Y-87545238D01*
X117754761Y-87450000D01*
X117897619Y-87402380D01*
X117992857Y-87402380D01*
X118135714Y-87450000D01*
X118183333Y-87497619D01*
X118516666Y-87402380D02*
X119135714Y-87402380D01*
X118802380Y-87783333D01*
X118945238Y-87783333D01*
X119040476Y-87830952D01*
X119088095Y-87878571D01*
X119135714Y-87973809D01*
X119135714Y-88211904D01*
X119088095Y-88307142D01*
X119040476Y-88354761D01*
X118945238Y-88402380D01*
X118659523Y-88402380D01*
X118564285Y-88354761D01*
X118516666Y-88307142D01*
%TO.C,R18*%
X84407142Y-93452380D02*
X84073809Y-92976190D01*
X83835714Y-93452380D02*
X83835714Y-92452380D01*
X84216666Y-92452380D01*
X84311904Y-92500000D01*
X84359523Y-92547619D01*
X84407142Y-92642857D01*
X84407142Y-92785714D01*
X84359523Y-92880952D01*
X84311904Y-92928571D01*
X84216666Y-92976190D01*
X83835714Y-92976190D01*
X85359523Y-93452380D02*
X84788095Y-93452380D01*
X85073809Y-93452380D02*
X85073809Y-92452380D01*
X84978571Y-92595238D01*
X84883333Y-92690476D01*
X84788095Y-92738095D01*
X85930952Y-92880952D02*
X85835714Y-92833333D01*
X85788095Y-92785714D01*
X85740476Y-92690476D01*
X85740476Y-92642857D01*
X85788095Y-92547619D01*
X85835714Y-92500000D01*
X85930952Y-92452380D01*
X86121428Y-92452380D01*
X86216666Y-92500000D01*
X86264285Y-92547619D01*
X86311904Y-92642857D01*
X86311904Y-92690476D01*
X86264285Y-92785714D01*
X86216666Y-92833333D01*
X86121428Y-92880952D01*
X85930952Y-92880952D01*
X85835714Y-92928571D01*
X85788095Y-92976190D01*
X85740476Y-93071428D01*
X85740476Y-93261904D01*
X85788095Y-93357142D01*
X85835714Y-93404761D01*
X85930952Y-93452380D01*
X86121428Y-93452380D01*
X86216666Y-93404761D01*
X86264285Y-93357142D01*
X86311904Y-93261904D01*
X86311904Y-93071428D01*
X86264285Y-92976190D01*
X86216666Y-92928571D01*
X86121428Y-92880952D01*
%TO.C,R6*%
X87333333Y-102802380D02*
X87000000Y-102326190D01*
X86761904Y-102802380D02*
X86761904Y-101802380D01*
X87142857Y-101802380D01*
X87238095Y-101850000D01*
X87285714Y-101897619D01*
X87333333Y-101992857D01*
X87333333Y-102135714D01*
X87285714Y-102230952D01*
X87238095Y-102278571D01*
X87142857Y-102326190D01*
X86761904Y-102326190D01*
X88190476Y-101802380D02*
X88000000Y-101802380D01*
X87904761Y-101850000D01*
X87857142Y-101897619D01*
X87761904Y-102040476D01*
X87714285Y-102230952D01*
X87714285Y-102611904D01*
X87761904Y-102707142D01*
X87809523Y-102754761D01*
X87904761Y-102802380D01*
X88095238Y-102802380D01*
X88190476Y-102754761D01*
X88238095Y-102707142D01*
X88285714Y-102611904D01*
X88285714Y-102373809D01*
X88238095Y-102278571D01*
X88190476Y-102230952D01*
X88095238Y-102183333D01*
X87904761Y-102183333D01*
X87809523Y-102230952D01*
X87761904Y-102278571D01*
X87714285Y-102373809D01*
%TO.C,U3*%
X105528095Y-102382380D02*
X105528095Y-103191904D01*
X105575714Y-103287142D01*
X105623333Y-103334761D01*
X105718571Y-103382380D01*
X105909047Y-103382380D01*
X106004285Y-103334761D01*
X106051904Y-103287142D01*
X106099523Y-103191904D01*
X106099523Y-102382380D01*
X106480476Y-102382380D02*
X107099523Y-102382380D01*
X106766190Y-102763333D01*
X106909047Y-102763333D01*
X107004285Y-102810952D01*
X107051904Y-102858571D01*
X107099523Y-102953809D01*
X107099523Y-103191904D01*
X107051904Y-103287142D01*
X107004285Y-103334761D01*
X106909047Y-103382380D01*
X106623333Y-103382380D01*
X106528095Y-103334761D01*
X106480476Y-103287142D01*
%TO.C,U1*%
X84652380Y-110061904D02*
X85461904Y-110061904D01*
X85557142Y-110014285D01*
X85604761Y-109966666D01*
X85652380Y-109871428D01*
X85652380Y-109680952D01*
X85604761Y-109585714D01*
X85557142Y-109538095D01*
X85461904Y-109490476D01*
X84652380Y-109490476D01*
X85652380Y-108490476D02*
X85652380Y-109061904D01*
X85652380Y-108776190D02*
X84652380Y-108776190D01*
X84795238Y-108871428D01*
X84890476Y-108966666D01*
X84938095Y-109061904D01*
%TO.C,C10*%
X95007142Y-95807142D02*
X94959523Y-95854761D01*
X94816666Y-95902380D01*
X94721428Y-95902380D01*
X94578571Y-95854761D01*
X94483333Y-95759523D01*
X94435714Y-95664285D01*
X94388095Y-95473809D01*
X94388095Y-95330952D01*
X94435714Y-95140476D01*
X94483333Y-95045238D01*
X94578571Y-94950000D01*
X94721428Y-94902380D01*
X94816666Y-94902380D01*
X94959523Y-94950000D01*
X95007142Y-94997619D01*
X95959523Y-95902380D02*
X95388095Y-95902380D01*
X95673809Y-95902380D02*
X95673809Y-94902380D01*
X95578571Y-95045238D01*
X95483333Y-95140476D01*
X95388095Y-95188095D01*
X96578571Y-94902380D02*
X96673809Y-94902380D01*
X96769047Y-94950000D01*
X96816666Y-94997619D01*
X96864285Y-95092857D01*
X96911904Y-95283333D01*
X96911904Y-95521428D01*
X96864285Y-95711904D01*
X96816666Y-95807142D01*
X96769047Y-95854761D01*
X96673809Y-95902380D01*
X96578571Y-95902380D01*
X96483333Y-95854761D01*
X96435714Y-95807142D01*
X96388095Y-95711904D01*
X96340476Y-95521428D01*
X96340476Y-95283333D01*
X96388095Y-95092857D01*
X96435714Y-94997619D01*
X96483333Y-94950000D01*
X96578571Y-94902380D01*
%TO.C,R20*%
X87807142Y-109602380D02*
X87473809Y-109126190D01*
X87235714Y-109602380D02*
X87235714Y-108602380D01*
X87616666Y-108602380D01*
X87711904Y-108650000D01*
X87759523Y-108697619D01*
X87807142Y-108792857D01*
X87807142Y-108935714D01*
X87759523Y-109030952D01*
X87711904Y-109078571D01*
X87616666Y-109126190D01*
X87235714Y-109126190D01*
X88188095Y-108697619D02*
X88235714Y-108650000D01*
X88330952Y-108602380D01*
X88569047Y-108602380D01*
X88664285Y-108650000D01*
X88711904Y-108697619D01*
X88759523Y-108792857D01*
X88759523Y-108888095D01*
X88711904Y-109030952D01*
X88140476Y-109602380D01*
X88759523Y-109602380D01*
X89378571Y-108602380D02*
X89473809Y-108602380D01*
X89569047Y-108650000D01*
X89616666Y-108697619D01*
X89664285Y-108792857D01*
X89711904Y-108983333D01*
X89711904Y-109221428D01*
X89664285Y-109411904D01*
X89616666Y-109507142D01*
X89569047Y-109554761D01*
X89473809Y-109602380D01*
X89378571Y-109602380D01*
X89283333Y-109554761D01*
X89235714Y-109507142D01*
X89188095Y-109411904D01*
X89140476Y-109221428D01*
X89140476Y-108983333D01*
X89188095Y-108792857D01*
X89235714Y-108697619D01*
X89283333Y-108650000D01*
X89378571Y-108602380D01*
%TO.C,Q1*%
X123894761Y-103477619D02*
X123799523Y-103430000D01*
X123704285Y-103334761D01*
X123561428Y-103191904D01*
X123466190Y-103144285D01*
X123370952Y-103144285D01*
X123418571Y-103382380D02*
X123323333Y-103334761D01*
X123228095Y-103239523D01*
X123180476Y-103049047D01*
X123180476Y-102715714D01*
X123228095Y-102525238D01*
X123323333Y-102430000D01*
X123418571Y-102382380D01*
X123609047Y-102382380D01*
X123704285Y-102430000D01*
X123799523Y-102525238D01*
X123847142Y-102715714D01*
X123847142Y-103049047D01*
X123799523Y-103239523D01*
X123704285Y-103334761D01*
X123609047Y-103382380D01*
X123418571Y-103382380D01*
X124799523Y-103382380D02*
X124228095Y-103382380D01*
X124513809Y-103382380D02*
X124513809Y-102382380D01*
X124418571Y-102525238D01*
X124323333Y-102620476D01*
X124228095Y-102668095D01*
%TO.C,J4*%
X93816666Y-93452380D02*
X93816666Y-94166666D01*
X93769047Y-94309523D01*
X93673809Y-94404761D01*
X93530952Y-94452380D01*
X93435714Y-94452380D01*
X94721428Y-93785714D02*
X94721428Y-94452380D01*
X94483333Y-93404761D02*
X94245238Y-94119047D01*
X94864285Y-94119047D01*
%TO.C,C9*%
X111633333Y-94757142D02*
X111585714Y-94804761D01*
X111442857Y-94852380D01*
X111347619Y-94852380D01*
X111204761Y-94804761D01*
X111109523Y-94709523D01*
X111061904Y-94614285D01*
X111014285Y-94423809D01*
X111014285Y-94280952D01*
X111061904Y-94090476D01*
X111109523Y-93995238D01*
X111204761Y-93900000D01*
X111347619Y-93852380D01*
X111442857Y-93852380D01*
X111585714Y-93900000D01*
X111633333Y-93947619D01*
X112109523Y-94852380D02*
X112300000Y-94852380D01*
X112395238Y-94804761D01*
X112442857Y-94757142D01*
X112538095Y-94614285D01*
X112585714Y-94423809D01*
X112585714Y-94042857D01*
X112538095Y-93947619D01*
X112490476Y-93900000D01*
X112395238Y-93852380D01*
X112204761Y-93852380D01*
X112109523Y-93900000D01*
X112061904Y-93947619D01*
X112014285Y-94042857D01*
X112014285Y-94280952D01*
X112061904Y-94376190D01*
X112109523Y-94423809D01*
X112204761Y-94471428D01*
X112395238Y-94471428D01*
X112490476Y-94423809D01*
X112538095Y-94376190D01*
X112585714Y-94280952D01*
%TO.C,C5*%
X112139642Y-91129166D02*
X112187261Y-91176785D01*
X112234880Y-91319642D01*
X112234880Y-91414880D01*
X112187261Y-91557738D01*
X112092023Y-91652976D01*
X111996785Y-91700595D01*
X111806309Y-91748214D01*
X111663452Y-91748214D01*
X111472976Y-91700595D01*
X111377738Y-91652976D01*
X111282500Y-91557738D01*
X111234880Y-91414880D01*
X111234880Y-91319642D01*
X111282500Y-91176785D01*
X111330119Y-91129166D01*
X111234880Y-90224404D02*
X111234880Y-90700595D01*
X111711071Y-90748214D01*
X111663452Y-90700595D01*
X111615833Y-90605357D01*
X111615833Y-90367261D01*
X111663452Y-90272023D01*
X111711071Y-90224404D01*
X111806309Y-90176785D01*
X112044404Y-90176785D01*
X112139642Y-90224404D01*
X112187261Y-90272023D01*
X112234880Y-90367261D01*
X112234880Y-90605357D01*
X112187261Y-90700595D01*
X112139642Y-90748214D01*
%TO.C,R11*%
X104197142Y-106782380D02*
X103863809Y-106306190D01*
X103625714Y-106782380D02*
X103625714Y-105782380D01*
X104006666Y-105782380D01*
X104101904Y-105830000D01*
X104149523Y-105877619D01*
X104197142Y-105972857D01*
X104197142Y-106115714D01*
X104149523Y-106210952D01*
X104101904Y-106258571D01*
X104006666Y-106306190D01*
X103625714Y-106306190D01*
X105149523Y-106782380D02*
X104578095Y-106782380D01*
X104863809Y-106782380D02*
X104863809Y-105782380D01*
X104768571Y-105925238D01*
X104673333Y-106020476D01*
X104578095Y-106068095D01*
X106101904Y-106782380D02*
X105530476Y-106782380D01*
X105816190Y-106782380D02*
X105816190Y-105782380D01*
X105720952Y-105925238D01*
X105625714Y-106020476D01*
X105530476Y-106068095D01*
%TO.C,C8*%
X111583333Y-96357142D02*
X111535714Y-96404761D01*
X111392857Y-96452380D01*
X111297619Y-96452380D01*
X111154761Y-96404761D01*
X111059523Y-96309523D01*
X111011904Y-96214285D01*
X110964285Y-96023809D01*
X110964285Y-95880952D01*
X111011904Y-95690476D01*
X111059523Y-95595238D01*
X111154761Y-95500000D01*
X111297619Y-95452380D01*
X111392857Y-95452380D01*
X111535714Y-95500000D01*
X111583333Y-95547619D01*
X112154761Y-95880952D02*
X112059523Y-95833333D01*
X112011904Y-95785714D01*
X111964285Y-95690476D01*
X111964285Y-95642857D01*
X112011904Y-95547619D01*
X112059523Y-95500000D01*
X112154761Y-95452380D01*
X112345238Y-95452380D01*
X112440476Y-95500000D01*
X112488095Y-95547619D01*
X112535714Y-95642857D01*
X112535714Y-95690476D01*
X112488095Y-95785714D01*
X112440476Y-95833333D01*
X112345238Y-95880952D01*
X112154761Y-95880952D01*
X112059523Y-95928571D01*
X112011904Y-95976190D01*
X111964285Y-96071428D01*
X111964285Y-96261904D01*
X112011904Y-96357142D01*
X112059523Y-96404761D01*
X112154761Y-96452380D01*
X112345238Y-96452380D01*
X112440476Y-96404761D01*
X112488095Y-96357142D01*
X112535714Y-96261904D01*
X112535714Y-96071428D01*
X112488095Y-95976190D01*
X112440476Y-95928571D01*
X112345238Y-95880952D01*
%TO.C,R8*%
X87383333Y-99642380D02*
X87050000Y-99166190D01*
X86811904Y-99642380D02*
X86811904Y-98642380D01*
X87192857Y-98642380D01*
X87288095Y-98690000D01*
X87335714Y-98737619D01*
X87383333Y-98832857D01*
X87383333Y-98975714D01*
X87335714Y-99070952D01*
X87288095Y-99118571D01*
X87192857Y-99166190D01*
X86811904Y-99166190D01*
X87954761Y-99070952D02*
X87859523Y-99023333D01*
X87811904Y-98975714D01*
X87764285Y-98880476D01*
X87764285Y-98832857D01*
X87811904Y-98737619D01*
X87859523Y-98690000D01*
X87954761Y-98642380D01*
X88145238Y-98642380D01*
X88240476Y-98690000D01*
X88288095Y-98737619D01*
X88335714Y-98832857D01*
X88335714Y-98880476D01*
X88288095Y-98975714D01*
X88240476Y-99023333D01*
X88145238Y-99070952D01*
X87954761Y-99070952D01*
X87859523Y-99118571D01*
X87811904Y-99166190D01*
X87764285Y-99261428D01*
X87764285Y-99451904D01*
X87811904Y-99547142D01*
X87859523Y-99594761D01*
X87954761Y-99642380D01*
X88145238Y-99642380D01*
X88240476Y-99594761D01*
X88288095Y-99547142D01*
X88335714Y-99451904D01*
X88335714Y-99261428D01*
X88288095Y-99166190D01*
X88240476Y-99118571D01*
X88145238Y-99070952D01*
%TO.C,U4*%
X114788095Y-92552380D02*
X114788095Y-93361904D01*
X114835714Y-93457142D01*
X114883333Y-93504761D01*
X114978571Y-93552380D01*
X115169047Y-93552380D01*
X115264285Y-93504761D01*
X115311904Y-93457142D01*
X115359523Y-93361904D01*
X115359523Y-92552380D01*
X116264285Y-92885714D02*
X116264285Y-93552380D01*
X116026190Y-92504761D02*
X115788095Y-93219047D01*
X116407142Y-93219047D01*
%TO.C,C4*%
X113397142Y-105496666D02*
X113444761Y-105544285D01*
X113492380Y-105687142D01*
X113492380Y-105782380D01*
X113444761Y-105925238D01*
X113349523Y-106020476D01*
X113254285Y-106068095D01*
X113063809Y-106115714D01*
X112920952Y-106115714D01*
X112730476Y-106068095D01*
X112635238Y-106020476D01*
X112540000Y-105925238D01*
X112492380Y-105782380D01*
X112492380Y-105687142D01*
X112540000Y-105544285D01*
X112587619Y-105496666D01*
X112825714Y-104639523D02*
X113492380Y-104639523D01*
X112444761Y-104877619D02*
X113159047Y-105115714D01*
X113159047Y-104496666D01*
%TO.C,C7*%
X106697142Y-96196666D02*
X106744761Y-96244285D01*
X106792380Y-96387142D01*
X106792380Y-96482380D01*
X106744761Y-96625238D01*
X106649523Y-96720476D01*
X106554285Y-96768095D01*
X106363809Y-96815714D01*
X106220952Y-96815714D01*
X106030476Y-96768095D01*
X105935238Y-96720476D01*
X105840000Y-96625238D01*
X105792380Y-96482380D01*
X105792380Y-96387142D01*
X105840000Y-96244285D01*
X105887619Y-96196666D01*
X105792380Y-95863333D02*
X105792380Y-95196666D01*
X106792380Y-95625238D01*
%TO.C,C11*%
X78107142Y-94957142D02*
X78059523Y-95004761D01*
X77916666Y-95052380D01*
X77821428Y-95052380D01*
X77678571Y-95004761D01*
X77583333Y-94909523D01*
X77535714Y-94814285D01*
X77488095Y-94623809D01*
X77488095Y-94480952D01*
X77535714Y-94290476D01*
X77583333Y-94195238D01*
X77678571Y-94100000D01*
X77821428Y-94052380D01*
X77916666Y-94052380D01*
X78059523Y-94100000D01*
X78107142Y-94147619D01*
X79059523Y-95052380D02*
X78488095Y-95052380D01*
X78773809Y-95052380D02*
X78773809Y-94052380D01*
X78678571Y-94195238D01*
X78583333Y-94290476D01*
X78488095Y-94338095D01*
X80011904Y-95052380D02*
X79440476Y-95052380D01*
X79726190Y-95052380D02*
X79726190Y-94052380D01*
X79630952Y-94195238D01*
X79535714Y-94290476D01*
X79440476Y-94338095D01*
%TO.C,C1*%
X124287142Y-90548042D02*
X124334761Y-90595661D01*
X124382380Y-90738518D01*
X124382380Y-90833756D01*
X124334761Y-90976614D01*
X124239523Y-91071852D01*
X124144285Y-91119471D01*
X123953809Y-91167090D01*
X123810952Y-91167090D01*
X123620476Y-91119471D01*
X123525238Y-91071852D01*
X123430000Y-90976614D01*
X123382380Y-90833756D01*
X123382380Y-90738518D01*
X123430000Y-90595661D01*
X123477619Y-90548042D01*
X124382380Y-89595661D02*
X124382380Y-90167090D01*
X124382380Y-89881376D02*
X123382380Y-89881376D01*
X123525238Y-89976614D01*
X123620476Y-90071852D01*
X123668095Y-90167090D01*
%TO.C,C6*%
X120057142Y-91116666D02*
X120104761Y-91164285D01*
X120152380Y-91307142D01*
X120152380Y-91402380D01*
X120104761Y-91545238D01*
X120009523Y-91640476D01*
X119914285Y-91688095D01*
X119723809Y-91735714D01*
X119580952Y-91735714D01*
X119390476Y-91688095D01*
X119295238Y-91640476D01*
X119200000Y-91545238D01*
X119152380Y-91402380D01*
X119152380Y-91307142D01*
X119200000Y-91164285D01*
X119247619Y-91116666D01*
X119152380Y-90259523D02*
X119152380Y-90450000D01*
X119200000Y-90545238D01*
X119247619Y-90592857D01*
X119390476Y-90688095D01*
X119580952Y-90735714D01*
X119961904Y-90735714D01*
X120057142Y-90688095D01*
X120104761Y-90640476D01*
X120152380Y-90545238D01*
X120152380Y-90354761D01*
X120104761Y-90259523D01*
X120057142Y-90211904D01*
X119961904Y-90164285D01*
X119723809Y-90164285D01*
X119628571Y-90211904D01*
X119580952Y-90259523D01*
X119533333Y-90354761D01*
X119533333Y-90545238D01*
X119580952Y-90640476D01*
X119628571Y-90688095D01*
X119723809Y-90735714D01*
%TO.C,R13*%
X107172380Y-105942857D02*
X106696190Y-106276190D01*
X107172380Y-106514285D02*
X106172380Y-106514285D01*
X106172380Y-106133333D01*
X106220000Y-106038095D01*
X106267619Y-105990476D01*
X106362857Y-105942857D01*
X106505714Y-105942857D01*
X106600952Y-105990476D01*
X106648571Y-106038095D01*
X106696190Y-106133333D01*
X106696190Y-106514285D01*
X107172380Y-104990476D02*
X107172380Y-105561904D01*
X107172380Y-105276190D02*
X106172380Y-105276190D01*
X106315238Y-105371428D01*
X106410476Y-105466666D01*
X106458095Y-105561904D01*
X106172380Y-104657142D02*
X106172380Y-104038095D01*
X106553333Y-104371428D01*
X106553333Y-104228571D01*
X106600952Y-104133333D01*
X106648571Y-104085714D01*
X106743809Y-104038095D01*
X106981904Y-104038095D01*
X107077142Y-104085714D01*
X107124761Y-104133333D01*
X107172380Y-104228571D01*
X107172380Y-104514285D01*
X107124761Y-104609523D01*
X107077142Y-104657142D01*
%TO.C,D3*%
X94452380Y-103938095D02*
X93452380Y-103938095D01*
X93452380Y-103700000D01*
X93500000Y-103557142D01*
X93595238Y-103461904D01*
X93690476Y-103414285D01*
X93880952Y-103366666D01*
X94023809Y-103366666D01*
X94214285Y-103414285D01*
X94309523Y-103461904D01*
X94404761Y-103557142D01*
X94452380Y-103700000D01*
X94452380Y-103938095D01*
X93452380Y-103033333D02*
X93452380Y-102414285D01*
X93833333Y-102747619D01*
X93833333Y-102604761D01*
X93880952Y-102509523D01*
X93928571Y-102461904D01*
X94023809Y-102414285D01*
X94261904Y-102414285D01*
X94357142Y-102461904D01*
X94404761Y-102509523D01*
X94452380Y-102604761D01*
X94452380Y-102890476D01*
X94404761Y-102985714D01*
X94357142Y-103033333D01*
%TO.C,C2*%
X107357142Y-109416666D02*
X107404761Y-109464285D01*
X107452380Y-109607142D01*
X107452380Y-109702380D01*
X107404761Y-109845238D01*
X107309523Y-109940476D01*
X107214285Y-109988095D01*
X107023809Y-110035714D01*
X106880952Y-110035714D01*
X106690476Y-109988095D01*
X106595238Y-109940476D01*
X106500000Y-109845238D01*
X106452380Y-109702380D01*
X106452380Y-109607142D01*
X106500000Y-109464285D01*
X106547619Y-109416666D01*
X106547619Y-109035714D02*
X106500000Y-108988095D01*
X106452380Y-108892857D01*
X106452380Y-108654761D01*
X106500000Y-108559523D01*
X106547619Y-108511904D01*
X106642857Y-108464285D01*
X106738095Y-108464285D01*
X106880952Y-108511904D01*
X107452380Y-109083333D01*
X107452380Y-108464285D01*
%TO.C,R15*%
X105242380Y-100422857D02*
X104766190Y-100756190D01*
X105242380Y-100994285D02*
X104242380Y-100994285D01*
X104242380Y-100613333D01*
X104290000Y-100518095D01*
X104337619Y-100470476D01*
X104432857Y-100422857D01*
X104575714Y-100422857D01*
X104670952Y-100470476D01*
X104718571Y-100518095D01*
X104766190Y-100613333D01*
X104766190Y-100994285D01*
X105242380Y-99470476D02*
X105242380Y-100041904D01*
X105242380Y-99756190D02*
X104242380Y-99756190D01*
X104385238Y-99851428D01*
X104480476Y-99946666D01*
X104528095Y-100041904D01*
X104242380Y-98565714D02*
X104242380Y-99041904D01*
X104718571Y-99089523D01*
X104670952Y-99041904D01*
X104623333Y-98946666D01*
X104623333Y-98708571D01*
X104670952Y-98613333D01*
X104718571Y-98565714D01*
X104813809Y-98518095D01*
X105051904Y-98518095D01*
X105147142Y-98565714D01*
X105194761Y-98613333D01*
X105242380Y-98708571D01*
X105242380Y-98946666D01*
X105194761Y-99041904D01*
X105147142Y-99089523D01*
%TO.C,R12*%
X98282142Y-102697380D02*
X97948809Y-102221190D01*
X97710714Y-102697380D02*
X97710714Y-101697380D01*
X98091666Y-101697380D01*
X98186904Y-101745000D01*
X98234523Y-101792619D01*
X98282142Y-101887857D01*
X98282142Y-102030714D01*
X98234523Y-102125952D01*
X98186904Y-102173571D01*
X98091666Y-102221190D01*
X97710714Y-102221190D01*
X99234523Y-102697380D02*
X98663095Y-102697380D01*
X98948809Y-102697380D02*
X98948809Y-101697380D01*
X98853571Y-101840238D01*
X98758333Y-101935476D01*
X98663095Y-101983095D01*
X99615476Y-101792619D02*
X99663095Y-101745000D01*
X99758333Y-101697380D01*
X99996428Y-101697380D01*
X100091666Y-101745000D01*
X100139285Y-101792619D01*
X100186904Y-101887857D01*
X100186904Y-101983095D01*
X100139285Y-102125952D01*
X99567857Y-102697380D01*
X100186904Y-102697380D01*
%TO.C,R2*%
X125832380Y-100548042D02*
X125356190Y-100881376D01*
X125832380Y-101119471D02*
X124832380Y-101119471D01*
X124832380Y-100738518D01*
X124880000Y-100643280D01*
X124927619Y-100595661D01*
X125022857Y-100548042D01*
X125165714Y-100548042D01*
X125260952Y-100595661D01*
X125308571Y-100643280D01*
X125356190Y-100738518D01*
X125356190Y-101119471D01*
X124927619Y-100167090D02*
X124880000Y-100119471D01*
X124832380Y-100024233D01*
X124832380Y-99786137D01*
X124880000Y-99690899D01*
X124927619Y-99643280D01*
X125022857Y-99595661D01*
X125118095Y-99595661D01*
X125260952Y-99643280D01*
X125832380Y-100214709D01*
X125832380Y-99595661D01*
%TO.C,F1*%
X76866666Y-106028571D02*
X76533333Y-106028571D01*
X76533333Y-106552380D02*
X76533333Y-105552380D01*
X77009523Y-105552380D01*
X77914285Y-106552380D02*
X77342857Y-106552380D01*
X77628571Y-106552380D02*
X77628571Y-105552380D01*
X77533333Y-105695238D01*
X77438095Y-105790476D01*
X77342857Y-105838095D01*
%TO.C,R3*%
X87333333Y-97702380D02*
X87000000Y-97226190D01*
X86761904Y-97702380D02*
X86761904Y-96702380D01*
X87142857Y-96702380D01*
X87238095Y-96750000D01*
X87285714Y-96797619D01*
X87333333Y-96892857D01*
X87333333Y-97035714D01*
X87285714Y-97130952D01*
X87238095Y-97178571D01*
X87142857Y-97226190D01*
X86761904Y-97226190D01*
X87666666Y-96702380D02*
X88285714Y-96702380D01*
X87952380Y-97083333D01*
X88095238Y-97083333D01*
X88190476Y-97130952D01*
X88238095Y-97178571D01*
X88285714Y-97273809D01*
X88285714Y-97511904D01*
X88238095Y-97607142D01*
X88190476Y-97654761D01*
X88095238Y-97702380D01*
X87809523Y-97702380D01*
X87714285Y-97654761D01*
X87666666Y-97607142D01*
%TO.C,R14*%
X108492380Y-96072857D02*
X108016190Y-96406190D01*
X108492380Y-96644285D02*
X107492380Y-96644285D01*
X107492380Y-96263333D01*
X107540000Y-96168095D01*
X107587619Y-96120476D01*
X107682857Y-96072857D01*
X107825714Y-96072857D01*
X107920952Y-96120476D01*
X107968571Y-96168095D01*
X108016190Y-96263333D01*
X108016190Y-96644285D01*
X108492380Y-95120476D02*
X108492380Y-95691904D01*
X108492380Y-95406190D02*
X107492380Y-95406190D01*
X107635238Y-95501428D01*
X107730476Y-95596666D01*
X107778095Y-95691904D01*
X107825714Y-94263333D02*
X108492380Y-94263333D01*
X107444761Y-94501428D02*
X108159047Y-94739523D01*
X108159047Y-94120476D01*
%TO.C,D1*%
X79852380Y-102788095D02*
X78852380Y-102788095D01*
X78852380Y-102550000D01*
X78900000Y-102407142D01*
X78995238Y-102311904D01*
X79090476Y-102264285D01*
X79280952Y-102216666D01*
X79423809Y-102216666D01*
X79614285Y-102264285D01*
X79709523Y-102311904D01*
X79804761Y-102407142D01*
X79852380Y-102550000D01*
X79852380Y-102788095D01*
X79852380Y-101264285D02*
X79852380Y-101835714D01*
X79852380Y-101550000D02*
X78852380Y-101550000D01*
X78995238Y-101645238D01*
X79090476Y-101740476D01*
X79138095Y-101835714D01*
%TO.C,Q2*%
X121734761Y-88828995D02*
X121639523Y-88781376D01*
X121544285Y-88686137D01*
X121401428Y-88543280D01*
X121306190Y-88495661D01*
X121210952Y-88495661D01*
X121258571Y-88733756D02*
X121163333Y-88686137D01*
X121068095Y-88590899D01*
X121020476Y-88400423D01*
X121020476Y-88067090D01*
X121068095Y-87876614D01*
X121163333Y-87781376D01*
X121258571Y-87733756D01*
X121449047Y-87733756D01*
X121544285Y-87781376D01*
X121639523Y-87876614D01*
X121687142Y-88067090D01*
X121687142Y-88400423D01*
X121639523Y-88590899D01*
X121544285Y-88686137D01*
X121449047Y-88733756D01*
X121258571Y-88733756D01*
X122068095Y-87828995D02*
X122115714Y-87781376D01*
X122210952Y-87733756D01*
X122449047Y-87733756D01*
X122544285Y-87781376D01*
X122591904Y-87828995D01*
X122639523Y-87924233D01*
X122639523Y-88019471D01*
X122591904Y-88162328D01*
X122020476Y-88733756D01*
X122639523Y-88733756D01*
%TO.C,L1*%
X112783333Y-111502380D02*
X112307142Y-111502380D01*
X112307142Y-110502380D01*
X113640476Y-111502380D02*
X113069047Y-111502380D01*
X113354761Y-111502380D02*
X113354761Y-110502380D01*
X113259523Y-110645238D01*
X113164285Y-110740476D01*
X113069047Y-110788095D01*
%TO.C,J5*%
X76866666Y-87002380D02*
X76866666Y-87716666D01*
X76819047Y-87859523D01*
X76723809Y-87954761D01*
X76580952Y-88002380D01*
X76485714Y-88002380D01*
X77819047Y-87002380D02*
X77342857Y-87002380D01*
X77295238Y-87478571D01*
X77342857Y-87430952D01*
X77438095Y-87383333D01*
X77676190Y-87383333D01*
X77771428Y-87430952D01*
X77819047Y-87478571D01*
X77866666Y-87573809D01*
X77866666Y-87811904D01*
X77819047Y-87907142D01*
X77771428Y-87954761D01*
X77676190Y-88002380D01*
X77438095Y-88002380D01*
X77342857Y-87954761D01*
X77295238Y-87907142D01*
%TO.C,D2*%
X79852380Y-98638095D02*
X78852380Y-98638095D01*
X78852380Y-98400000D01*
X78900000Y-98257142D01*
X78995238Y-98161904D01*
X79090476Y-98114285D01*
X79280952Y-98066666D01*
X79423809Y-98066666D01*
X79614285Y-98114285D01*
X79709523Y-98161904D01*
X79804761Y-98257142D01*
X79852380Y-98400000D01*
X79852380Y-98638095D01*
X78947619Y-97685714D02*
X78900000Y-97638095D01*
X78852380Y-97542857D01*
X78852380Y-97304761D01*
X78900000Y-97209523D01*
X78947619Y-97161904D01*
X79042857Y-97114285D01*
X79138095Y-97114285D01*
X79280952Y-97161904D01*
X79852380Y-97733333D01*
X79852380Y-97114285D01*
%TO.C,R16*%
X98257142Y-100607380D02*
X97923809Y-100131190D01*
X97685714Y-100607380D02*
X97685714Y-99607380D01*
X98066666Y-99607380D01*
X98161904Y-99655000D01*
X98209523Y-99702619D01*
X98257142Y-99797857D01*
X98257142Y-99940714D01*
X98209523Y-100035952D01*
X98161904Y-100083571D01*
X98066666Y-100131190D01*
X97685714Y-100131190D01*
X99209523Y-100607380D02*
X98638095Y-100607380D01*
X98923809Y-100607380D02*
X98923809Y-99607380D01*
X98828571Y-99750238D01*
X98733333Y-99845476D01*
X98638095Y-99893095D01*
X100066666Y-99607380D02*
X99876190Y-99607380D01*
X99780952Y-99655000D01*
X99733333Y-99702619D01*
X99638095Y-99845476D01*
X99590476Y-100035952D01*
X99590476Y-100416904D01*
X99638095Y-100512142D01*
X99685714Y-100559761D01*
X99780952Y-100607380D01*
X99971428Y-100607380D01*
X100066666Y-100559761D01*
X100114285Y-100512142D01*
X100161904Y-100416904D01*
X100161904Y-100178809D01*
X100114285Y-100083571D01*
X100066666Y-100035952D01*
X99971428Y-99988333D01*
X99780952Y-99988333D01*
X99685714Y-100035952D01*
X99638095Y-100083571D01*
X99590476Y-100178809D01*
D11*
%TO.C,R5*%
X124917500Y-96692742D02*
X124917500Y-97167258D01*
X125962500Y-96692742D02*
X125962500Y-97167258D01*
%TO.C,J1*%
X116320000Y-109730303D02*
X116320000Y-105480303D01*
X116320000Y-105480303D02*
X117340000Y-105480303D01*
X117340000Y-105480303D02*
X117340000Y-107080303D01*
X117340000Y-107080303D02*
X118620000Y-107080303D01*
X118620000Y-107080303D02*
X118620000Y-104190303D01*
X124440000Y-109730303D02*
X124440000Y-105480303D01*
X124440000Y-105480303D02*
X123420000Y-105480303D01*
X123420000Y-105480303D02*
X123420000Y-107080303D01*
X123420000Y-107080303D02*
X122140000Y-107080303D01*
X118040000Y-113300303D02*
X122720000Y-113300303D01*
%TO.C,R19*%
X81987258Y-92477500D02*
X81512742Y-92477500D01*
X81987258Y-93522500D02*
X81512742Y-93522500D01*
%TO.C,U2*%
X122330000Y-95332876D02*
X121530000Y-95332876D01*
X122330000Y-95332876D02*
X123130000Y-95332876D01*
X122330000Y-98452876D02*
X121530000Y-98452876D01*
X122330000Y-98452876D02*
X124130000Y-98452876D01*
%TO.C,R7*%
X85237258Y-101292500D02*
X84762742Y-101292500D01*
X85237258Y-100247500D02*
X84762742Y-100247500D01*
%TO.C,J2*%
X68100000Y-95300000D02*
X68100000Y-104700000D01*
X73900000Y-95300000D02*
X71900000Y-95300000D01*
X70000000Y-104700000D02*
X68100000Y-104700000D01*
X70000000Y-95300000D02*
X68100000Y-95300000D01*
X73900000Y-104700000D02*
X71900000Y-104700000D01*
%TO.C,R1*%
X80132500Y-109327258D02*
X80132500Y-108852742D01*
X79087500Y-109327258D02*
X79087500Y-108852742D01*
%TO.C,L2*%
X116010000Y-100447936D02*
X116010000Y-101652064D01*
X113290000Y-100447936D02*
X113290000Y-101652064D01*
%TO.C,J3*%
X94890000Y-108890000D02*
X95890000Y-108890000D01*
X104110000Y-108890000D02*
X104110000Y-107390000D01*
X95390000Y-109700000D02*
X94890000Y-109700000D01*
X95390000Y-110910000D02*
X95390000Y-109700000D01*
X105410000Y-109590000D02*
X105410000Y-107090000D01*
X94890000Y-111410000D02*
X105110000Y-111410000D01*
X105110000Y-111410000D02*
X105110000Y-107390000D01*
X95890000Y-108890000D02*
X95890000Y-107390000D01*
X104610000Y-109700000D02*
X104610000Y-110910000D01*
X105110000Y-108890000D02*
X104110000Y-108890000D01*
X105110000Y-107390000D02*
X94890000Y-107390000D01*
X94890000Y-107390000D02*
X94890000Y-111410000D01*
X105410000Y-107090000D02*
X102910000Y-107090000D01*
X105110000Y-109700000D02*
X104610000Y-109700000D01*
X104610000Y-110910000D02*
X95390000Y-110910000D01*
%TO.C,R17*%
X95887258Y-98202500D02*
X95412742Y-98202500D01*
X95887258Y-99247500D02*
X95412742Y-99247500D01*
%TO.C,R10*%
X98687742Y-105947500D02*
X99162258Y-105947500D01*
X98687742Y-104902500D02*
X99162258Y-104902500D01*
%TO.C,R9*%
X78522500Y-109337258D02*
X78522500Y-108862742D01*
X77477500Y-109337258D02*
X77477500Y-108862742D01*
%TO.C,D5*%
X118650000Y-98800000D02*
X118650000Y-102700000D01*
X118650000Y-98800000D02*
X116650000Y-98800000D01*
X116650000Y-98800000D02*
X116650000Y-102700000D01*
%TO.C,D4*%
X105175000Y-104175000D02*
X101275000Y-104175000D01*
X105175000Y-104175000D02*
X105175000Y-102175000D01*
X105175000Y-102175000D02*
X101275000Y-102175000D01*
%TO.C,R4*%
X85237258Y-103477500D02*
X84762742Y-103477500D01*
X85237258Y-104522500D02*
X84762742Y-104522500D01*
%TO.C,C3*%
X115915580Y-87740000D02*
X115634420Y-87740000D01*
X115915580Y-88760000D02*
X115634420Y-88760000D01*
%TO.C,R18*%
X85237258Y-95272500D02*
X84762742Y-95272500D01*
X85237258Y-94227500D02*
X84762742Y-94227500D01*
%TO.C,R6*%
X84762742Y-101777500D02*
X85237258Y-101777500D01*
X84762742Y-102822500D02*
X85237258Y-102822500D01*
%TO.C,U3*%
X109280000Y-104300000D02*
X109280000Y-102300000D01*
X112520000Y-103300000D02*
X112520000Y-100300000D01*
%TO.C,U1*%
X80690000Y-109200000D02*
X80690000Y-111000000D01*
X80690000Y-109200000D02*
X80690000Y-108400000D01*
X83810000Y-109200000D02*
X83810000Y-108400000D01*
X83810000Y-109200000D02*
X83810000Y-110000000D01*
%TO.C,C10*%
X95790580Y-97585000D02*
X95509420Y-97585000D01*
X95790580Y-96565000D02*
X95509420Y-96565000D01*
%TO.C,R20*%
X86737258Y-105227500D02*
X86262742Y-105227500D01*
X86737258Y-106272500D02*
X86262742Y-106272500D01*
%TO.C,Q1*%
X119470000Y-100943876D02*
X119470000Y-100293876D01*
X122590000Y-100943876D02*
X122590000Y-100293876D01*
X122590000Y-100943876D02*
X122590000Y-101593876D01*
X119470000Y-100943876D02*
X119470000Y-102618876D01*
%TO.C,J4*%
X91260000Y-93640000D02*
X91260000Y-94640000D01*
X90450000Y-106360000D02*
X90450000Y-105860000D01*
X91260000Y-94640000D02*
X92760000Y-94640000D01*
X90450000Y-94140000D02*
X90450000Y-93640000D01*
X90560000Y-106660000D02*
X93060000Y-106660000D01*
X92760000Y-106360000D02*
X92760000Y-93640000D01*
X89240000Y-94140000D02*
X90450000Y-94140000D01*
X89240000Y-105860000D02*
X89240000Y-94140000D01*
X91260000Y-106360000D02*
X91260000Y-105360000D01*
X93060000Y-106660000D02*
X93060000Y-104160000D01*
X92760000Y-93640000D02*
X88740000Y-93640000D01*
X90450000Y-105860000D02*
X89240000Y-105860000D01*
X88740000Y-93640000D02*
X88740000Y-106360000D01*
X88740000Y-106360000D02*
X92760000Y-106360000D01*
X91260000Y-105360000D02*
X92760000Y-105360000D01*
%TO.C,C9*%
X114438748Y-95710000D02*
X115861252Y-95710000D01*
X114438748Y-93890000D02*
X115861252Y-93890000D01*
%TO.C,C5*%
X112702500Y-91103080D02*
X112702500Y-90821920D01*
X113722500Y-91103080D02*
X113722500Y-90821920D01*
%TO.C,R11*%
X102412258Y-104902500D02*
X101937742Y-104902500D01*
X102412258Y-105947500D02*
X101937742Y-105947500D01*
%TO.C,C8*%
X114438748Y-98210000D02*
X115861252Y-98210000D01*
X114438748Y-96390000D02*
X115861252Y-96390000D01*
%TO.C,R8*%
X85237258Y-99762500D02*
X84762742Y-99762500D01*
X85237258Y-98717500D02*
X84762742Y-98717500D01*
%TO.C,U4*%
X114552500Y-90262500D02*
X114552500Y-91662500D01*
X116872500Y-91662500D02*
X116872500Y-89762500D01*
%TO.C,C4*%
X113890000Y-105190580D02*
X113890000Y-104909420D01*
X114910000Y-105190580D02*
X114910000Y-104909420D01*
%TO.C,C7*%
X105890000Y-98484420D02*
X105890000Y-98765580D01*
X106910000Y-98484420D02*
X106910000Y-98765580D01*
%TO.C,C11*%
X81890580Y-94240000D02*
X81609420Y-94240000D01*
X81890580Y-95260000D02*
X81609420Y-95260000D01*
%TO.C,C1*%
X123220000Y-93520956D02*
X123220000Y-93239796D01*
X124240000Y-93520956D02*
X124240000Y-93239796D01*
%TO.C,C6*%
X117702500Y-91103080D02*
X117702500Y-90821920D01*
X118722500Y-91103080D02*
X118722500Y-90821920D01*
%TO.C,R13*%
X107627500Y-105537258D02*
X107627500Y-105062742D01*
X108672500Y-105537258D02*
X108672500Y-105062742D01*
%TO.C,D3*%
X96925000Y-101925000D02*
X96925000Y-105825000D01*
X94925000Y-101925000D02*
X94925000Y-105825000D01*
X96925000Y-101925000D02*
X94925000Y-101925000D01*
%TO.C,C2*%
X110060000Y-108588748D02*
X110060000Y-110011252D01*
X108240000Y-108588748D02*
X108240000Y-110011252D01*
%TO.C,R15*%
X107627500Y-101637742D02*
X107627500Y-102112258D01*
X108672500Y-101637742D02*
X108672500Y-102112258D01*
%TO.C,R12*%
X98687742Y-103152500D02*
X99162258Y-103152500D01*
X98687742Y-104197500D02*
X99162258Y-104197500D01*
%TO.C,R2*%
X124252500Y-100211618D02*
X124252500Y-100686134D01*
X123207500Y-100211618D02*
X123207500Y-100686134D01*
%TO.C,F1*%
X81602064Y-106410000D02*
X80397936Y-106410000D01*
X81602064Y-104590000D02*
X80397936Y-104590000D01*
%TO.C,R3*%
X85237258Y-96727500D02*
X84762742Y-96727500D01*
X85237258Y-97772500D02*
X84762742Y-97772500D01*
%TO.C,R14*%
X107627500Y-98387742D02*
X107627500Y-98862258D01*
X108672500Y-98387742D02*
X108672500Y-98862258D01*
%TO.C,D1*%
X82100000Y-100250000D02*
X80400000Y-100250000D01*
X80400000Y-100250000D02*
X80400000Y-103400000D01*
X82100000Y-100250000D02*
X82100000Y-103400000D01*
%TO.C,Q2*%
X119420000Y-92894376D02*
X119420000Y-94569376D01*
X119420000Y-92894376D02*
X119420000Y-92244376D01*
X122540000Y-92894376D02*
X122540000Y-92244376D01*
X122540000Y-92894376D02*
X122540000Y-93544376D01*
%TO.C,L1*%
X112297936Y-107440000D02*
X113502064Y-107440000D01*
X112297936Y-110160000D02*
X113502064Y-110160000D01*
%TO.C,J5*%
X108910000Y-90910000D02*
X108910000Y-86890000D01*
X79190000Y-87390000D02*
X108410000Y-87390000D01*
X108410000Y-87390000D02*
X108410000Y-88600000D01*
X78690000Y-89410000D02*
X79690000Y-89410000D01*
X78390000Y-91210000D02*
X80890000Y-91210000D01*
X78690000Y-88600000D02*
X79190000Y-88600000D01*
X108910000Y-86890000D02*
X78690000Y-86890000D01*
X108410000Y-88600000D02*
X108910000Y-88600000D01*
X79190000Y-88600000D02*
X79190000Y-87390000D01*
X107910000Y-89410000D02*
X107910000Y-90910000D01*
X108910000Y-89410000D02*
X107910000Y-89410000D01*
X78690000Y-86890000D02*
X78690000Y-90910000D01*
X78390000Y-88710000D02*
X78390000Y-91210000D01*
X79690000Y-89410000D02*
X79690000Y-90910000D01*
X78690000Y-90910000D02*
X108910000Y-90910000D01*
%TO.C,D2*%
X80400000Y-99800000D02*
X80400000Y-96650000D01*
X82100000Y-99800000D02*
X82100000Y-96650000D01*
X80400000Y-99800000D02*
X82100000Y-99800000D01*
%TO.C,R16*%
X99137258Y-98202500D02*
X98662742Y-98202500D01*
X99137258Y-99247500D02*
X98662742Y-99247500D01*
%TD*%
M02*
