%TF.GenerationSoftware,KiCad,Pcbnew,(5.99.0-13244-g73f40b11ee)*%
%TF.CreationDate,2021-12-22T23:44:12+01:00*%
%TF.ProjectId,TheKNOBDaughterboard,5468654b-4e4f-4424-9461-756768746572,rev?*%
%TF.SameCoordinates,Original*%
%TF.FileFunction,Legend,Bot*%
%TF.FilePolarity,Positive*%
%FSLAX46Y46*%
G04 Gerber Fmt 4.6, Leading zero omitted, Abs format (unit mm)*
G04 Created by KiCad (PCBNEW (5.99.0-13244-g73f40b11ee)) date 2021-12-22 23:44:12*
%MOMM*%
%LPD*%
G01*
G04 APERTURE LIST*
%ADD10C,0.150000*%
%ADD11C,0.200000*%
%ADD12C,0.400000*%
G04 APERTURE END LIST*
D10*
X92750000Y-89750000D02*
X92750000Y-90750000D01*
X100250000Y-90750000D02*
X107250000Y-90750000D01*
X92750000Y-90750000D02*
X99750000Y-90750000D01*
X100250000Y-89750000D02*
X100250000Y-90750000D01*
X107250000Y-90750000D02*
X107250000Y-89750000D01*
X99750000Y-90750000D02*
X99750000Y-89750000D01*
X88202380Y-90547619D02*
X89202380Y-90880952D01*
X88202380Y-91214285D01*
X89202380Y-91547619D02*
X88202380Y-91547619D01*
X88583333Y-91547619D02*
X88535714Y-91642857D01*
X88535714Y-91833333D01*
X88583333Y-91928571D01*
X88630952Y-91976190D01*
X88726190Y-92023809D01*
X89011904Y-92023809D01*
X89107142Y-91976190D01*
X89154761Y-91928571D01*
X89202380Y-91833333D01*
X89202380Y-91642857D01*
X89154761Y-91547619D01*
X89202380Y-92880952D02*
X88678571Y-92880952D01*
X88583333Y-92833333D01*
X88535714Y-92738095D01*
X88535714Y-92547619D01*
X88583333Y-92452380D01*
X89154761Y-92880952D02*
X89202380Y-92785714D01*
X89202380Y-92547619D01*
X89154761Y-92452380D01*
X89059523Y-92404761D01*
X88964285Y-92404761D01*
X88869047Y-92452380D01*
X88821428Y-92547619D01*
X88821428Y-92785714D01*
X88773809Y-92880952D01*
X88535714Y-93214285D02*
X88535714Y-93595238D01*
X88202380Y-93357142D02*
X89059523Y-93357142D01*
X89154761Y-93404761D01*
X89202380Y-93500000D01*
X89202380Y-93595238D01*
X88916666Y-93880952D02*
X88916666Y-94357142D01*
X89202380Y-93785714D02*
X88202380Y-94119047D01*
X89202380Y-94452380D01*
X89202380Y-94785714D02*
X88202380Y-94785714D01*
X88202380Y-95023809D01*
X88250000Y-95166666D01*
X88345238Y-95261904D01*
X88440476Y-95309523D01*
X88630952Y-95357142D01*
X88773809Y-95357142D01*
X88964285Y-95309523D01*
X89059523Y-95261904D01*
X89154761Y-95166666D01*
X89202380Y-95023809D01*
X89202380Y-94785714D01*
X89107142Y-96357142D02*
X89154761Y-96309523D01*
X89202380Y-96166666D01*
X89202380Y-96071428D01*
X89154761Y-95928571D01*
X89059523Y-95833333D01*
X88964285Y-95785714D01*
X88773809Y-95738095D01*
X88630952Y-95738095D01*
X88440476Y-95785714D01*
X88345238Y-95833333D01*
X88250000Y-95928571D01*
X88202380Y-96071428D01*
X88202380Y-96166666D01*
X88250000Y-96309523D01*
X88297619Y-96357142D01*
X106511904Y-91500000D02*
X106607142Y-91452380D01*
X106750000Y-91452380D01*
X106892857Y-91500000D01*
X106988095Y-91595238D01*
X107035714Y-91690476D01*
X107083333Y-91880952D01*
X107083333Y-92023809D01*
X107035714Y-92214285D01*
X106988095Y-92309523D01*
X106892857Y-92404761D01*
X106750000Y-92452380D01*
X106654761Y-92452380D01*
X106511904Y-92404761D01*
X106464285Y-92357142D01*
X106464285Y-92023809D01*
X106654761Y-92023809D01*
X106035714Y-92452380D02*
X106035714Y-91452380D01*
X105464285Y-92452380D01*
X105464285Y-91452380D01*
X104988095Y-92452380D02*
X104988095Y-91452380D01*
X104750000Y-91452380D01*
X104607142Y-91500000D01*
X104511904Y-91595238D01*
X104464285Y-91690476D01*
X104416666Y-91880952D01*
X104416666Y-92023809D01*
X104464285Y-92214285D01*
X104511904Y-92309523D01*
X104607142Y-92404761D01*
X104750000Y-92452380D01*
X104988095Y-92452380D01*
X95392857Y-103202380D02*
X95059523Y-104202380D01*
X94726190Y-103202380D01*
X94392857Y-104202380D02*
X94392857Y-103202380D01*
X94392857Y-103583333D02*
X94297619Y-103535714D01*
X94107142Y-103535714D01*
X94011904Y-103583333D01*
X93964285Y-103630952D01*
X93916666Y-103726190D01*
X93916666Y-104011904D01*
X93964285Y-104107142D01*
X94011904Y-104154761D01*
X94107142Y-104202380D01*
X94297619Y-104202380D01*
X94392857Y-104154761D01*
X93059523Y-103535714D02*
X93059523Y-104202380D01*
X93488095Y-103535714D02*
X93488095Y-104059523D01*
X93440476Y-104154761D01*
X93345238Y-104202380D01*
X93202380Y-104202380D01*
X93107142Y-104154761D01*
X93059523Y-104107142D01*
X92630952Y-104154761D02*
X92535714Y-104202380D01*
X92345238Y-104202380D01*
X92250000Y-104154761D01*
X92202380Y-104059523D01*
X92202380Y-104011904D01*
X92250000Y-103916666D01*
X92345238Y-103869047D01*
X92488095Y-103869047D01*
X92583333Y-103821428D01*
X92630952Y-103726190D01*
X92630952Y-103678571D01*
X92583333Y-103583333D01*
X92488095Y-103535714D01*
X92345238Y-103535714D01*
X92250000Y-103583333D01*
X97952380Y-111464285D02*
X96952380Y-111464285D01*
X97952380Y-112035714D01*
X96952380Y-112035714D01*
X97857142Y-113083333D02*
X97904761Y-113035714D01*
X97952380Y-112892857D01*
X97952380Y-112797619D01*
X97904761Y-112654761D01*
X97809523Y-112559523D01*
X97714285Y-112511904D01*
X97523809Y-112464285D01*
X97380952Y-112464285D01*
X97190476Y-112511904D01*
X97095238Y-112559523D01*
X97000000Y-112654761D01*
X96952380Y-112797619D01*
X96952380Y-112892857D01*
X97000000Y-113035714D01*
X97047619Y-113083333D01*
X94511904Y-95750000D02*
X94607142Y-95702380D01*
X94750000Y-95702380D01*
X94892857Y-95750000D01*
X94988095Y-95845238D01*
X95035714Y-95940476D01*
X95083333Y-96130952D01*
X95083333Y-96273809D01*
X95035714Y-96464285D01*
X94988095Y-96559523D01*
X94892857Y-96654761D01*
X94750000Y-96702380D01*
X94654761Y-96702380D01*
X94511904Y-96654761D01*
X94464285Y-96607142D01*
X94464285Y-96273809D01*
X94654761Y-96273809D01*
X94035714Y-96702380D02*
X94035714Y-95702380D01*
X93464285Y-96702380D01*
X93464285Y-95702380D01*
X92988095Y-96702380D02*
X92988095Y-95702380D01*
X92750000Y-95702380D01*
X92607142Y-95750000D01*
X92511904Y-95845238D01*
X92464285Y-95940476D01*
X92416666Y-96130952D01*
X92416666Y-96273809D01*
X92464285Y-96464285D01*
X92511904Y-96559523D01*
X92607142Y-96654761D01*
X92750000Y-96702380D01*
X92988095Y-96702380D01*
X93785714Y-101952380D02*
X93785714Y-100952380D01*
X93547619Y-100952380D01*
X93404761Y-101000000D01*
X93309523Y-101095238D01*
X93261904Y-101190476D01*
X93214285Y-101380952D01*
X93214285Y-101523809D01*
X93261904Y-101714285D01*
X93309523Y-101809523D01*
X93404761Y-101904761D01*
X93547619Y-101952380D01*
X93785714Y-101952380D01*
X92785714Y-101952380D02*
X92785714Y-100952380D01*
X92214285Y-101952380D01*
X92214285Y-100952380D01*
X86702380Y-90416666D02*
X85702380Y-90416666D01*
X86416666Y-90750000D01*
X85702380Y-91083333D01*
X86702380Y-91083333D01*
X86178571Y-91892857D02*
X86226190Y-92035714D01*
X86273809Y-92083333D01*
X86369047Y-92130952D01*
X86511904Y-92130952D01*
X86607142Y-92083333D01*
X86654761Y-92035714D01*
X86702380Y-91940476D01*
X86702380Y-91559523D01*
X85702380Y-91559523D01*
X85702380Y-91892857D01*
X85750000Y-91988095D01*
X85797619Y-92035714D01*
X85892857Y-92083333D01*
X85988095Y-92083333D01*
X86083333Y-92035714D01*
X86130952Y-91988095D01*
X86178571Y-91892857D01*
X86178571Y-91559523D01*
X83202380Y-91000000D02*
X83202380Y-90523809D01*
X83678571Y-90476190D01*
X83630952Y-90523809D01*
X83583333Y-90619047D01*
X83583333Y-90857142D01*
X83630952Y-90952380D01*
X83678571Y-91000000D01*
X83773809Y-91047619D01*
X84011904Y-91047619D01*
X84107142Y-91000000D01*
X84154761Y-90952380D01*
X84202380Y-90857142D01*
X84202380Y-90619047D01*
X84154761Y-90523809D01*
X84107142Y-90476190D01*
X83202380Y-91333333D02*
X84202380Y-91666666D01*
X83202380Y-92000000D01*
X84297619Y-92095238D02*
X84297619Y-92857142D01*
X83916666Y-93047619D02*
X83916666Y-93523809D01*
X84202380Y-92952380D02*
X83202380Y-93285714D01*
X84202380Y-93619047D01*
X84202380Y-93952380D02*
X83202380Y-93952380D01*
X83202380Y-94190476D01*
X83250000Y-94333333D01*
X83345238Y-94428571D01*
X83440476Y-94476190D01*
X83630952Y-94523809D01*
X83773809Y-94523809D01*
X83964285Y-94476190D01*
X84059523Y-94428571D01*
X84154761Y-94333333D01*
X84202380Y-94190476D01*
X84202380Y-93952380D01*
X84107142Y-95523809D02*
X84154761Y-95476190D01*
X84202380Y-95333333D01*
X84202380Y-95238095D01*
X84154761Y-95095238D01*
X84059523Y-95000000D01*
X83964285Y-94952380D01*
X83773809Y-94904761D01*
X83630952Y-94904761D01*
X83440476Y-94952380D01*
X83345238Y-95000000D01*
X83250000Y-95095238D01*
X83202380Y-95238095D01*
X83202380Y-95333333D01*
X83250000Y-95476190D01*
X83297619Y-95523809D01*
X100404761Y-111392857D02*
X100452380Y-111535714D01*
X100452380Y-111773809D01*
X100404761Y-111869047D01*
X100357142Y-111916666D01*
X100261904Y-111964285D01*
X100166666Y-111964285D01*
X100071428Y-111916666D01*
X100023809Y-111869047D01*
X99976190Y-111773809D01*
X99928571Y-111583333D01*
X99880952Y-111488095D01*
X99833333Y-111440476D01*
X99738095Y-111392857D01*
X99642857Y-111392857D01*
X99547619Y-111440476D01*
X99500000Y-111488095D01*
X99452380Y-111583333D01*
X99452380Y-111821428D01*
X99500000Y-111964285D01*
X99452380Y-112297619D02*
X100452380Y-112535714D01*
X99738095Y-112726190D01*
X100452380Y-112916666D01*
X99452380Y-113154761D01*
X81607142Y-90904761D02*
X81654761Y-90857142D01*
X81702380Y-90714285D01*
X81702380Y-90619047D01*
X81654761Y-90476190D01*
X81559523Y-90380952D01*
X81464285Y-90333333D01*
X81273809Y-90285714D01*
X81130952Y-90285714D01*
X80940476Y-90333333D01*
X80845238Y-90380952D01*
X80750000Y-90476190D01*
X80702380Y-90619047D01*
X80702380Y-90714285D01*
X80750000Y-90857142D01*
X80797619Y-90904761D01*
X81702380Y-91333333D02*
X80702380Y-91333333D01*
X81702380Y-91761904D02*
X81178571Y-91761904D01*
X81083333Y-91714285D01*
X81035714Y-91619047D01*
X81035714Y-91476190D01*
X81083333Y-91380952D01*
X81130952Y-91333333D01*
X81035714Y-92666666D02*
X81845238Y-92666666D01*
X81940476Y-92619047D01*
X81988095Y-92571428D01*
X82035714Y-92476190D01*
X82035714Y-92333333D01*
X81988095Y-92238095D01*
X81654761Y-92666666D02*
X81702380Y-92571428D01*
X81702380Y-92380952D01*
X81654761Y-92285714D01*
X81607142Y-92238095D01*
X81511904Y-92190476D01*
X81226190Y-92190476D01*
X81130952Y-92238095D01*
X81083333Y-92285714D01*
X81035714Y-92380952D01*
X81035714Y-92571428D01*
X81083333Y-92666666D01*
X81654761Y-93095238D02*
X81702380Y-93238095D01*
X81702380Y-93476190D01*
X81654761Y-93571428D01*
X81607142Y-93619047D01*
X81511904Y-93666666D01*
X81416666Y-93666666D01*
X81321428Y-93619047D01*
X81273809Y-93571428D01*
X81226190Y-93476190D01*
X81178571Y-93285714D01*
X81130952Y-93190476D01*
X81083333Y-93142857D01*
X80988095Y-93095238D01*
X80892857Y-93095238D01*
X80797619Y-93142857D01*
X80750000Y-93190476D01*
X80702380Y-93285714D01*
X80702380Y-93523809D01*
X80750000Y-93666666D01*
X81035714Y-93952380D02*
X81035714Y-94333333D01*
X80702380Y-94095238D02*
X81559523Y-94095238D01*
X81654761Y-94142857D01*
X81702380Y-94238095D01*
X81702380Y-94333333D01*
X81702380Y-95095238D02*
X81178571Y-95095238D01*
X81083333Y-95047619D01*
X81035714Y-94952380D01*
X81035714Y-94761904D01*
X81083333Y-94666666D01*
X81654761Y-95095238D02*
X81702380Y-95000000D01*
X81702380Y-94761904D01*
X81654761Y-94666666D01*
X81559523Y-94619047D01*
X81464285Y-94619047D01*
X81369047Y-94666666D01*
X81321428Y-94761904D01*
X81321428Y-95000000D01*
X81273809Y-95095238D01*
X81035714Y-95428571D02*
X81035714Y-95809523D01*
X80702380Y-95571428D02*
X81559523Y-95571428D01*
X81654761Y-95619047D01*
X81702380Y-95714285D01*
X81702380Y-95809523D01*
X102952380Y-111464285D02*
X101952380Y-111464285D01*
X102952380Y-112035714D01*
X101952380Y-112035714D01*
X102857142Y-113083333D02*
X102904761Y-113035714D01*
X102952380Y-112892857D01*
X102952380Y-112797619D01*
X102904761Y-112654761D01*
X102809523Y-112559523D01*
X102714285Y-112511904D01*
X102523809Y-112464285D01*
X102380952Y-112464285D01*
X102190476Y-112511904D01*
X102095238Y-112559523D01*
X102000000Y-112654761D01*
X101952380Y-112797619D01*
X101952380Y-112892857D01*
X102000000Y-113035714D01*
X102047619Y-113083333D01*
X91178571Y-90892857D02*
X91178571Y-90559523D01*
X91702380Y-90559523D02*
X90702380Y-90559523D01*
X90702380Y-91035714D01*
X91178571Y-91750000D02*
X91226190Y-91892857D01*
X91273809Y-91940476D01*
X91369047Y-91988095D01*
X91511904Y-91988095D01*
X91607142Y-91940476D01*
X91654761Y-91892857D01*
X91702380Y-91797619D01*
X91702380Y-91416666D01*
X90702380Y-91416666D01*
X90702380Y-91750000D01*
X90750000Y-91845238D01*
X90797619Y-91892857D01*
X90892857Y-91940476D01*
X90988095Y-91940476D01*
X91083333Y-91892857D01*
X91130952Y-91845238D01*
X91178571Y-91750000D01*
X91178571Y-91416666D01*
X99238095Y-91452380D02*
X98619047Y-91452380D01*
X98952380Y-91833333D01*
X98809523Y-91833333D01*
X98714285Y-91880952D01*
X98666666Y-91928571D01*
X98619047Y-92023809D01*
X98619047Y-92261904D01*
X98666666Y-92357142D01*
X98714285Y-92404761D01*
X98809523Y-92452380D01*
X99095238Y-92452380D01*
X99190476Y-92404761D01*
X99238095Y-92357142D01*
X98333333Y-91452380D02*
X98000000Y-92452380D01*
X97666666Y-91452380D01*
X97428571Y-91452380D02*
X96809523Y-91452380D01*
X97142857Y-91833333D01*
X97000000Y-91833333D01*
X96904761Y-91880952D01*
X96857142Y-91928571D01*
X96809523Y-92023809D01*
X96809523Y-92261904D01*
X96857142Y-92357142D01*
X96904761Y-92404761D01*
X97000000Y-92452380D01*
X97285714Y-92452380D01*
X97380952Y-92404761D01*
X97428571Y-92357142D01*
X93761904Y-99202380D02*
X93761904Y-98202380D01*
X93523809Y-98202380D01*
X93380952Y-98250000D01*
X93285714Y-98345238D01*
X93238095Y-98440476D01*
X93190476Y-98630952D01*
X93190476Y-98773809D01*
X93238095Y-98964285D01*
X93285714Y-99059523D01*
X93380952Y-99154761D01*
X93523809Y-99202380D01*
X93761904Y-99202380D01*
X92761904Y-99202380D02*
X92761904Y-98202380D01*
X92380952Y-98202380D01*
X92285714Y-98250000D01*
X92238095Y-98297619D01*
X92190476Y-98392857D01*
X92190476Y-98535714D01*
X92238095Y-98630952D01*
X92285714Y-98678571D01*
X92380952Y-98726190D01*
X92761904Y-98726190D01*
%TO.C,SW2*%
X119116666Y-103895238D02*
X119259523Y-103847619D01*
X119497619Y-103847619D01*
X119592857Y-103895238D01*
X119640476Y-103942857D01*
X119688095Y-104038095D01*
X119688095Y-104133333D01*
X119640476Y-104228571D01*
X119592857Y-104276190D01*
X119497619Y-104323809D01*
X119307142Y-104371428D01*
X119211904Y-104419047D01*
X119164285Y-104466666D01*
X119116666Y-104561904D01*
X119116666Y-104657142D01*
X119164285Y-104752380D01*
X119211904Y-104800000D01*
X119307142Y-104847619D01*
X119545238Y-104847619D01*
X119688095Y-104800000D01*
X120021428Y-104847619D02*
X120259523Y-103847619D01*
X120450000Y-104561904D01*
X120640476Y-103847619D01*
X120878571Y-104847619D01*
X121211904Y-104752380D02*
X121259523Y-104800000D01*
X121354761Y-104847619D01*
X121592857Y-104847619D01*
X121688095Y-104800000D01*
X121735714Y-104752380D01*
X121783333Y-104657142D01*
X121783333Y-104561904D01*
X121735714Y-104419047D01*
X121164285Y-103847619D01*
X121783333Y-103847619D01*
%TO.C,SW1*%
X98816666Y-103895238D02*
X98959523Y-103847619D01*
X99197619Y-103847619D01*
X99292857Y-103895238D01*
X99340476Y-103942857D01*
X99388095Y-104038095D01*
X99388095Y-104133333D01*
X99340476Y-104228571D01*
X99292857Y-104276190D01*
X99197619Y-104323809D01*
X99007142Y-104371428D01*
X98911904Y-104419047D01*
X98864285Y-104466666D01*
X98816666Y-104561904D01*
X98816666Y-104657142D01*
X98864285Y-104752380D01*
X98911904Y-104800000D01*
X99007142Y-104847619D01*
X99245238Y-104847619D01*
X99388095Y-104800000D01*
X99721428Y-104847619D02*
X99959523Y-103847619D01*
X100150000Y-104561904D01*
X100340476Y-103847619D01*
X100578571Y-104847619D01*
X101483333Y-103847619D02*
X100911904Y-103847619D01*
X101197619Y-103847619D02*
X101197619Y-104847619D01*
X101102380Y-104704761D01*
X101007142Y-104609523D01*
X100911904Y-104561904D01*
D11*
%TO.C,SW2*%
X123950000Y-98700000D02*
X123950000Y-97000000D01*
X118050000Y-101300000D02*
X118050000Y-103000000D01*
X123950000Y-97000000D02*
X118050000Y-97000000D01*
X123950000Y-103000000D02*
X123950000Y-101300000D01*
X118050000Y-97000000D02*
X118050000Y-98700000D01*
X118050000Y-103000000D02*
X123950000Y-103000000D01*
D12*
X119000000Y-102050000D02*
G75*
G03*
X119000000Y-102050000I-200000J0D01*
G01*
X117150000Y-102050000D02*
G75*
G03*
X117150000Y-102050000I-200000J0D01*
G01*
D11*
%TO.C,SW1*%
X102950000Y-98700000D02*
X102950000Y-97000000D01*
X102950000Y-103000000D02*
X102950000Y-101300000D01*
X97050000Y-101300000D02*
X97050000Y-103000000D01*
X102950000Y-97000000D02*
X97050000Y-97000000D01*
X97050000Y-97000000D02*
X97050000Y-98700000D01*
X97050000Y-103000000D02*
X102950000Y-103000000D01*
D12*
X96150000Y-102050000D02*
G75*
G03*
X96150000Y-102050000I-200000J0D01*
G01*
X98000000Y-102050000D02*
G75*
G03*
X98000000Y-102050000I-200000J0D01*
G01*
%TD*%
M02*
