M48
; DRILL file {KiCad (5.99.0-13244-g73f40b11ee)} date Wed Dec 22 23:44:45 2021
; FORMAT={-:-/ absolute / metric / decimal}
; #@! TF.CreationDate,2021-12-22T23:44:45+01:00
; #@! TF.GenerationSoftware,Kicad,Pcbnew,(5.99.0-13244-g73f40b11ee)
; #@! TF.FileFunction,Plated,1,2,PTH
FMAT,2
METRIC
; #@! TA.AperFunction,Plated,PTH,ViaDrill
T1C0.400
; #@! TA.AperFunction,Plated,PTH,ComponentDrill
T2C0.600
; #@! TA.AperFunction,Plated,PTH,ComponentDrill
T3C0.950
; #@! TA.AperFunction,Plated,PTH,ViaDrill
T4C3.100
%
G90
G05
T1
X72.3Y-100.0
X73.85Y-99.75
X73.85Y-101.149
X77.58Y-104.5
X78.1Y-106.2
X78.5Y-101.0
X78.8Y-94.8
X79.3Y-91.35
X79.5Y-111.85
X79.7Y-98.85
X79.78Y-103.33
X81.5Y-112.5
X82.45Y-90.5
X82.6Y-103.7
X83.05Y-98.45
X83.05Y-101.4
X83.1Y-96.2
X84.85Y-91.9
X86.8Y-108.3
X87.3Y-101.5
X87.7Y-92.6
X90.65Y-93.6
X93.1Y-97.95
X93.1Y-101.1
X93.7Y-104.65
X93.75Y-96.35
X97.8Y-101.7
X100.9Y-98.7
X104.3Y-97.525
X104.55Y-96.55
X105.6Y-105.45
X106.6Y-101.0
X106.75Y-102.7
X107.85Y-109.2
X108.2Y-93.4
X108.2Y-94.5
X108.2Y-95.6
X108.85Y-109.2
X108.9Y-90.85
X109.3Y-96.9
X109.5Y-99.6
X109.85Y-109.2
X110.9Y-102.8
X111.2Y-96.9
X111.2Y-98.0
X111.2Y-99.1
X111.5Y-90.75
X111.9Y-102.8
X112.2Y-87.6
X112.25Y-96.9
X112.25Y-98.0
X112.25Y-99.1
X118.125Y-95.1
X118.125Y-96.2
X118.125Y-97.3
X118.15Y-94.0
X119.69Y-90.83
X119.69Y-91.93
X120.99Y-90.33
X122.04Y-96.88
X122.19Y-90.83
X122.19Y-91.93
X122.78Y-100.431
T3
X81.3Y-88.6
X83.8Y-88.6
X86.3Y-88.6
X88.8Y-88.6
X90.45Y-96.25
X90.45Y-98.75
X90.45Y-101.25
X90.45Y-103.75
X91.3Y-88.6
X93.8Y-88.6
X96.3Y-88.6
X97.5Y-109.7
X98.8Y-88.6
X100.0Y-109.7
X101.3Y-88.6
X102.5Y-109.7
X103.8Y-88.6
X106.3Y-88.6
T4
X75.0Y-89.0
X75.0Y-111.0
T2
G00X71.25Y-95.68
M15
G01X70.65Y-95.68
M16
G05
G00X71.25Y-104.32
M15
G01X70.65Y-104.32
M16
G05
G00X75.68Y-95.68
M15
G01X74.58Y-95.68
M16
G05
G00X75.68Y-104.32
M15
G01X74.58Y-104.32
M16
G05
T0
M30
