%TF.GenerationSoftware,KiCad,Pcbnew,(5.99.0-13244-g73f40b11ee)*%
%TF.CreationDate,2021-12-22T23:44:12+01:00*%
%TF.ProjectId,TheKNOBDaughterboard,5468654b-4e4f-4424-9461-756768746572,rev?*%
%TF.SameCoordinates,Original*%
%TF.FileFunction,Paste,Top*%
%TF.FilePolarity,Positive*%
%FSLAX46Y46*%
G04 Gerber Fmt 4.6, Leading zero omitted, Abs format (unit mm)*
G04 Created by KiCad (PCBNEW (5.99.0-13244-g73f40b11ee)) date 2021-12-22 23:44:12*
%MOMM*%
%LPD*%
G01*
G04 APERTURE LIST*
G04 Aperture macros list*
%AMRoundRect*
0 Rectangle with rounded corners*
0 $1 Rounding radius*
0 $2 $3 $4 $5 $6 $7 $8 $9 X,Y pos of 4 corners*
0 Add a 4 corners polygon primitive as box body*
4,1,4,$2,$3,$4,$5,$6,$7,$8,$9,$2,$3,0*
0 Add four circle primitives for the rounded corners*
1,1,$1+$1,$2,$3*
1,1,$1+$1,$4,$5*
1,1,$1+$1,$6,$7*
1,1,$1+$1,$8,$9*
0 Add four rect primitives between the rounded corners*
20,1,$1+$1,$2,$3,$4,$5,0*
20,1,$1+$1,$4,$5,$6,$7,0*
20,1,$1+$1,$6,$7,$8,$9,0*
20,1,$1+$1,$8,$9,$2,$3,0*%
G04 Aperture macros list end*
%ADD10RoundRect,0.200000X-0.275000X0.200000X-0.275000X-0.200000X0.275000X-0.200000X0.275000X0.200000X0*%
%ADD11RoundRect,0.250000X-0.250000X-1.500000X0.250000X-1.500000X0.250000X1.500000X-0.250000X1.500000X0*%
%ADD12RoundRect,0.250001X-0.499999X-1.449999X0.499999X-1.449999X0.499999X1.449999X-0.499999X1.449999X0*%
%ADD13RoundRect,0.200000X0.200000X0.275000X-0.200000X0.275000X-0.200000X-0.275000X0.200000X-0.275000X0*%
%ADD14RoundRect,0.150000X0.512500X0.150000X-0.512500X0.150000X-0.512500X-0.150000X0.512500X-0.150000X0*%
%ADD15R,1.450000X0.600000*%
%ADD16R,1.450000X0.300000*%
%ADD17RoundRect,0.200000X0.275000X-0.200000X0.275000X0.200000X-0.275000X0.200000X-0.275000X-0.200000X0*%
%ADD18RoundRect,0.250000X-1.075000X0.375000X-1.075000X-0.375000X1.075000X-0.375000X1.075000X0.375000X0*%
%ADD19RoundRect,0.200000X-0.200000X-0.275000X0.200000X-0.275000X0.200000X0.275000X-0.200000X0.275000X0*%
%ADD20R,1.200000X0.900000*%
%ADD21R,0.900000X1.200000*%
%ADD22RoundRect,0.225000X0.225000X0.250000X-0.225000X0.250000X-0.225000X-0.250000X0.225000X-0.250000X0*%
%ADD23R,0.450000X1.450000*%
%ADD24RoundRect,0.150000X0.150000X-0.512500X0.150000X0.512500X-0.150000X0.512500X-0.150000X-0.512500X0*%
%ADD25RoundRect,0.150000X0.150000X-0.587500X0.150000X0.587500X-0.150000X0.587500X-0.150000X-0.587500X0*%
%ADD26RoundRect,0.250000X-0.325000X-0.650000X0.325000X-0.650000X0.325000X0.650000X-0.325000X0.650000X0*%
%ADD27RoundRect,0.225000X0.250000X-0.225000X0.250000X0.225000X-0.250000X0.225000X-0.250000X-0.225000X0*%
%ADD28R,0.400000X0.650000*%
%ADD29RoundRect,0.225000X-0.250000X0.225000X-0.250000X-0.225000X0.250000X-0.225000X0.250000X0.225000X0*%
%ADD30RoundRect,0.250000X-0.650000X0.325000X-0.650000X-0.325000X0.650000X-0.325000X0.650000X0.325000X0*%
%ADD31RoundRect,0.250000X0.375000X0.625000X-0.375000X0.625000X-0.375000X-0.625000X0.375000X-0.625000X0*%
%ADD32R,1.000000X1.000000*%
%ADD33RoundRect,0.250000X-0.375000X-1.075000X0.375000X-1.075000X0.375000X1.075000X-0.375000X1.075000X0*%
G04 APERTURE END LIST*
D10*
%TO.C,R5*%
X125440000Y-96105000D03*
X125440000Y-97755000D03*
%TD*%
D11*
%TO.C,J1*%
X119380000Y-105940303D03*
X121380000Y-105940303D03*
D12*
X117030000Y-111690303D03*
X123730000Y-111690303D03*
%TD*%
D13*
%TO.C,R19*%
X82575000Y-93000000D03*
X80925000Y-93000000D03*
%TD*%
D14*
%TO.C,U2*%
X123467500Y-97842876D03*
X123467500Y-96892876D03*
X123467500Y-95942876D03*
X121192500Y-95942876D03*
X121192500Y-97842876D03*
%TD*%
D13*
%TO.C,R7*%
X85825000Y-100770000D03*
X84175000Y-100770000D03*
%TD*%
D15*
%TO.C,J2*%
X76045000Y-96750000D03*
X76045000Y-97550000D03*
D16*
X76045000Y-98750000D03*
X76045000Y-99750000D03*
X76045000Y-100250000D03*
X76045000Y-101250000D03*
D15*
X76045000Y-102450000D03*
X76045000Y-103250000D03*
X76045000Y-103250000D03*
X76045000Y-102450000D03*
D16*
X76045000Y-101750000D03*
X76045000Y-100750000D03*
X76045000Y-99250000D03*
X76045000Y-98250000D03*
D15*
X76045000Y-97550000D03*
X76045000Y-96750000D03*
%TD*%
D17*
%TO.C,R1*%
X79610000Y-109915000D03*
X79610000Y-108265000D03*
%TD*%
D18*
%TO.C,L2*%
X114650000Y-99650000D03*
X114650000Y-102450000D03*
%TD*%
D13*
%TO.C,R17*%
X96475000Y-98725000D03*
X94825000Y-98725000D03*
%TD*%
D19*
%TO.C,R10*%
X98100000Y-105425000D03*
X99750000Y-105425000D03*
%TD*%
D17*
%TO.C,R9*%
X78000000Y-109925000D03*
X78000000Y-108275000D03*
%TD*%
D20*
%TO.C,D5*%
X117650000Y-99400000D03*
X117650000Y-102700000D03*
%TD*%
D21*
%TO.C,D4*%
X104575000Y-103175000D03*
X101275000Y-103175000D03*
%TD*%
D13*
%TO.C,R4*%
X85825000Y-104000000D03*
X84175000Y-104000000D03*
%TD*%
D22*
%TO.C,C3*%
X116550000Y-88250000D03*
X115000000Y-88250000D03*
%TD*%
D13*
%TO.C,R18*%
X85825000Y-94750000D03*
X84175000Y-94750000D03*
%TD*%
D19*
%TO.C,R6*%
X84175000Y-102300000D03*
X85825000Y-102300000D03*
%TD*%
D23*
%TO.C,U3*%
X111875000Y-101100000D03*
X111225000Y-101100000D03*
X110575000Y-101100000D03*
X109925000Y-101100000D03*
X109925000Y-105500000D03*
X110575000Y-105500000D03*
X111225000Y-105500000D03*
X111875000Y-105500000D03*
%TD*%
D24*
%TO.C,U1*%
X81300000Y-110337500D03*
X82250000Y-110337500D03*
X83200000Y-110337500D03*
X83200000Y-108062500D03*
X81300000Y-108062500D03*
%TD*%
D22*
%TO.C,C10*%
X96425000Y-97075000D03*
X94875000Y-97075000D03*
%TD*%
D13*
%TO.C,R20*%
X87325000Y-105750000D03*
X85675000Y-105750000D03*
%TD*%
D25*
%TO.C,Q1*%
X120080000Y-101881376D03*
X121980000Y-101881376D03*
X121030000Y-100006376D03*
%TD*%
D26*
%TO.C,C9*%
X113675000Y-94800000D03*
X116625000Y-94800000D03*
%TD*%
D27*
%TO.C,C5*%
X113212500Y-91737500D03*
X113212500Y-90187500D03*
%TD*%
D13*
%TO.C,R11*%
X103000000Y-105425000D03*
X101350000Y-105425000D03*
%TD*%
D26*
%TO.C,C8*%
X113675000Y-97300000D03*
X116625000Y-97300000D03*
%TD*%
D13*
%TO.C,R8*%
X85825000Y-99240000D03*
X84175000Y-99240000D03*
%TD*%
D28*
%TO.C,U4*%
X116362500Y-90012500D03*
X115712500Y-90012500D03*
X115062500Y-90012500D03*
X115062500Y-91912500D03*
X116362500Y-91912500D03*
%TD*%
D27*
%TO.C,C4*%
X114400000Y-104275000D03*
X114400000Y-105825000D03*
%TD*%
D29*
%TO.C,C7*%
X106400000Y-97850000D03*
X106400000Y-99400000D03*
%TD*%
D22*
%TO.C,C11*%
X82525000Y-94750000D03*
X80975000Y-94750000D03*
%TD*%
D27*
%TO.C,C1*%
X123730000Y-94155376D03*
X123730000Y-92605376D03*
%TD*%
%TO.C,C6*%
X118212500Y-91737500D03*
X118212500Y-90187500D03*
%TD*%
D17*
%TO.C,R13*%
X108150000Y-106125000D03*
X108150000Y-104475000D03*
%TD*%
D20*
%TO.C,D3*%
X95925000Y-102525000D03*
X95925000Y-105825000D03*
%TD*%
D30*
%TO.C,C2*%
X109150000Y-107825000D03*
X109150000Y-110775000D03*
%TD*%
D10*
%TO.C,R15*%
X108150000Y-101050000D03*
X108150000Y-102700000D03*
%TD*%
D19*
%TO.C,R12*%
X98100000Y-103675000D03*
X99750000Y-103675000D03*
%TD*%
D10*
%TO.C,R2*%
X123730000Y-99623876D03*
X123730000Y-101273876D03*
%TD*%
D31*
%TO.C,F1*%
X82400000Y-105500000D03*
X79600000Y-105500000D03*
%TD*%
D13*
%TO.C,R3*%
X85825000Y-97250000D03*
X84175000Y-97250000D03*
%TD*%
D10*
%TO.C,R14*%
X108150000Y-97800000D03*
X108150000Y-99450000D03*
%TD*%
D32*
%TO.C,D1*%
X81250000Y-100900000D03*
X81250000Y-103400000D03*
%TD*%
D25*
%TO.C,Q2*%
X120030000Y-93831876D03*
X121930000Y-93831876D03*
X120980000Y-91956876D03*
%TD*%
D33*
%TO.C,L1*%
X111500000Y-108800000D03*
X114300000Y-108800000D03*
%TD*%
D32*
%TO.C,D2*%
X81250000Y-99150000D03*
X81250000Y-96650000D03*
%TD*%
D13*
%TO.C,R16*%
X99725000Y-98725000D03*
X98075000Y-98725000D03*
%TD*%
M02*
