%TF.GenerationSoftware,KiCad,Pcbnew,(5.99.0-13244-g73f40b11ee)*%
%TF.CreationDate,2021-12-22T23:44:12+01:00*%
%TF.ProjectId,TheKNOBDaughterboard,5468654b-4e4f-4424-9461-756768746572,rev?*%
%TF.SameCoordinates,Original*%
%TF.FileFunction,Copper,L2,Bot*%
%TF.FilePolarity,Positive*%
%FSLAX46Y46*%
G04 Gerber Fmt 4.6, Leading zero omitted, Abs format (unit mm)*
G04 Created by KiCad (PCBNEW (5.99.0-13244-g73f40b11ee)) date 2021-12-22 23:44:12*
%MOMM*%
%LPD*%
G01*
G04 APERTURE LIST*
G04 Aperture macros list*
%AMRoundRect*
0 Rectangle with rounded corners*
0 $1 Rounding radius*
0 $2 $3 $4 $5 $6 $7 $8 $9 X,Y pos of 4 corners*
0 Add a 4 corners polygon primitive as box body*
4,1,4,$2,$3,$4,$5,$6,$7,$8,$9,$2,$3,0*
0 Add four circle primitives for the rounded corners*
1,1,$1+$1,$2,$3*
1,1,$1+$1,$4,$5*
1,1,$1+$1,$6,$7*
1,1,$1+$1,$8,$9*
0 Add four rect primitives between the rounded corners*
20,1,$1+$1,$2,$3,$4,$5,0*
20,1,$1+$1,$4,$5,$6,$7,0*
20,1,$1+$1,$6,$7,$8,$9,0*
20,1,$1+$1,$8,$9,$2,$3,0*%
G04 Aperture macros list end*
%TA.AperFunction,SMDPad,CuDef*%
%ADD10RoundRect,0.500000X-1.000000X-0.500000X1.000000X-0.500000X1.000000X0.500000X-1.000000X0.500000X0*%
%TD*%
%TA.AperFunction,SMDPad,CuDef*%
%ADD11R,3.000000X2.000000*%
%TD*%
%TA.AperFunction,ComponentPad*%
%ADD12O,2.100000X1.000000*%
%TD*%
%TA.AperFunction,ComponentPad*%
%ADD13O,1.600000X1.000000*%
%TD*%
%TA.AperFunction,ComponentPad*%
%ADD14RoundRect,0.250000X0.600000X0.725000X-0.600000X0.725000X-0.600000X-0.725000X0.600000X-0.725000X0*%
%TD*%
%TA.AperFunction,ComponentPad*%
%ADD15O,1.700000X1.950000*%
%TD*%
%TA.AperFunction,ComponentPad*%
%ADD16RoundRect,0.250000X0.725000X-0.600000X0.725000X0.600000X-0.725000X0.600000X-0.725000X-0.600000X0*%
%TD*%
%TA.AperFunction,ComponentPad*%
%ADD17O,1.950000X1.700000*%
%TD*%
%TA.AperFunction,ComponentPad*%
%ADD18RoundRect,0.250000X-0.600000X-0.725000X0.600000X-0.725000X0.600000X0.725000X-0.600000X0.725000X0*%
%TD*%
%TA.AperFunction,ViaPad*%
%ADD19C,0.800000*%
%TD*%
%TA.AperFunction,ViaPad*%
%ADD20C,3.700000*%
%TD*%
%TA.AperFunction,Conductor*%
%ADD21C,0.250000*%
%TD*%
%TA.AperFunction,Conductor*%
%ADD22C,0.200000*%
%TD*%
G04 APERTURE END LIST*
D10*
%TO.P,SW2,1,1*%
%TO.N,/FunctionButton*%
X117500000Y-100000000D03*
D11*
%TO.P,SW2,2,2*%
%TO.N,GND*%
X124500000Y-100000000D03*
%TD*%
D10*
%TO.P,SW1,1,1*%
%TO.N,/ModButton*%
X96500000Y-100000000D03*
D11*
%TO.P,SW1,2,2*%
%TO.N,GND*%
X103500000Y-100000000D03*
%TD*%
D12*
%TO.P,J2,S1,SHIELD*%
%TO.N,GND*%
X75130000Y-95680000D03*
D13*
X70950000Y-95680000D03*
X70950000Y-104320000D03*
D12*
X75130000Y-104320000D03*
%TD*%
D14*
%TO.P,J3,1,Pin_1*%
%TO.N,/NC*%
X102500000Y-109700000D03*
D15*
%TO.P,J3,2,Pin_2*%
%TO.N,/SwitchEn*%
X100000000Y-109700000D03*
%TO.P,J3,3,Pin_3*%
%TO.N,GND*%
X97500000Y-109700000D03*
%TD*%
D16*
%TO.P,J4,1,Pin_1*%
%TO.N,Net-(J4-Pad1)*%
X90450000Y-103750000D03*
D17*
%TO.P,J4,2,Pin_2*%
%TO.N,/D-*%
X90450000Y-101250000D03*
%TO.P,J4,3,Pin_3*%
%TO.N,/D+*%
X90450000Y-98750000D03*
%TO.P,J4,4,Pin_4*%
%TO.N,GND*%
X90450000Y-96250000D03*
%TD*%
D18*
%TO.P,J5,1,Pin_1*%
%TO.N,/ChgStat*%
X81300000Y-88600000D03*
D15*
%TO.P,J5,2,Pin_2*%
%TO.N,/+5V_ADC*%
X83800000Y-88600000D03*
%TO.P,J5,3,Pin_3*%
%TO.N,/ModButton*%
X86300000Y-88600000D03*
%TO.P,J5,4,Pin_4*%
%TO.N,/VBat+_ADC*%
X88800000Y-88600000D03*
%TO.P,J5,5,Pin_5*%
%TO.N,/FunctionButton*%
X91300000Y-88600000D03*
%TO.P,J5,6,Pin_6*%
%TO.N,/3V3_Vcc*%
X93800000Y-88600000D03*
%TO.P,J5,7,Pin_7*%
X96300000Y-88600000D03*
%TO.P,J5,8,Pin_8*%
X98800000Y-88600000D03*
%TO.P,J5,9,Pin_9*%
%TO.N,GND*%
X101300000Y-88600000D03*
%TO.P,J5,10,Pin_10*%
X103800000Y-88600000D03*
%TO.P,J5,11,Pin_11*%
X106300000Y-88600000D03*
%TD*%
D19*
%TO.N,GND*%
X122040000Y-96880000D03*
X120990000Y-90330000D03*
X122190000Y-90830000D03*
X122190000Y-91930000D03*
X119690000Y-91930000D03*
X119690000Y-90830000D03*
X78500000Y-101000000D03*
X72300000Y-100000000D03*
X109850000Y-109200000D03*
X93700000Y-104650000D03*
X112250000Y-96900000D03*
X79700000Y-98850000D03*
X90650000Y-93600000D03*
X100900000Y-98700000D03*
X79780000Y-103330000D03*
X112250000Y-99100000D03*
X78800000Y-94800000D03*
X93100000Y-101100000D03*
X77580000Y-104500000D03*
X84850000Y-91900000D03*
X110900000Y-102800000D03*
X87300000Y-101500000D03*
X87700000Y-92600000D03*
X93100000Y-97950000D03*
X79300000Y-91350000D03*
X112200000Y-87600000D03*
D20*
X75000000Y-89000000D03*
D19*
X106750000Y-102700000D03*
X83100000Y-96200000D03*
X86800000Y-108300000D03*
X108900000Y-90850000D03*
X111900000Y-102800000D03*
X111500000Y-90750000D03*
D20*
X75000000Y-111000000D03*
D19*
X112250000Y-98000000D03*
X111200000Y-98000000D03*
X108850000Y-109200000D03*
X106600000Y-101000000D03*
X82450000Y-90500000D03*
X83050000Y-101400000D03*
X83050000Y-98450000D03*
X111200000Y-96900000D03*
X111200000Y-99100000D03*
X82600000Y-103700000D03*
X81500000Y-112500000D03*
X109300000Y-96900000D03*
X97800000Y-101700000D03*
X105600000Y-105450000D03*
X107850000Y-109200000D03*
X122780000Y-100431376D03*
X78100000Y-106200000D03*
%TO.N,/3V3_Vcc*%
X118150000Y-94000000D03*
X118125000Y-95100000D03*
X108200000Y-93400000D03*
X108200000Y-94500000D03*
X108200000Y-95600000D03*
X118125000Y-97300000D03*
X118125000Y-96200000D03*
%TO.N,/SwitchEn*%
X109500000Y-99600000D03*
X104300000Y-97525000D03*
%TO.N,/ModButton*%
X93750000Y-96350000D03*
%TO.N,/FunctionButton*%
X104550000Y-96550000D03*
%TO.N,/ChgStat*%
X79500000Y-111850000D03*
%TO.N,/C_D+*%
X73850000Y-99750000D03*
X73850000Y-101149500D03*
%TD*%
D21*
%TO.N,/SwitchEn*%
X106375000Y-99600000D02*
X109500000Y-99600000D01*
X104300000Y-97525000D02*
X106375000Y-99600000D01*
%TO.N,/ModButton*%
X93750000Y-97250000D02*
X96500000Y-100000000D01*
X93750000Y-96350000D02*
X93750000Y-97250000D01*
%TO.N,/FunctionButton*%
X117500000Y-100000000D02*
X116600000Y-100900000D01*
X104550000Y-96550000D02*
X106800000Y-98800000D01*
X106800000Y-98800000D02*
X109700000Y-98800000D01*
X111825000Y-100900000D02*
X109712500Y-98787500D01*
X116600000Y-100900000D02*
X111825000Y-100900000D01*
X109700000Y-98800000D02*
X109712500Y-98787500D01*
%TO.N,/ChgStat*%
X79500000Y-111850000D02*
X79500000Y-109200000D01*
X81300000Y-107400000D02*
X81300000Y-88600000D01*
X79500000Y-109200000D02*
X81300000Y-107400000D01*
D22*
%TO.N,/C_D+*%
X73850000Y-101149500D02*
X73850000Y-99750000D01*
%TD*%
%TA.AperFunction,Conductor*%
%TO.N,GND*%
G36*
X126985648Y-86514352D02*
G01*
X127000000Y-86549000D01*
X127000000Y-113451000D01*
X126985648Y-113485648D01*
X126951000Y-113500000D01*
X73049000Y-113500000D01*
X73014352Y-113485648D01*
X73000000Y-113451000D01*
X73000000Y-111850000D01*
X78894318Y-111850000D01*
X78914956Y-112006762D01*
X78916183Y-112009724D01*
X78916184Y-112009728D01*
X78974235Y-112149875D01*
X78975464Y-112152841D01*
X79071718Y-112278282D01*
X79197159Y-112374536D01*
X79200122Y-112375763D01*
X79200125Y-112375765D01*
X79340272Y-112433816D01*
X79340276Y-112433817D01*
X79343238Y-112435044D01*
X79346419Y-112435463D01*
X79346420Y-112435463D01*
X79496817Y-112455263D01*
X79500000Y-112455682D01*
X79503183Y-112455263D01*
X79653580Y-112435463D01*
X79653581Y-112435463D01*
X79656762Y-112435044D01*
X79659724Y-112433817D01*
X79659728Y-112433816D01*
X79799875Y-112375765D01*
X79799878Y-112375763D01*
X79802841Y-112374536D01*
X79928282Y-112278282D01*
X80024536Y-112152841D01*
X80025765Y-112149875D01*
X80083816Y-112009728D01*
X80083817Y-112009724D01*
X80085044Y-112006762D01*
X80105682Y-111850000D01*
X80085044Y-111693238D01*
X80083817Y-111690276D01*
X80083816Y-111690272D01*
X80025765Y-111550125D01*
X80025763Y-111550122D01*
X80024536Y-111547159D01*
X79928282Y-111421718D01*
X79844671Y-111357561D01*
X79825919Y-111325083D01*
X79825500Y-111318687D01*
X79825500Y-109907828D01*
X96503256Y-109907828D01*
X96515122Y-110024641D01*
X96516116Y-110029486D01*
X96575383Y-110218604D01*
X96577330Y-110223146D01*
X96673413Y-110396487D01*
X96676231Y-110400541D01*
X96805207Y-110551019D01*
X96808787Y-110554429D01*
X96965386Y-110675899D01*
X96969574Y-110678516D01*
X97147407Y-110766022D01*
X97152029Y-110767741D01*
X97290568Y-110803827D01*
X97297957Y-110802802D01*
X97300000Y-110800100D01*
X97300000Y-110796389D01*
X97700000Y-110796389D01*
X97702855Y-110803281D01*
X97707140Y-110805056D01*
X97747521Y-110798949D01*
X97752299Y-110797722D01*
X97938299Y-110729287D01*
X97942744Y-110727120D01*
X98111189Y-110622679D01*
X98115092Y-110619672D01*
X98259094Y-110483497D01*
X98262324Y-110479755D01*
X98375999Y-110317412D01*
X98378410Y-110313097D01*
X98457120Y-110131209D01*
X98458614Y-110126495D01*
X98499266Y-109931911D01*
X98499749Y-109928192D01*
X98499967Y-109924034D01*
X98500000Y-109922779D01*
X98500000Y-109909747D01*
X98497145Y-109902855D01*
X98490253Y-109900000D01*
X97709747Y-109900000D01*
X97702855Y-109902855D01*
X97700000Y-109909747D01*
X97700000Y-110796389D01*
X97300000Y-110796389D01*
X97300000Y-109909747D01*
X97297145Y-109902855D01*
X97290253Y-109900000D01*
X96512208Y-109900000D01*
X96505316Y-109902855D01*
X96503256Y-109907828D01*
X79825500Y-109907828D01*
X79825500Y-109876841D01*
X98949500Y-109876841D01*
X98949616Y-109878021D01*
X98949616Y-109878027D01*
X98952538Y-109907828D01*
X98964520Y-110030030D01*
X98965209Y-110032312D01*
X98965210Y-110032317D01*
X98993645Y-110126495D01*
X99024065Y-110227251D01*
X99025188Y-110229363D01*
X99119658Y-110407038D01*
X99119661Y-110407042D01*
X99120782Y-110409151D01*
X99250989Y-110568800D01*
X99409725Y-110700118D01*
X99590945Y-110798103D01*
X99787746Y-110859023D01*
X99790121Y-110859273D01*
X99790123Y-110859273D01*
X99990248Y-110880307D01*
X99990253Y-110880307D01*
X99992631Y-110880557D01*
X99995016Y-110880340D01*
X99995021Y-110880340D01*
X100095214Y-110871221D01*
X100197797Y-110861886D01*
X100390889Y-110805056D01*
X100393125Y-110804398D01*
X100393127Y-110804397D01*
X100395428Y-110803720D01*
X100467537Y-110766022D01*
X100575881Y-110709381D01*
X100575883Y-110709380D01*
X100577998Y-110708274D01*
X100688197Y-110619672D01*
X100736688Y-110580685D01*
X100736691Y-110580682D01*
X100738553Y-110579185D01*
X100748825Y-110566944D01*
X100796297Y-110510369D01*
X100822758Y-110478834D01*
X101449500Y-110478834D01*
X101449608Y-110479973D01*
X101449608Y-110479980D01*
X101452200Y-110507397D01*
X101452481Y-110510369D01*
X101453471Y-110513188D01*
X101473537Y-110570327D01*
X101497366Y-110638184D01*
X101577850Y-110747150D01*
X101686816Y-110827634D01*
X101690277Y-110828849D01*
X101690278Y-110828850D01*
X101782422Y-110861208D01*
X101814631Y-110872519D01*
X101817603Y-110872800D01*
X101845020Y-110875392D01*
X101845027Y-110875392D01*
X101846166Y-110875500D01*
X103153834Y-110875500D01*
X103154973Y-110875392D01*
X103154980Y-110875392D01*
X103182397Y-110872800D01*
X103185369Y-110872519D01*
X103217578Y-110861208D01*
X103309722Y-110828850D01*
X103309723Y-110828849D01*
X103313184Y-110827634D01*
X103422150Y-110747150D01*
X103502634Y-110638184D01*
X103526464Y-110570327D01*
X103546529Y-110513188D01*
X103547519Y-110510369D01*
X103547800Y-110507397D01*
X103550392Y-110479980D01*
X103550392Y-110479973D01*
X103550500Y-110478834D01*
X103550500Y-108921166D01*
X103550060Y-108916503D01*
X103547800Y-108892603D01*
X103547519Y-108889631D01*
X103532046Y-108845571D01*
X103503850Y-108765278D01*
X103503849Y-108765277D01*
X103502634Y-108761816D01*
X103422150Y-108652850D01*
X103313184Y-108572366D01*
X103309723Y-108571151D01*
X103309722Y-108571150D01*
X103188188Y-108528471D01*
X103185369Y-108527481D01*
X103182397Y-108527200D01*
X103154980Y-108524608D01*
X103154973Y-108524608D01*
X103153834Y-108524500D01*
X101846166Y-108524500D01*
X101845027Y-108524608D01*
X101845020Y-108524608D01*
X101817603Y-108527200D01*
X101814631Y-108527481D01*
X101811812Y-108528471D01*
X101690278Y-108571150D01*
X101690277Y-108571151D01*
X101686816Y-108572366D01*
X101577850Y-108652850D01*
X101497366Y-108761816D01*
X101496151Y-108765277D01*
X101496150Y-108765278D01*
X101467954Y-108845571D01*
X101452481Y-108889631D01*
X101452200Y-108892603D01*
X101449941Y-108916503D01*
X101449500Y-108921166D01*
X101449500Y-110478834D01*
X100822758Y-110478834D01*
X100870976Y-110421370D01*
X100928127Y-110317412D01*
X100969072Y-110242934D01*
X100969073Y-110242932D01*
X100970224Y-110240838D01*
X100975261Y-110224961D01*
X101005000Y-110131209D01*
X101032516Y-110044468D01*
X101045141Y-109931911D01*
X101050348Y-109885495D01*
X101050348Y-109885487D01*
X101050500Y-109884136D01*
X101050500Y-109523159D01*
X101049652Y-109514505D01*
X101035713Y-109372351D01*
X101035480Y-109369970D01*
X101030998Y-109355122D01*
X100987812Y-109212088D01*
X100975935Y-109172749D01*
X100930318Y-109086955D01*
X100880342Y-108992962D01*
X100880339Y-108992958D01*
X100879218Y-108990849D01*
X100749011Y-108831200D01*
X100590275Y-108699882D01*
X100409055Y-108601897D01*
X100212254Y-108540977D01*
X100209879Y-108540727D01*
X100209877Y-108540727D01*
X100009752Y-108519693D01*
X100009747Y-108519693D01*
X100007369Y-108519443D01*
X100004984Y-108519660D01*
X100004979Y-108519660D01*
X99908165Y-108528471D01*
X99802203Y-108538114D01*
X99685825Y-108572366D01*
X99606875Y-108595602D01*
X99606873Y-108595603D01*
X99604572Y-108596280D01*
X99602446Y-108597391D01*
X99602447Y-108597391D01*
X99458051Y-108672880D01*
X99422002Y-108691726D01*
X99340206Y-108757491D01*
X99263312Y-108819315D01*
X99263309Y-108819318D01*
X99261447Y-108820815D01*
X99259908Y-108822649D01*
X99259907Y-108822650D01*
X99240674Y-108845571D01*
X99129024Y-108978630D01*
X99127869Y-108980731D01*
X99046097Y-109129475D01*
X99029776Y-109159162D01*
X99029052Y-109161443D01*
X99029052Y-109161444D01*
X99024606Y-109175460D01*
X98967484Y-109355532D01*
X98965260Y-109375359D01*
X98951600Y-109497145D01*
X98949500Y-109515864D01*
X98949500Y-109876841D01*
X79825500Y-109876841D01*
X79825500Y-109490253D01*
X96500000Y-109490253D01*
X96502855Y-109497145D01*
X96509747Y-109500000D01*
X97290253Y-109500000D01*
X97297145Y-109497145D01*
X97300000Y-109490253D01*
X97700000Y-109490253D01*
X97702855Y-109497145D01*
X97709747Y-109500000D01*
X98487792Y-109500000D01*
X98494684Y-109497145D01*
X98496744Y-109492172D01*
X98484878Y-109375359D01*
X98483884Y-109370514D01*
X98424617Y-109181396D01*
X98422670Y-109176854D01*
X98326587Y-109003513D01*
X98323769Y-108999459D01*
X98194793Y-108848981D01*
X98191213Y-108845571D01*
X98034614Y-108724101D01*
X98030426Y-108721484D01*
X97852593Y-108633978D01*
X97847971Y-108632259D01*
X97709432Y-108596173D01*
X97702043Y-108597198D01*
X97700000Y-108599900D01*
X97700000Y-109490253D01*
X97300000Y-109490253D01*
X97300000Y-108603611D01*
X97297145Y-108596719D01*
X97292860Y-108594944D01*
X97252479Y-108601051D01*
X97247701Y-108602278D01*
X97061701Y-108670713D01*
X97057256Y-108672880D01*
X96888811Y-108777321D01*
X96884908Y-108780328D01*
X96740906Y-108916503D01*
X96737676Y-108920245D01*
X96624001Y-109082588D01*
X96621590Y-109086903D01*
X96542880Y-109268791D01*
X96541386Y-109273505D01*
X96500734Y-109468089D01*
X96500251Y-109471808D01*
X96500033Y-109475966D01*
X96500000Y-109477221D01*
X96500000Y-109490253D01*
X79825500Y-109490253D01*
X79825500Y-109355122D01*
X79839852Y-109320474D01*
X81518602Y-107641725D01*
X81521753Y-107638837D01*
X81553194Y-107612455D01*
X81573716Y-107576910D01*
X81576012Y-107573307D01*
X81597092Y-107543199D01*
X81597092Y-107543198D01*
X81599553Y-107539684D01*
X81601647Y-107531869D01*
X81606540Y-107520057D01*
X81610588Y-107513045D01*
X81617717Y-107472613D01*
X81618642Y-107468442D01*
X81628154Y-107432946D01*
X81628154Y-107432945D01*
X81629263Y-107428807D01*
X81625686Y-107387920D01*
X81625500Y-107383650D01*
X81625500Y-104403834D01*
X89274500Y-104403834D01*
X89277481Y-104435369D01*
X89278471Y-104438188D01*
X89308204Y-104522855D01*
X89322366Y-104563184D01*
X89402850Y-104672150D01*
X89511816Y-104752634D01*
X89515277Y-104753849D01*
X89515278Y-104753850D01*
X89617098Y-104789606D01*
X89639631Y-104797519D01*
X89642603Y-104797800D01*
X89670020Y-104800392D01*
X89670027Y-104800392D01*
X89671166Y-104800500D01*
X91228834Y-104800500D01*
X91229973Y-104800392D01*
X91229980Y-104800392D01*
X91257397Y-104797800D01*
X91260369Y-104797519D01*
X91282902Y-104789606D01*
X91384722Y-104753850D01*
X91384723Y-104753849D01*
X91388184Y-104752634D01*
X91497150Y-104672150D01*
X91577634Y-104563184D01*
X91591797Y-104522855D01*
X91621529Y-104438188D01*
X91622519Y-104435369D01*
X91625500Y-104403834D01*
X91625500Y-103096166D01*
X91622519Y-103064631D01*
X91577634Y-102936816D01*
X91497150Y-102827850D01*
X91388184Y-102747366D01*
X91384723Y-102746151D01*
X91384722Y-102746150D01*
X91263188Y-102703471D01*
X91260369Y-102702481D01*
X91257397Y-102702200D01*
X91229980Y-102699608D01*
X91229973Y-102699608D01*
X91228834Y-102699500D01*
X89671166Y-102699500D01*
X89670027Y-102699608D01*
X89670020Y-102699608D01*
X89642603Y-102702200D01*
X89639631Y-102702481D01*
X89636812Y-102703471D01*
X89515278Y-102746150D01*
X89515277Y-102746151D01*
X89511816Y-102747366D01*
X89402850Y-102827850D01*
X89322366Y-102936816D01*
X89277481Y-103064631D01*
X89274500Y-103096166D01*
X89274500Y-104403834D01*
X81625500Y-104403834D01*
X81625500Y-101242631D01*
X89269443Y-101242631D01*
X89269660Y-101245016D01*
X89269660Y-101245021D01*
X89278778Y-101345214D01*
X89288114Y-101447797D01*
X89346280Y-101645428D01*
X89441726Y-101827998D01*
X89449903Y-101838168D01*
X89569315Y-101986688D01*
X89569318Y-101986691D01*
X89570815Y-101988553D01*
X89728630Y-102120976D01*
X89730731Y-102122131D01*
X89907066Y-102219072D01*
X89907068Y-102219073D01*
X89909162Y-102220224D01*
X90105532Y-102282516D01*
X90169875Y-102289733D01*
X90264505Y-102300348D01*
X90264513Y-102300348D01*
X90265864Y-102300500D01*
X90626841Y-102300500D01*
X90628021Y-102300384D01*
X90628027Y-102300384D01*
X90685823Y-102294717D01*
X90780030Y-102285480D01*
X90782312Y-102284791D01*
X90782317Y-102284790D01*
X90888854Y-102252624D01*
X90977251Y-102225935D01*
X90992507Y-102217823D01*
X91157038Y-102130342D01*
X91157042Y-102130339D01*
X91159151Y-102129218D01*
X91318800Y-101999011D01*
X91450118Y-101840275D01*
X91540003Y-101674036D01*
X91546965Y-101661160D01*
X91546966Y-101661159D01*
X91548103Y-101659055D01*
X91609023Y-101462254D01*
X91610377Y-101449375D01*
X91630307Y-101259752D01*
X91630307Y-101259747D01*
X91630557Y-101257369D01*
X91630340Y-101254984D01*
X91630340Y-101254979D01*
X91616612Y-101104133D01*
X91611886Y-101052203D01*
X91553720Y-100854572D01*
X91458274Y-100672002D01*
X91379881Y-100574500D01*
X91330685Y-100513312D01*
X91330682Y-100513309D01*
X91329185Y-100511447D01*
X91171370Y-100379024D01*
X91028528Y-100300496D01*
X90992934Y-100280928D01*
X90992932Y-100280927D01*
X90990838Y-100279776D01*
X90974320Y-100274536D01*
X90933609Y-100261622D01*
X90794468Y-100217484D01*
X90725491Y-100209747D01*
X90635495Y-100199652D01*
X90635487Y-100199652D01*
X90634136Y-100199500D01*
X90273159Y-100199500D01*
X90271979Y-100199616D01*
X90271973Y-100199616D01*
X90214382Y-100205263D01*
X90119970Y-100214520D01*
X90117688Y-100215209D01*
X90117683Y-100215210D01*
X90011146Y-100247376D01*
X89922749Y-100274065D01*
X89920637Y-100275188D01*
X89742962Y-100369658D01*
X89742958Y-100369661D01*
X89740849Y-100370782D01*
X89581200Y-100500989D01*
X89449882Y-100659725D01*
X89351897Y-100840945D01*
X89290977Y-101037746D01*
X89290727Y-101040121D01*
X89290727Y-101040123D01*
X89270848Y-101229264D01*
X89269443Y-101242631D01*
X81625500Y-101242631D01*
X81625500Y-98742631D01*
X89269443Y-98742631D01*
X89269660Y-98745016D01*
X89269660Y-98745021D01*
X89275204Y-98805933D01*
X89288114Y-98947797D01*
X89309879Y-99021748D01*
X89340470Y-99125686D01*
X89346280Y-99145428D01*
X89353404Y-99159055D01*
X89406255Y-99260148D01*
X89441726Y-99327998D01*
X89476627Y-99371406D01*
X89569315Y-99486688D01*
X89569318Y-99486691D01*
X89570815Y-99488553D01*
X89728630Y-99620976D01*
X89730731Y-99622131D01*
X89907066Y-99719072D01*
X89907068Y-99719073D01*
X89909162Y-99720224D01*
X90105532Y-99782516D01*
X90169875Y-99789733D01*
X90264505Y-99800348D01*
X90264513Y-99800348D01*
X90265864Y-99800500D01*
X90626841Y-99800500D01*
X90628021Y-99800384D01*
X90628027Y-99800384D01*
X90685823Y-99794717D01*
X90780030Y-99785480D01*
X90782312Y-99784791D01*
X90782317Y-99784790D01*
X90888854Y-99752624D01*
X90977251Y-99725935D01*
X91021757Y-99702271D01*
X91157038Y-99630342D01*
X91157042Y-99630339D01*
X91159151Y-99629218D01*
X91318800Y-99499011D01*
X91450118Y-99340275D01*
X91541256Y-99171718D01*
X91546965Y-99161160D01*
X91546966Y-99161159D01*
X91548103Y-99159055D01*
X91609023Y-98962254D01*
X91610301Y-98950099D01*
X91630307Y-98759752D01*
X91630307Y-98759747D01*
X91630557Y-98757369D01*
X91630340Y-98754984D01*
X91630340Y-98754979D01*
X91621222Y-98654786D01*
X91611886Y-98552203D01*
X91553720Y-98354572D01*
X91458274Y-98172002D01*
X91392509Y-98090206D01*
X91330685Y-98013312D01*
X91330682Y-98013309D01*
X91329185Y-98011447D01*
X91171370Y-97879024D01*
X91034676Y-97803876D01*
X90992934Y-97780928D01*
X90992932Y-97780927D01*
X90990838Y-97779776D01*
X90794468Y-97717484D01*
X90730125Y-97710267D01*
X90635495Y-97699652D01*
X90635487Y-97699652D01*
X90634136Y-97699500D01*
X90273159Y-97699500D01*
X90271979Y-97699616D01*
X90271973Y-97699616D01*
X90214177Y-97705283D01*
X90119970Y-97714520D01*
X90117688Y-97715209D01*
X90117683Y-97715210D01*
X90011146Y-97747376D01*
X89922749Y-97774065D01*
X89920637Y-97775188D01*
X89742962Y-97869658D01*
X89742958Y-97869661D01*
X89740849Y-97870782D01*
X89581200Y-98000989D01*
X89449882Y-98159725D01*
X89351897Y-98340945D01*
X89290977Y-98537746D01*
X89290727Y-98540121D01*
X89290727Y-98540123D01*
X89284653Y-98597920D01*
X89269443Y-98742631D01*
X81625500Y-98742631D01*
X81625500Y-96457140D01*
X89344944Y-96457140D01*
X89351051Y-96497521D01*
X89352278Y-96502299D01*
X89420713Y-96688299D01*
X89422880Y-96692744D01*
X89527321Y-96861189D01*
X89530328Y-96865092D01*
X89666503Y-97009094D01*
X89670245Y-97012324D01*
X89832588Y-97125999D01*
X89836903Y-97128410D01*
X90018791Y-97207120D01*
X90023505Y-97208614D01*
X90218089Y-97249266D01*
X90221808Y-97249749D01*
X90225966Y-97249967D01*
X90227221Y-97250000D01*
X90240253Y-97250000D01*
X90247145Y-97247145D01*
X90250000Y-97240253D01*
X90250000Y-97237792D01*
X90650000Y-97237792D01*
X90652855Y-97244684D01*
X90657828Y-97246744D01*
X90774641Y-97234878D01*
X90779486Y-97233884D01*
X90968604Y-97174617D01*
X90973146Y-97172670D01*
X91146487Y-97076587D01*
X91150541Y-97073769D01*
X91301019Y-96944793D01*
X91304429Y-96941213D01*
X91425899Y-96784614D01*
X91428516Y-96780426D01*
X91516022Y-96602593D01*
X91517741Y-96597971D01*
X91553827Y-96459432D01*
X91552802Y-96452043D01*
X91550100Y-96450000D01*
X90659747Y-96450000D01*
X90652855Y-96452855D01*
X90650000Y-96459747D01*
X90650000Y-97237792D01*
X90250000Y-97237792D01*
X90250000Y-96459747D01*
X90247145Y-96452855D01*
X90240253Y-96450000D01*
X89353611Y-96450000D01*
X89346719Y-96452855D01*
X89344944Y-96457140D01*
X81625500Y-96457140D01*
X81625500Y-96350000D01*
X93144318Y-96350000D01*
X93164956Y-96506762D01*
X93166183Y-96509724D01*
X93166184Y-96509728D01*
X93224182Y-96649746D01*
X93225464Y-96652841D01*
X93321718Y-96778282D01*
X93324267Y-96780238D01*
X93405329Y-96842439D01*
X93424081Y-96874917D01*
X93424500Y-96881313D01*
X93424500Y-97233641D01*
X93424314Y-97237912D01*
X93420736Y-97278807D01*
X93421845Y-97282945D01*
X93421845Y-97282946D01*
X93431360Y-97318453D01*
X93432285Y-97322623D01*
X93439412Y-97363045D01*
X93441558Y-97366762D01*
X93443457Y-97370052D01*
X93448351Y-97381864D01*
X93450446Y-97389684D01*
X93452906Y-97393197D01*
X93473987Y-97423303D01*
X93476284Y-97426908D01*
X93496806Y-97462455D01*
X93520388Y-97482243D01*
X93528255Y-97488844D01*
X93531406Y-97491732D01*
X94989836Y-98950163D01*
X95004188Y-98984811D01*
X94989836Y-99019459D01*
X94944703Y-99064592D01*
X94912530Y-99117716D01*
X94858401Y-99207093D01*
X94858399Y-99207097D01*
X94856873Y-99209617D01*
X94855991Y-99212432D01*
X94806949Y-99368925D01*
X94806171Y-99371406D01*
X94799500Y-99444007D01*
X94799501Y-100555992D01*
X94799603Y-100557100D01*
X94799603Y-100557105D01*
X94805838Y-100624964D01*
X94806171Y-100628594D01*
X94806947Y-100631071D01*
X94806948Y-100631075D01*
X94834585Y-100719262D01*
X94856873Y-100790383D01*
X94858399Y-100792903D01*
X94858401Y-100792907D01*
X94887494Y-100840945D01*
X94944703Y-100935408D01*
X95064592Y-101055297D01*
X95138751Y-101100209D01*
X95207093Y-101141599D01*
X95207097Y-101141601D01*
X95209617Y-101143127D01*
X95231549Y-101150000D01*
X95368929Y-101193053D01*
X95368931Y-101193053D01*
X95371406Y-101193829D01*
X95373992Y-101194067D01*
X95373994Y-101194067D01*
X95398411Y-101196310D01*
X95444007Y-101200500D01*
X96497171Y-101200500D01*
X97555992Y-101200499D01*
X97557100Y-101200397D01*
X97557105Y-101200397D01*
X97626007Y-101194067D01*
X97626010Y-101194066D01*
X97628594Y-101193829D01*
X97631071Y-101193053D01*
X97631075Y-101193052D01*
X97768451Y-101150000D01*
X97790383Y-101143127D01*
X97792903Y-101141601D01*
X97792907Y-101141599D01*
X97861249Y-101100209D01*
X97935408Y-101055297D01*
X97978335Y-101012370D01*
X101850001Y-101012370D01*
X101850470Y-101017130D01*
X101857762Y-101053795D01*
X101861383Y-101062539D01*
X101889176Y-101104133D01*
X101895867Y-101110824D01*
X101937461Y-101138616D01*
X101946206Y-101142238D01*
X101982859Y-101149529D01*
X101987635Y-101150000D01*
X103290253Y-101150000D01*
X103297145Y-101147145D01*
X103300000Y-101140253D01*
X103300000Y-101140252D01*
X103700000Y-101140252D01*
X103702855Y-101147144D01*
X103709747Y-101149999D01*
X105012370Y-101149999D01*
X105017130Y-101149530D01*
X105053795Y-101142238D01*
X105062539Y-101138617D01*
X105104133Y-101110824D01*
X105110824Y-101104133D01*
X105138616Y-101062539D01*
X105142238Y-101053794D01*
X105149529Y-101017141D01*
X105150000Y-101012365D01*
X105150000Y-100209747D01*
X105147145Y-100202855D01*
X105140253Y-100200000D01*
X103709747Y-100200000D01*
X103702855Y-100202855D01*
X103700000Y-100209747D01*
X103700000Y-101140252D01*
X103300000Y-101140252D01*
X103300000Y-100209747D01*
X103297145Y-100202855D01*
X103290253Y-100200000D01*
X101859748Y-100200000D01*
X101852856Y-100202855D01*
X101850001Y-100209747D01*
X101850001Y-101012370D01*
X97978335Y-101012370D01*
X98055297Y-100935408D01*
X98112506Y-100840945D01*
X98141599Y-100792907D01*
X98141601Y-100792903D01*
X98143127Y-100790383D01*
X98192244Y-100633652D01*
X98193053Y-100631071D01*
X98193053Y-100631069D01*
X98193829Y-100628594D01*
X98200500Y-100555993D01*
X98200499Y-99790253D01*
X101850000Y-99790253D01*
X101852855Y-99797145D01*
X101859747Y-99800000D01*
X103290253Y-99800000D01*
X103297145Y-99797145D01*
X103300000Y-99790253D01*
X103300000Y-98859748D01*
X103297145Y-98852856D01*
X103290253Y-98850001D01*
X101987630Y-98850001D01*
X101982870Y-98850470D01*
X101946205Y-98857762D01*
X101937461Y-98861383D01*
X101895867Y-98889176D01*
X101889176Y-98895867D01*
X101861384Y-98937461D01*
X101857762Y-98946206D01*
X101850471Y-98982859D01*
X101850000Y-98987635D01*
X101850000Y-99790253D01*
X98200499Y-99790253D01*
X98200499Y-99444008D01*
X98200397Y-99442895D01*
X98194067Y-99373993D01*
X98194066Y-99373990D01*
X98193829Y-99371406D01*
X98193053Y-99368929D01*
X98193052Y-99368925D01*
X98144009Y-99212432D01*
X98143127Y-99209617D01*
X98141601Y-99207097D01*
X98141599Y-99207093D01*
X98087470Y-99117716D01*
X98055297Y-99064592D01*
X97935408Y-98944703D01*
X97797832Y-98861384D01*
X97792907Y-98858401D01*
X97792903Y-98858399D01*
X97790383Y-98856873D01*
X97723370Y-98835872D01*
X97631071Y-98806947D01*
X97631069Y-98806947D01*
X97628594Y-98806171D01*
X97626008Y-98805933D01*
X97626006Y-98805933D01*
X97601589Y-98803690D01*
X97555993Y-98799500D01*
X97462297Y-98799500D01*
X95780123Y-98799501D01*
X95745475Y-98785149D01*
X94485326Y-97525000D01*
X103694318Y-97525000D01*
X103694737Y-97528183D01*
X103709463Y-97640035D01*
X103714956Y-97681762D01*
X103716183Y-97684724D01*
X103716184Y-97684728D01*
X103774235Y-97824875D01*
X103775464Y-97827841D01*
X103871718Y-97953282D01*
X103997159Y-98049536D01*
X104000122Y-98050763D01*
X104000125Y-98050765D01*
X104140272Y-98108816D01*
X104140276Y-98108817D01*
X104143238Y-98110044D01*
X104146419Y-98110463D01*
X104146420Y-98110463D01*
X104296817Y-98130263D01*
X104300000Y-98130682D01*
X104303183Y-98130263D01*
X104404489Y-98116926D01*
X104440714Y-98126633D01*
X104445533Y-98130859D01*
X105087675Y-98773001D01*
X105102027Y-98807649D01*
X105087675Y-98842297D01*
X105053027Y-98856649D01*
X105043468Y-98855708D01*
X105017133Y-98850470D01*
X105012365Y-98850000D01*
X103709747Y-98850000D01*
X103702855Y-98852855D01*
X103700000Y-98859747D01*
X103700000Y-99790253D01*
X103702855Y-99797145D01*
X103709747Y-99800000D01*
X105140252Y-99800000D01*
X105147144Y-99797145D01*
X105149999Y-99790253D01*
X105149999Y-98987630D01*
X105149530Y-98982870D01*
X105144292Y-98956531D01*
X105151610Y-98919749D01*
X105182793Y-98898914D01*
X105219575Y-98906232D01*
X105226999Y-98912325D01*
X106133270Y-99818596D01*
X106136158Y-99821748D01*
X106159786Y-99849907D01*
X106159789Y-99849910D01*
X106162545Y-99853194D01*
X106166259Y-99855338D01*
X106198091Y-99873716D01*
X106201695Y-99876012D01*
X106235316Y-99899554D01*
X106242696Y-99901532D01*
X106243130Y-99901648D01*
X106254948Y-99906543D01*
X106255328Y-99906762D01*
X106261955Y-99910588D01*
X106266180Y-99911333D01*
X106302365Y-99917714D01*
X106306537Y-99918638D01*
X106346193Y-99929263D01*
X106387080Y-99925686D01*
X106391350Y-99925500D01*
X108968687Y-99925500D01*
X109003335Y-99939852D01*
X109007561Y-99944671D01*
X109071718Y-100028282D01*
X109197159Y-100124536D01*
X109200122Y-100125763D01*
X109200125Y-100125765D01*
X109340272Y-100183816D01*
X109340276Y-100183817D01*
X109343238Y-100185044D01*
X109346419Y-100185463D01*
X109346420Y-100185463D01*
X109496817Y-100205263D01*
X109500000Y-100205682D01*
X109503183Y-100205263D01*
X109653580Y-100185463D01*
X109653581Y-100185463D01*
X109656762Y-100185044D01*
X109659724Y-100183817D01*
X109659728Y-100183816D01*
X109799875Y-100125765D01*
X109799878Y-100125763D01*
X109802841Y-100124536D01*
X109928282Y-100028282D01*
X110024536Y-99902841D01*
X110025898Y-99899554D01*
X110083816Y-99759728D01*
X110083817Y-99759724D01*
X110085044Y-99756762D01*
X110087942Y-99734749D01*
X110106694Y-99702271D01*
X110142919Y-99692564D01*
X110171171Y-99706497D01*
X111583270Y-101118596D01*
X111586158Y-101121748D01*
X111609786Y-101149907D01*
X111609789Y-101149910D01*
X111612545Y-101153194D01*
X111616259Y-101155338D01*
X111648091Y-101173716D01*
X111651695Y-101176012D01*
X111685316Y-101199554D01*
X111692696Y-101201532D01*
X111693130Y-101201648D01*
X111704948Y-101206543D01*
X111705853Y-101207065D01*
X111711955Y-101210588D01*
X111716180Y-101211333D01*
X111752365Y-101217714D01*
X111756537Y-101218638D01*
X111764001Y-101220638D01*
X111796193Y-101229263D01*
X111837080Y-101225686D01*
X111841350Y-101225500D01*
X116583641Y-101225500D01*
X116587912Y-101225686D01*
X116624540Y-101228891D01*
X116624542Y-101228891D01*
X116628807Y-101229264D01*
X116642160Y-101225686D01*
X116644647Y-101225020D01*
X116668458Y-101218639D01*
X116672623Y-101217715D01*
X116689432Y-101214751D01*
X116708821Y-101211333D01*
X116708822Y-101211333D01*
X116713045Y-101210588D01*
X116719147Y-101207065D01*
X116743647Y-101200500D01*
X118318796Y-101200499D01*
X118555992Y-101200499D01*
X118557100Y-101200397D01*
X118557105Y-101200397D01*
X118626007Y-101194067D01*
X118626010Y-101194066D01*
X118628594Y-101193829D01*
X118631071Y-101193053D01*
X118631075Y-101193052D01*
X118768451Y-101150000D01*
X118790383Y-101143127D01*
X118792903Y-101141601D01*
X118792907Y-101141599D01*
X118861249Y-101100209D01*
X118935408Y-101055297D01*
X118978335Y-101012370D01*
X122850001Y-101012370D01*
X122850470Y-101017130D01*
X122857762Y-101053795D01*
X122861383Y-101062539D01*
X122889176Y-101104133D01*
X122895867Y-101110824D01*
X122937461Y-101138616D01*
X122946206Y-101142238D01*
X122982859Y-101149529D01*
X122987635Y-101150000D01*
X124290253Y-101150000D01*
X124297145Y-101147145D01*
X124300000Y-101140253D01*
X124300000Y-101140252D01*
X124700000Y-101140252D01*
X124702855Y-101147144D01*
X124709747Y-101149999D01*
X126012370Y-101149999D01*
X126017130Y-101149530D01*
X126053795Y-101142238D01*
X126062539Y-101138617D01*
X126104133Y-101110824D01*
X126110824Y-101104133D01*
X126138616Y-101062539D01*
X126142238Y-101053794D01*
X126149529Y-101017141D01*
X126150000Y-101012365D01*
X126150000Y-100209747D01*
X126147145Y-100202855D01*
X126140253Y-100200000D01*
X124709747Y-100200000D01*
X124702855Y-100202855D01*
X124700000Y-100209747D01*
X124700000Y-101140252D01*
X124300000Y-101140252D01*
X124300000Y-100209747D01*
X124297145Y-100202855D01*
X124290253Y-100200000D01*
X122859748Y-100200000D01*
X122852856Y-100202855D01*
X122850001Y-100209747D01*
X122850001Y-101012370D01*
X118978335Y-101012370D01*
X119055297Y-100935408D01*
X119112506Y-100840945D01*
X119141599Y-100792907D01*
X119141601Y-100792903D01*
X119143127Y-100790383D01*
X119192244Y-100633652D01*
X119193053Y-100631071D01*
X119193053Y-100631069D01*
X119193829Y-100628594D01*
X119200500Y-100555993D01*
X119200499Y-99790253D01*
X122850000Y-99790253D01*
X122852855Y-99797145D01*
X122859747Y-99800000D01*
X124290253Y-99800000D01*
X124297145Y-99797145D01*
X124300000Y-99790253D01*
X124700000Y-99790253D01*
X124702855Y-99797145D01*
X124709747Y-99800000D01*
X126140252Y-99800000D01*
X126147144Y-99797145D01*
X126149999Y-99790253D01*
X126149999Y-98987630D01*
X126149530Y-98982870D01*
X126142238Y-98946205D01*
X126138617Y-98937461D01*
X126110824Y-98895867D01*
X126104133Y-98889176D01*
X126062539Y-98861384D01*
X126053794Y-98857762D01*
X126017141Y-98850471D01*
X126012365Y-98850000D01*
X124709747Y-98850000D01*
X124702855Y-98852855D01*
X124700000Y-98859747D01*
X124700000Y-99790253D01*
X124300000Y-99790253D01*
X124300000Y-98859748D01*
X124297145Y-98852856D01*
X124290253Y-98850001D01*
X122987630Y-98850001D01*
X122982870Y-98850470D01*
X122946205Y-98857762D01*
X122937461Y-98861383D01*
X122895867Y-98889176D01*
X122889176Y-98895867D01*
X122861384Y-98937461D01*
X122857762Y-98946206D01*
X122850471Y-98982859D01*
X122850000Y-98987635D01*
X122850000Y-99790253D01*
X119200499Y-99790253D01*
X119200499Y-99444008D01*
X119200397Y-99442895D01*
X119194067Y-99373993D01*
X119194066Y-99373990D01*
X119193829Y-99371406D01*
X119193053Y-99368929D01*
X119193052Y-99368925D01*
X119144009Y-99212432D01*
X119143127Y-99209617D01*
X119141601Y-99207097D01*
X119141599Y-99207093D01*
X119087470Y-99117716D01*
X119055297Y-99064592D01*
X118935408Y-98944703D01*
X118797832Y-98861384D01*
X118792907Y-98858401D01*
X118792903Y-98858399D01*
X118790383Y-98856873D01*
X118723370Y-98835872D01*
X118631071Y-98806947D01*
X118631069Y-98806947D01*
X118628594Y-98806171D01*
X118626008Y-98805933D01*
X118626006Y-98805933D01*
X118601589Y-98803690D01*
X118555993Y-98799500D01*
X117502829Y-98799500D01*
X116444008Y-98799501D01*
X116442900Y-98799603D01*
X116442895Y-98799603D01*
X116373993Y-98805933D01*
X116373990Y-98805934D01*
X116371406Y-98806171D01*
X116368929Y-98806947D01*
X116368925Y-98806948D01*
X116256129Y-98842297D01*
X116209617Y-98856873D01*
X116207097Y-98858399D01*
X116207093Y-98858401D01*
X116202168Y-98861384D01*
X116064592Y-98944703D01*
X115944703Y-99064592D01*
X115912530Y-99117716D01*
X115858401Y-99207093D01*
X115858399Y-99207097D01*
X115856873Y-99209617D01*
X115855991Y-99212432D01*
X115806949Y-99368925D01*
X115806171Y-99371406D01*
X115799500Y-99444007D01*
X115799500Y-99445124D01*
X115799501Y-100525500D01*
X115785149Y-100560148D01*
X115750501Y-100574500D01*
X111980122Y-100574500D01*
X111945474Y-100560148D01*
X109983248Y-98597922D01*
X109983247Y-98597920D01*
X109902080Y-98516753D01*
X109879751Y-98506340D01*
X109872358Y-98502071D01*
X109855698Y-98490406D01*
X109855696Y-98490405D01*
X109852184Y-98487946D01*
X109848045Y-98486837D01*
X109848043Y-98486836D01*
X109828396Y-98481572D01*
X109820375Y-98478653D01*
X109798046Y-98468241D01*
X109781260Y-98466773D01*
X109773507Y-98466094D01*
X109765096Y-98464610D01*
X109745448Y-98459345D01*
X109745444Y-98459345D01*
X109741307Y-98458236D01*
X109737041Y-98458609D01*
X109737039Y-98458609D01*
X109716769Y-98460382D01*
X109708231Y-98460382D01*
X109687961Y-98458609D01*
X109687959Y-98458609D01*
X109683693Y-98458236D01*
X109679556Y-98459345D01*
X109679552Y-98459345D01*
X109659903Y-98464610D01*
X109651492Y-98466093D01*
X109631229Y-98467866D01*
X109631223Y-98467868D01*
X109626955Y-98468241D01*
X109623070Y-98470053D01*
X109618930Y-98471162D01*
X109618862Y-98470910D01*
X109602670Y-98474500D01*
X106955122Y-98474500D01*
X106920474Y-98460148D01*
X105155859Y-96695533D01*
X105141507Y-96660885D01*
X105141926Y-96654489D01*
X105155263Y-96553183D01*
X105155682Y-96550000D01*
X105135044Y-96393238D01*
X105133817Y-96390276D01*
X105133816Y-96390272D01*
X105075765Y-96250125D01*
X105075763Y-96250122D01*
X105074536Y-96247159D01*
X104978282Y-96121718D01*
X104943485Y-96095017D01*
X104884817Y-96050000D01*
X104852841Y-96025464D01*
X104849878Y-96024237D01*
X104849875Y-96024235D01*
X104709728Y-95966184D01*
X104709724Y-95966183D01*
X104706762Y-95964956D01*
X104703581Y-95964537D01*
X104703580Y-95964537D01*
X104553183Y-95944737D01*
X104550000Y-95944318D01*
X104546817Y-95944737D01*
X104396420Y-95964537D01*
X104396419Y-95964537D01*
X104393238Y-95964956D01*
X104390276Y-95966183D01*
X104390272Y-95966184D01*
X104250125Y-96024235D01*
X104250122Y-96024237D01*
X104247159Y-96025464D01*
X104215183Y-96050000D01*
X104156516Y-96095017D01*
X104121718Y-96121718D01*
X104025464Y-96247159D01*
X104024237Y-96250122D01*
X104024235Y-96250125D01*
X103966184Y-96390272D01*
X103966183Y-96390276D01*
X103964956Y-96393238D01*
X103944318Y-96550000D01*
X103944737Y-96553183D01*
X103963111Y-96692744D01*
X103964956Y-96706762D01*
X103966183Y-96709724D01*
X103966184Y-96709728D01*
X103997203Y-96784614D01*
X104025464Y-96852841D01*
X104027417Y-96855387D01*
X104027421Y-96855393D01*
X104065718Y-96905302D01*
X104075425Y-96941527D01*
X104056673Y-96974005D01*
X104045597Y-96980400D01*
X103997159Y-97000464D01*
X103871718Y-97096718D01*
X103775464Y-97222159D01*
X103774237Y-97225122D01*
X103774235Y-97225125D01*
X103716184Y-97365272D01*
X103716183Y-97365276D01*
X103714956Y-97368238D01*
X103714537Y-97371419D01*
X103714537Y-97371420D01*
X103713982Y-97375637D01*
X103694318Y-97525000D01*
X94485326Y-97525000D01*
X94089852Y-97129526D01*
X94075500Y-97094878D01*
X94075500Y-96881313D01*
X94089852Y-96846665D01*
X94094671Y-96842439D01*
X94175733Y-96780238D01*
X94178282Y-96778282D01*
X94274536Y-96652841D01*
X94275818Y-96649746D01*
X94333816Y-96509728D01*
X94333817Y-96509724D01*
X94335044Y-96506762D01*
X94355682Y-96350000D01*
X94347477Y-96287674D01*
X94335463Y-96196420D01*
X94335463Y-96196419D01*
X94335044Y-96193238D01*
X94333817Y-96190276D01*
X94333816Y-96190272D01*
X94275765Y-96050125D01*
X94275763Y-96050122D01*
X94274536Y-96047159D01*
X94178282Y-95921718D01*
X94136617Y-95889747D01*
X94055390Y-95827420D01*
X94052841Y-95825464D01*
X94049878Y-95824237D01*
X94049875Y-95824235D01*
X93909728Y-95766184D01*
X93909724Y-95766183D01*
X93906762Y-95764956D01*
X93903581Y-95764537D01*
X93903580Y-95764537D01*
X93753183Y-95744737D01*
X93750000Y-95744318D01*
X93746817Y-95744737D01*
X93596420Y-95764537D01*
X93596419Y-95764537D01*
X93593238Y-95764956D01*
X93590276Y-95766183D01*
X93590272Y-95766184D01*
X93450125Y-95824235D01*
X93450122Y-95824237D01*
X93447159Y-95825464D01*
X93444610Y-95827420D01*
X93363384Y-95889747D01*
X93321718Y-95921718D01*
X93225464Y-96047159D01*
X93224237Y-96050122D01*
X93224235Y-96050125D01*
X93166184Y-96190272D01*
X93166183Y-96190276D01*
X93164956Y-96193238D01*
X93164537Y-96196419D01*
X93164537Y-96196420D01*
X93152523Y-96287674D01*
X93144318Y-96350000D01*
X81625500Y-96350000D01*
X81625500Y-96040568D01*
X89346173Y-96040568D01*
X89347198Y-96047957D01*
X89349900Y-96050000D01*
X90240253Y-96050000D01*
X90247145Y-96047145D01*
X90250000Y-96040253D01*
X90650000Y-96040253D01*
X90652855Y-96047145D01*
X90659747Y-96050000D01*
X91546389Y-96050000D01*
X91553281Y-96047145D01*
X91555056Y-96042860D01*
X91548949Y-96002479D01*
X91547722Y-95997701D01*
X91479287Y-95811701D01*
X91477120Y-95807256D01*
X91429035Y-95729704D01*
X107300000Y-95729704D01*
X107315225Y-95806242D01*
X107329577Y-95840890D01*
X107372931Y-95905773D01*
X107594227Y-96127069D01*
X107659110Y-96170423D01*
X107693758Y-96184775D01*
X107696121Y-96185245D01*
X107696124Y-96185246D01*
X107721392Y-96190272D01*
X107770296Y-96200000D01*
X108153628Y-96200000D01*
X108160023Y-96200419D01*
X108200000Y-96205682D01*
X108239977Y-96200419D01*
X108246372Y-96200000D01*
X112896862Y-96200000D01*
X112931510Y-96214352D01*
X113035648Y-96318490D01*
X113050000Y-96353138D01*
X113050000Y-97729704D01*
X113050471Y-97732070D01*
X113060190Y-97780928D01*
X113065225Y-97806242D01*
X113079577Y-97840890D01*
X113122931Y-97905773D01*
X113344227Y-98127069D01*
X113409110Y-98170423D01*
X113443758Y-98184775D01*
X113446121Y-98185245D01*
X113446124Y-98185246D01*
X113482027Y-98192388D01*
X113520296Y-98200000D01*
X118729704Y-98200000D01*
X118767973Y-98192387D01*
X118803876Y-98185246D01*
X118803879Y-98185245D01*
X118806242Y-98184775D01*
X118840890Y-98170423D01*
X118905773Y-98127069D01*
X119127069Y-97905773D01*
X119170423Y-97840890D01*
X119184775Y-97806242D01*
X119189811Y-97780928D01*
X119199529Y-97732070D01*
X119200000Y-97729704D01*
X119200000Y-93520296D01*
X119184775Y-93443758D01*
X119170423Y-93409110D01*
X119127069Y-93344227D01*
X118655773Y-92872931D01*
X118590890Y-92829577D01*
X118556242Y-92815225D01*
X118553879Y-92814755D01*
X118553876Y-92814754D01*
X118517973Y-92807613D01*
X118479704Y-92800000D01*
X108246372Y-92800000D01*
X108239976Y-92799581D01*
X108203183Y-92794737D01*
X108200000Y-92794318D01*
X108196817Y-92794737D01*
X108160024Y-92799581D01*
X108153628Y-92800000D01*
X107770296Y-92800000D01*
X107732027Y-92807613D01*
X107696124Y-92814754D01*
X107696121Y-92814755D01*
X107693758Y-92815225D01*
X107659110Y-92829577D01*
X107594227Y-92872931D01*
X107372931Y-93094227D01*
X107329577Y-93159110D01*
X107315225Y-93193758D01*
X107300000Y-93270296D01*
X107300000Y-95729704D01*
X91429035Y-95729704D01*
X91372679Y-95638811D01*
X91369672Y-95634908D01*
X91233497Y-95490906D01*
X91229755Y-95487676D01*
X91067412Y-95374001D01*
X91063097Y-95371590D01*
X90881209Y-95292880D01*
X90876495Y-95291386D01*
X90681911Y-95250734D01*
X90678192Y-95250251D01*
X90674034Y-95250033D01*
X90672779Y-95250000D01*
X90659747Y-95250000D01*
X90652855Y-95252855D01*
X90650000Y-95259747D01*
X90650000Y-96040253D01*
X90250000Y-96040253D01*
X90250000Y-95262208D01*
X90247145Y-95255316D01*
X90242172Y-95253256D01*
X90125359Y-95265122D01*
X90120514Y-95266116D01*
X89931396Y-95325383D01*
X89926854Y-95327330D01*
X89753513Y-95423413D01*
X89749459Y-95426231D01*
X89598981Y-95555207D01*
X89595571Y-95558787D01*
X89474101Y-95715386D01*
X89471484Y-95719574D01*
X89383978Y-95897407D01*
X89382259Y-95902029D01*
X89346173Y-96040568D01*
X81625500Y-96040568D01*
X81625500Y-89824500D01*
X81639852Y-89789852D01*
X81674500Y-89775500D01*
X81953834Y-89775500D01*
X81954973Y-89775392D01*
X81954980Y-89775392D01*
X81982397Y-89772800D01*
X81985369Y-89772519D01*
X82017578Y-89761208D01*
X82109722Y-89728850D01*
X82109723Y-89728849D01*
X82113184Y-89727634D01*
X82222150Y-89647150D01*
X82302634Y-89538184D01*
X82326464Y-89470327D01*
X82346529Y-89413188D01*
X82347519Y-89410369D01*
X82347800Y-89407397D01*
X82350392Y-89379980D01*
X82350392Y-89379973D01*
X82350500Y-89378834D01*
X82350500Y-88776841D01*
X82749500Y-88776841D01*
X82749616Y-88778021D01*
X82749616Y-88778027D01*
X82752538Y-88807828D01*
X82764520Y-88930030D01*
X82765209Y-88932312D01*
X82765210Y-88932317D01*
X82793645Y-89026495D01*
X82824065Y-89127251D01*
X82825188Y-89129363D01*
X82919658Y-89307038D01*
X82919661Y-89307042D01*
X82920782Y-89309151D01*
X83050989Y-89468800D01*
X83209725Y-89600118D01*
X83390945Y-89698103D01*
X83587746Y-89759023D01*
X83590121Y-89759273D01*
X83590123Y-89759273D01*
X83790248Y-89780307D01*
X83790253Y-89780307D01*
X83792631Y-89780557D01*
X83795016Y-89780340D01*
X83795021Y-89780340D01*
X83895214Y-89771222D01*
X83997797Y-89761886D01*
X84190889Y-89705056D01*
X84193125Y-89704398D01*
X84193127Y-89704397D01*
X84195428Y-89703720D01*
X84267537Y-89666022D01*
X84375881Y-89609381D01*
X84375883Y-89609380D01*
X84377998Y-89608274D01*
X84488197Y-89519672D01*
X84536688Y-89480685D01*
X84536691Y-89480682D01*
X84538553Y-89479185D01*
X84548825Y-89466944D01*
X84596297Y-89410369D01*
X84670976Y-89321370D01*
X84728127Y-89217412D01*
X84769072Y-89142934D01*
X84769073Y-89142932D01*
X84770224Y-89140838D01*
X84775261Y-89124961D01*
X84805000Y-89031209D01*
X84832516Y-88944468D01*
X84845141Y-88831911D01*
X84850348Y-88785495D01*
X84850348Y-88785487D01*
X84850500Y-88784136D01*
X84850500Y-88776841D01*
X85249500Y-88776841D01*
X85249616Y-88778021D01*
X85249616Y-88778027D01*
X85252538Y-88807828D01*
X85264520Y-88930030D01*
X85265209Y-88932312D01*
X85265210Y-88932317D01*
X85293645Y-89026495D01*
X85324065Y-89127251D01*
X85325188Y-89129363D01*
X85419658Y-89307038D01*
X85419661Y-89307042D01*
X85420782Y-89309151D01*
X85550989Y-89468800D01*
X85709725Y-89600118D01*
X85890945Y-89698103D01*
X86087746Y-89759023D01*
X86090121Y-89759273D01*
X86090123Y-89759273D01*
X86290248Y-89780307D01*
X86290253Y-89780307D01*
X86292631Y-89780557D01*
X86295016Y-89780340D01*
X86295021Y-89780340D01*
X86395214Y-89771222D01*
X86497797Y-89761886D01*
X86690889Y-89705056D01*
X86693125Y-89704398D01*
X86693127Y-89704397D01*
X86695428Y-89703720D01*
X86767537Y-89666022D01*
X86875881Y-89609381D01*
X86875883Y-89609380D01*
X86877998Y-89608274D01*
X86988197Y-89519672D01*
X87036688Y-89480685D01*
X87036691Y-89480682D01*
X87038553Y-89479185D01*
X87048825Y-89466944D01*
X87096297Y-89410369D01*
X87170976Y-89321370D01*
X87228127Y-89217412D01*
X87269072Y-89142934D01*
X87269073Y-89142932D01*
X87270224Y-89140838D01*
X87275261Y-89124961D01*
X87305000Y-89031209D01*
X87332516Y-88944468D01*
X87345141Y-88831911D01*
X87350348Y-88785495D01*
X87350348Y-88785487D01*
X87350500Y-88784136D01*
X87350500Y-88776841D01*
X87749500Y-88776841D01*
X87749616Y-88778021D01*
X87749616Y-88778027D01*
X87752538Y-88807828D01*
X87764520Y-88930030D01*
X87765209Y-88932312D01*
X87765210Y-88932317D01*
X87793645Y-89026495D01*
X87824065Y-89127251D01*
X87825188Y-89129363D01*
X87919658Y-89307038D01*
X87919661Y-89307042D01*
X87920782Y-89309151D01*
X88050989Y-89468800D01*
X88209725Y-89600118D01*
X88390945Y-89698103D01*
X88587746Y-89759023D01*
X88590121Y-89759273D01*
X88590123Y-89759273D01*
X88790248Y-89780307D01*
X88790253Y-89780307D01*
X88792631Y-89780557D01*
X88795016Y-89780340D01*
X88795021Y-89780340D01*
X88895214Y-89771222D01*
X88997797Y-89761886D01*
X89190889Y-89705056D01*
X89193125Y-89704398D01*
X89193127Y-89704397D01*
X89195428Y-89703720D01*
X89267537Y-89666022D01*
X89375881Y-89609381D01*
X89375883Y-89609380D01*
X89377998Y-89608274D01*
X89488197Y-89519672D01*
X89536688Y-89480685D01*
X89536691Y-89480682D01*
X89538553Y-89479185D01*
X89548825Y-89466944D01*
X89596297Y-89410369D01*
X89670976Y-89321370D01*
X89728127Y-89217412D01*
X89769072Y-89142934D01*
X89769073Y-89142932D01*
X89770224Y-89140838D01*
X89775261Y-89124961D01*
X89805000Y-89031209D01*
X89832516Y-88944468D01*
X89845141Y-88831911D01*
X89850348Y-88785495D01*
X89850348Y-88785487D01*
X89850500Y-88784136D01*
X89850500Y-88776841D01*
X90249500Y-88776841D01*
X90249616Y-88778021D01*
X90249616Y-88778027D01*
X90252538Y-88807828D01*
X90264520Y-88930030D01*
X90265209Y-88932312D01*
X90265210Y-88932317D01*
X90293645Y-89026495D01*
X90324065Y-89127251D01*
X90325188Y-89129363D01*
X90419658Y-89307038D01*
X90419661Y-89307042D01*
X90420782Y-89309151D01*
X90550989Y-89468800D01*
X90709725Y-89600118D01*
X90890945Y-89698103D01*
X91087746Y-89759023D01*
X91090121Y-89759273D01*
X91090123Y-89759273D01*
X91290248Y-89780307D01*
X91290253Y-89780307D01*
X91292631Y-89780557D01*
X91295016Y-89780340D01*
X91295021Y-89780340D01*
X91395214Y-89771222D01*
X91497797Y-89761886D01*
X91690889Y-89705056D01*
X91693125Y-89704398D01*
X91693127Y-89704397D01*
X91695428Y-89703720D01*
X91767537Y-89666022D01*
X91875881Y-89609381D01*
X91875883Y-89609380D01*
X91877998Y-89608274D01*
X91988197Y-89519672D01*
X92036688Y-89480685D01*
X92036691Y-89480682D01*
X92038553Y-89479185D01*
X92048825Y-89466944D01*
X92096297Y-89410369D01*
X92170976Y-89321370D01*
X92228127Y-89217412D01*
X92269072Y-89142934D01*
X92269073Y-89142932D01*
X92270224Y-89140838D01*
X92275261Y-89124961D01*
X92305000Y-89031209D01*
X92332516Y-88944468D01*
X92345141Y-88831911D01*
X92350348Y-88785495D01*
X92350348Y-88785487D01*
X92350500Y-88784136D01*
X92350500Y-88776841D01*
X92749500Y-88776841D01*
X92749616Y-88778021D01*
X92749616Y-88778027D01*
X92752538Y-88807828D01*
X92764520Y-88930030D01*
X92765209Y-88932312D01*
X92765210Y-88932317D01*
X92793645Y-89026495D01*
X92824065Y-89127251D01*
X92825188Y-89129363D01*
X92919658Y-89307038D01*
X92919661Y-89307042D01*
X92920782Y-89309151D01*
X93050989Y-89468800D01*
X93209725Y-89600118D01*
X93390945Y-89698103D01*
X93587746Y-89759023D01*
X93590121Y-89759273D01*
X93590123Y-89759273D01*
X93790248Y-89780307D01*
X93790253Y-89780307D01*
X93792631Y-89780557D01*
X93795016Y-89780340D01*
X93795021Y-89780340D01*
X93895214Y-89771222D01*
X93997797Y-89761886D01*
X94190889Y-89705056D01*
X94193125Y-89704398D01*
X94193127Y-89704397D01*
X94195428Y-89703720D01*
X94267537Y-89666022D01*
X94375881Y-89609381D01*
X94375883Y-89609380D01*
X94377998Y-89608274D01*
X94488197Y-89519672D01*
X94536688Y-89480685D01*
X94536691Y-89480682D01*
X94538553Y-89479185D01*
X94548825Y-89466944D01*
X94596297Y-89410369D01*
X94670976Y-89321370D01*
X94728127Y-89217412D01*
X94769072Y-89142934D01*
X94769073Y-89142932D01*
X94770224Y-89140838D01*
X94775261Y-89124961D01*
X94805000Y-89031209D01*
X94832516Y-88944468D01*
X94845141Y-88831911D01*
X94850348Y-88785495D01*
X94850348Y-88785487D01*
X94850500Y-88784136D01*
X94850500Y-88776841D01*
X95249500Y-88776841D01*
X95249616Y-88778021D01*
X95249616Y-88778027D01*
X95252538Y-88807828D01*
X95264520Y-88930030D01*
X95265209Y-88932312D01*
X95265210Y-88932317D01*
X95293645Y-89026495D01*
X95324065Y-89127251D01*
X95325188Y-89129363D01*
X95419658Y-89307038D01*
X95419661Y-89307042D01*
X95420782Y-89309151D01*
X95550989Y-89468800D01*
X95709725Y-89600118D01*
X95890945Y-89698103D01*
X96087746Y-89759023D01*
X96090121Y-89759273D01*
X96090123Y-89759273D01*
X96290248Y-89780307D01*
X96290253Y-89780307D01*
X96292631Y-89780557D01*
X96295016Y-89780340D01*
X96295021Y-89780340D01*
X96395214Y-89771222D01*
X96497797Y-89761886D01*
X96690889Y-89705056D01*
X96693125Y-89704398D01*
X96693127Y-89704397D01*
X96695428Y-89703720D01*
X96767537Y-89666022D01*
X96875881Y-89609381D01*
X96875883Y-89609380D01*
X96877998Y-89608274D01*
X96988197Y-89519672D01*
X97036688Y-89480685D01*
X97036691Y-89480682D01*
X97038553Y-89479185D01*
X97048825Y-89466944D01*
X97096297Y-89410369D01*
X97170976Y-89321370D01*
X97228127Y-89217412D01*
X97269072Y-89142934D01*
X97269073Y-89142932D01*
X97270224Y-89140838D01*
X97275261Y-89124961D01*
X97305000Y-89031209D01*
X97332516Y-88944468D01*
X97345141Y-88831911D01*
X97350348Y-88785495D01*
X97350348Y-88785487D01*
X97350500Y-88784136D01*
X97350500Y-88776841D01*
X97749500Y-88776841D01*
X97749616Y-88778021D01*
X97749616Y-88778027D01*
X97752538Y-88807828D01*
X97764520Y-88930030D01*
X97765209Y-88932312D01*
X97765210Y-88932317D01*
X97793645Y-89026495D01*
X97824065Y-89127251D01*
X97825188Y-89129363D01*
X97919658Y-89307038D01*
X97919661Y-89307042D01*
X97920782Y-89309151D01*
X98050989Y-89468800D01*
X98209725Y-89600118D01*
X98390945Y-89698103D01*
X98587746Y-89759023D01*
X98590121Y-89759273D01*
X98590123Y-89759273D01*
X98790248Y-89780307D01*
X98790253Y-89780307D01*
X98792631Y-89780557D01*
X98795016Y-89780340D01*
X98795021Y-89780340D01*
X98895214Y-89771222D01*
X98997797Y-89761886D01*
X99190889Y-89705056D01*
X99193125Y-89704398D01*
X99193127Y-89704397D01*
X99195428Y-89703720D01*
X99267537Y-89666022D01*
X99375881Y-89609381D01*
X99375883Y-89609380D01*
X99377998Y-89608274D01*
X99488197Y-89519672D01*
X99536688Y-89480685D01*
X99536691Y-89480682D01*
X99538553Y-89479185D01*
X99548825Y-89466944D01*
X99596297Y-89410369D01*
X99670976Y-89321370D01*
X99728127Y-89217412D01*
X99769072Y-89142934D01*
X99769073Y-89142932D01*
X99770224Y-89140838D01*
X99775261Y-89124961D01*
X99805000Y-89031209D01*
X99832516Y-88944468D01*
X99845141Y-88831911D01*
X99847843Y-88807828D01*
X100303256Y-88807828D01*
X100315122Y-88924641D01*
X100316116Y-88929486D01*
X100375383Y-89118604D01*
X100377330Y-89123146D01*
X100473413Y-89296487D01*
X100476231Y-89300541D01*
X100605207Y-89451019D01*
X100608787Y-89454429D01*
X100765386Y-89575899D01*
X100769574Y-89578516D01*
X100947407Y-89666022D01*
X100952029Y-89667741D01*
X101090568Y-89703827D01*
X101097957Y-89702802D01*
X101100000Y-89700100D01*
X101100000Y-89696389D01*
X101500000Y-89696389D01*
X101502855Y-89703281D01*
X101507140Y-89705056D01*
X101547521Y-89698949D01*
X101552299Y-89697722D01*
X101738299Y-89629287D01*
X101742744Y-89627120D01*
X101911189Y-89522679D01*
X101915092Y-89519672D01*
X102059094Y-89383497D01*
X102062324Y-89379755D01*
X102175999Y-89217412D01*
X102178410Y-89213097D01*
X102257120Y-89031209D01*
X102258614Y-89026495D01*
X102299266Y-88831911D01*
X102299749Y-88828192D01*
X102299967Y-88824034D01*
X102300000Y-88822779D01*
X102300000Y-88809747D01*
X102299205Y-88807828D01*
X102803256Y-88807828D01*
X102815122Y-88924641D01*
X102816116Y-88929486D01*
X102875383Y-89118604D01*
X102877330Y-89123146D01*
X102973413Y-89296487D01*
X102976231Y-89300541D01*
X103105207Y-89451019D01*
X103108787Y-89454429D01*
X103265386Y-89575899D01*
X103269574Y-89578516D01*
X103447407Y-89666022D01*
X103452029Y-89667741D01*
X103590568Y-89703827D01*
X103597957Y-89702802D01*
X103600000Y-89700100D01*
X103600000Y-89696389D01*
X104000000Y-89696389D01*
X104002855Y-89703281D01*
X104007140Y-89705056D01*
X104047521Y-89698949D01*
X104052299Y-89697722D01*
X104238299Y-89629287D01*
X104242744Y-89627120D01*
X104411189Y-89522679D01*
X104415092Y-89519672D01*
X104559094Y-89383497D01*
X104562324Y-89379755D01*
X104675999Y-89217412D01*
X104678410Y-89213097D01*
X104757120Y-89031209D01*
X104758614Y-89026495D01*
X104799266Y-88831911D01*
X104799749Y-88828192D01*
X104799967Y-88824034D01*
X104800000Y-88822779D01*
X104800000Y-88809747D01*
X104799205Y-88807828D01*
X105303256Y-88807828D01*
X105315122Y-88924641D01*
X105316116Y-88929486D01*
X105375383Y-89118604D01*
X105377330Y-89123146D01*
X105473413Y-89296487D01*
X105476231Y-89300541D01*
X105605207Y-89451019D01*
X105608787Y-89454429D01*
X105765386Y-89575899D01*
X105769574Y-89578516D01*
X105947407Y-89666022D01*
X105952029Y-89667741D01*
X106090568Y-89703827D01*
X106097957Y-89702802D01*
X106100000Y-89700100D01*
X106100000Y-89696389D01*
X106500000Y-89696389D01*
X106502855Y-89703281D01*
X106507140Y-89705056D01*
X106547521Y-89698949D01*
X106552299Y-89697722D01*
X106738299Y-89629287D01*
X106742744Y-89627120D01*
X106911189Y-89522679D01*
X106915092Y-89519672D01*
X107059094Y-89383497D01*
X107062324Y-89379755D01*
X107175999Y-89217412D01*
X107178410Y-89213097D01*
X107257120Y-89031209D01*
X107258614Y-89026495D01*
X107299266Y-88831911D01*
X107299749Y-88828192D01*
X107299967Y-88824034D01*
X107300000Y-88822779D01*
X107300000Y-88809747D01*
X107297145Y-88802855D01*
X107290253Y-88800000D01*
X106509747Y-88800000D01*
X106502855Y-88802855D01*
X106500000Y-88809747D01*
X106500000Y-89696389D01*
X106100000Y-89696389D01*
X106100000Y-88809747D01*
X106097145Y-88802855D01*
X106090253Y-88800000D01*
X105312208Y-88800000D01*
X105305316Y-88802855D01*
X105303256Y-88807828D01*
X104799205Y-88807828D01*
X104797145Y-88802855D01*
X104790253Y-88800000D01*
X104009747Y-88800000D01*
X104002855Y-88802855D01*
X104000000Y-88809747D01*
X104000000Y-89696389D01*
X103600000Y-89696389D01*
X103600000Y-88809747D01*
X103597145Y-88802855D01*
X103590253Y-88800000D01*
X102812208Y-88800000D01*
X102805316Y-88802855D01*
X102803256Y-88807828D01*
X102299205Y-88807828D01*
X102297145Y-88802855D01*
X102290253Y-88800000D01*
X101509747Y-88800000D01*
X101502855Y-88802855D01*
X101500000Y-88809747D01*
X101500000Y-89696389D01*
X101100000Y-89696389D01*
X101100000Y-88809747D01*
X101097145Y-88802855D01*
X101090253Y-88800000D01*
X100312208Y-88800000D01*
X100305316Y-88802855D01*
X100303256Y-88807828D01*
X99847843Y-88807828D01*
X99850348Y-88785495D01*
X99850348Y-88785487D01*
X99850500Y-88784136D01*
X99850500Y-88423159D01*
X99849652Y-88414505D01*
X99847274Y-88390253D01*
X100300000Y-88390253D01*
X100302855Y-88397145D01*
X100309747Y-88400000D01*
X101090253Y-88400000D01*
X101097145Y-88397145D01*
X101100000Y-88390253D01*
X101500000Y-88390253D01*
X101502855Y-88397145D01*
X101509747Y-88400000D01*
X102287792Y-88400000D01*
X102294684Y-88397145D01*
X102296744Y-88392172D01*
X102296549Y-88390253D01*
X102800000Y-88390253D01*
X102802855Y-88397145D01*
X102809747Y-88400000D01*
X103590253Y-88400000D01*
X103597145Y-88397145D01*
X103600000Y-88390253D01*
X104000000Y-88390253D01*
X104002855Y-88397145D01*
X104009747Y-88400000D01*
X104787792Y-88400000D01*
X104794684Y-88397145D01*
X104796744Y-88392172D01*
X104796549Y-88390253D01*
X105300000Y-88390253D01*
X105302855Y-88397145D01*
X105309747Y-88400000D01*
X106090253Y-88400000D01*
X106097145Y-88397145D01*
X106100000Y-88390253D01*
X106500000Y-88390253D01*
X106502855Y-88397145D01*
X106509747Y-88400000D01*
X107287792Y-88400000D01*
X107294684Y-88397145D01*
X107296744Y-88392172D01*
X107284878Y-88275359D01*
X107283884Y-88270514D01*
X107224617Y-88081396D01*
X107222670Y-88076854D01*
X107126587Y-87903513D01*
X107123769Y-87899459D01*
X106994793Y-87748981D01*
X106991213Y-87745571D01*
X106834614Y-87624101D01*
X106830426Y-87621484D01*
X106652593Y-87533978D01*
X106647971Y-87532259D01*
X106509432Y-87496173D01*
X106502043Y-87497198D01*
X106500000Y-87499900D01*
X106500000Y-88390253D01*
X106100000Y-88390253D01*
X106100000Y-87503611D01*
X106097145Y-87496719D01*
X106092860Y-87494944D01*
X106052479Y-87501051D01*
X106047701Y-87502278D01*
X105861701Y-87570713D01*
X105857256Y-87572880D01*
X105688811Y-87677321D01*
X105684908Y-87680328D01*
X105540906Y-87816503D01*
X105537676Y-87820245D01*
X105424001Y-87982588D01*
X105421590Y-87986903D01*
X105342880Y-88168791D01*
X105341386Y-88173505D01*
X105300734Y-88368089D01*
X105300251Y-88371808D01*
X105300033Y-88375966D01*
X105300000Y-88377221D01*
X105300000Y-88390253D01*
X104796549Y-88390253D01*
X104784878Y-88275359D01*
X104783884Y-88270514D01*
X104724617Y-88081396D01*
X104722670Y-88076854D01*
X104626587Y-87903513D01*
X104623769Y-87899459D01*
X104494793Y-87748981D01*
X104491213Y-87745571D01*
X104334614Y-87624101D01*
X104330426Y-87621484D01*
X104152593Y-87533978D01*
X104147971Y-87532259D01*
X104009432Y-87496173D01*
X104002043Y-87497198D01*
X104000000Y-87499900D01*
X104000000Y-88390253D01*
X103600000Y-88390253D01*
X103600000Y-87503611D01*
X103597145Y-87496719D01*
X103592860Y-87494944D01*
X103552479Y-87501051D01*
X103547701Y-87502278D01*
X103361701Y-87570713D01*
X103357256Y-87572880D01*
X103188811Y-87677321D01*
X103184908Y-87680328D01*
X103040906Y-87816503D01*
X103037676Y-87820245D01*
X102924001Y-87982588D01*
X102921590Y-87986903D01*
X102842880Y-88168791D01*
X102841386Y-88173505D01*
X102800734Y-88368089D01*
X102800251Y-88371808D01*
X102800033Y-88375966D01*
X102800000Y-88377221D01*
X102800000Y-88390253D01*
X102296549Y-88390253D01*
X102284878Y-88275359D01*
X102283884Y-88270514D01*
X102224617Y-88081396D01*
X102222670Y-88076854D01*
X102126587Y-87903513D01*
X102123769Y-87899459D01*
X101994793Y-87748981D01*
X101991213Y-87745571D01*
X101834614Y-87624101D01*
X101830426Y-87621484D01*
X101652593Y-87533978D01*
X101647971Y-87532259D01*
X101509432Y-87496173D01*
X101502043Y-87497198D01*
X101500000Y-87499900D01*
X101500000Y-88390253D01*
X101100000Y-88390253D01*
X101100000Y-87503611D01*
X101097145Y-87496719D01*
X101092860Y-87494944D01*
X101052479Y-87501051D01*
X101047701Y-87502278D01*
X100861701Y-87570713D01*
X100857256Y-87572880D01*
X100688811Y-87677321D01*
X100684908Y-87680328D01*
X100540906Y-87816503D01*
X100537676Y-87820245D01*
X100424001Y-87982588D01*
X100421590Y-87986903D01*
X100342880Y-88168791D01*
X100341386Y-88173505D01*
X100300734Y-88368089D01*
X100300251Y-88371808D01*
X100300033Y-88375966D01*
X100300000Y-88377221D01*
X100300000Y-88390253D01*
X99847274Y-88390253D01*
X99835713Y-88272351D01*
X99835480Y-88269970D01*
X99830433Y-88253251D01*
X99802624Y-88161146D01*
X99775935Y-88072749D01*
X99767596Y-88057066D01*
X99680342Y-87892962D01*
X99680339Y-87892958D01*
X99679218Y-87890849D01*
X99549011Y-87731200D01*
X99390275Y-87599882D01*
X99209055Y-87501897D01*
X99012254Y-87440977D01*
X99009879Y-87440727D01*
X99009877Y-87440727D01*
X98809752Y-87419693D01*
X98809747Y-87419693D01*
X98807369Y-87419443D01*
X98804984Y-87419660D01*
X98804979Y-87419660D01*
X98708165Y-87428471D01*
X98602203Y-87438114D01*
X98485825Y-87472366D01*
X98406875Y-87495602D01*
X98406873Y-87495603D01*
X98404572Y-87496280D01*
X98402446Y-87497391D01*
X98402447Y-87497391D01*
X98258051Y-87572880D01*
X98222002Y-87591726D01*
X98140206Y-87657491D01*
X98063312Y-87719315D01*
X98063309Y-87719318D01*
X98061447Y-87720815D01*
X98059908Y-87722649D01*
X98059907Y-87722650D01*
X98040674Y-87745571D01*
X97929024Y-87878630D01*
X97927869Y-87880731D01*
X97869501Y-87986903D01*
X97829776Y-88059162D01*
X97829052Y-88061443D01*
X97829052Y-88061444D01*
X97824164Y-88076854D01*
X97767484Y-88255532D01*
X97765260Y-88275359D01*
X97751600Y-88397145D01*
X97749500Y-88415864D01*
X97749500Y-88776841D01*
X97350500Y-88776841D01*
X97350500Y-88423159D01*
X97349652Y-88414505D01*
X97335713Y-88272351D01*
X97335480Y-88269970D01*
X97330433Y-88253251D01*
X97302624Y-88161146D01*
X97275935Y-88072749D01*
X97267596Y-88057066D01*
X97180342Y-87892962D01*
X97180339Y-87892958D01*
X97179218Y-87890849D01*
X97049011Y-87731200D01*
X96890275Y-87599882D01*
X96709055Y-87501897D01*
X96512254Y-87440977D01*
X96509879Y-87440727D01*
X96509877Y-87440727D01*
X96309752Y-87419693D01*
X96309747Y-87419693D01*
X96307369Y-87419443D01*
X96304984Y-87419660D01*
X96304979Y-87419660D01*
X96208165Y-87428471D01*
X96102203Y-87438114D01*
X95985825Y-87472366D01*
X95906875Y-87495602D01*
X95906873Y-87495603D01*
X95904572Y-87496280D01*
X95902446Y-87497391D01*
X95902447Y-87497391D01*
X95758051Y-87572880D01*
X95722002Y-87591726D01*
X95640206Y-87657491D01*
X95563312Y-87719315D01*
X95563309Y-87719318D01*
X95561447Y-87720815D01*
X95559908Y-87722649D01*
X95559907Y-87722650D01*
X95540674Y-87745571D01*
X95429024Y-87878630D01*
X95427869Y-87880731D01*
X95369501Y-87986903D01*
X95329776Y-88059162D01*
X95329052Y-88061443D01*
X95329052Y-88061444D01*
X95324164Y-88076854D01*
X95267484Y-88255532D01*
X95265260Y-88275359D01*
X95251600Y-88397145D01*
X95249500Y-88415864D01*
X95249500Y-88776841D01*
X94850500Y-88776841D01*
X94850500Y-88423159D01*
X94849652Y-88414505D01*
X94835713Y-88272351D01*
X94835480Y-88269970D01*
X94830433Y-88253251D01*
X94802624Y-88161146D01*
X94775935Y-88072749D01*
X94767596Y-88057066D01*
X94680342Y-87892962D01*
X94680339Y-87892958D01*
X94679218Y-87890849D01*
X94549011Y-87731200D01*
X94390275Y-87599882D01*
X94209055Y-87501897D01*
X94012254Y-87440977D01*
X94009879Y-87440727D01*
X94009877Y-87440727D01*
X93809752Y-87419693D01*
X93809747Y-87419693D01*
X93807369Y-87419443D01*
X93804984Y-87419660D01*
X93804979Y-87419660D01*
X93708165Y-87428471D01*
X93602203Y-87438114D01*
X93485825Y-87472366D01*
X93406875Y-87495602D01*
X93406873Y-87495603D01*
X93404572Y-87496280D01*
X93402446Y-87497391D01*
X93402447Y-87497391D01*
X93258051Y-87572880D01*
X93222002Y-87591726D01*
X93140206Y-87657491D01*
X93063312Y-87719315D01*
X93063309Y-87719318D01*
X93061447Y-87720815D01*
X93059908Y-87722649D01*
X93059907Y-87722650D01*
X93040674Y-87745571D01*
X92929024Y-87878630D01*
X92927869Y-87880731D01*
X92869501Y-87986903D01*
X92829776Y-88059162D01*
X92829052Y-88061443D01*
X92829052Y-88061444D01*
X92824164Y-88076854D01*
X92767484Y-88255532D01*
X92765260Y-88275359D01*
X92751600Y-88397145D01*
X92749500Y-88415864D01*
X92749500Y-88776841D01*
X92350500Y-88776841D01*
X92350500Y-88423159D01*
X92349652Y-88414505D01*
X92335713Y-88272351D01*
X92335480Y-88269970D01*
X92330433Y-88253251D01*
X92302624Y-88161146D01*
X92275935Y-88072749D01*
X92267596Y-88057066D01*
X92180342Y-87892962D01*
X92180339Y-87892958D01*
X92179218Y-87890849D01*
X92049011Y-87731200D01*
X91890275Y-87599882D01*
X91709055Y-87501897D01*
X91512254Y-87440977D01*
X91509879Y-87440727D01*
X91509877Y-87440727D01*
X91309752Y-87419693D01*
X91309747Y-87419693D01*
X91307369Y-87419443D01*
X91304984Y-87419660D01*
X91304979Y-87419660D01*
X91208165Y-87428471D01*
X91102203Y-87438114D01*
X90985825Y-87472366D01*
X90906875Y-87495602D01*
X90906873Y-87495603D01*
X90904572Y-87496280D01*
X90902446Y-87497391D01*
X90902447Y-87497391D01*
X90758051Y-87572880D01*
X90722002Y-87591726D01*
X90640206Y-87657491D01*
X90563312Y-87719315D01*
X90563309Y-87719318D01*
X90561447Y-87720815D01*
X90559908Y-87722649D01*
X90559907Y-87722650D01*
X90540674Y-87745571D01*
X90429024Y-87878630D01*
X90427869Y-87880731D01*
X90369501Y-87986903D01*
X90329776Y-88059162D01*
X90329052Y-88061443D01*
X90329052Y-88061444D01*
X90324164Y-88076854D01*
X90267484Y-88255532D01*
X90265260Y-88275359D01*
X90251600Y-88397145D01*
X90249500Y-88415864D01*
X90249500Y-88776841D01*
X89850500Y-88776841D01*
X89850500Y-88423159D01*
X89849652Y-88414505D01*
X89835713Y-88272351D01*
X89835480Y-88269970D01*
X89830433Y-88253251D01*
X89802624Y-88161146D01*
X89775935Y-88072749D01*
X89767596Y-88057066D01*
X89680342Y-87892962D01*
X89680339Y-87892958D01*
X89679218Y-87890849D01*
X89549011Y-87731200D01*
X89390275Y-87599882D01*
X89209055Y-87501897D01*
X89012254Y-87440977D01*
X89009879Y-87440727D01*
X89009877Y-87440727D01*
X88809752Y-87419693D01*
X88809747Y-87419693D01*
X88807369Y-87419443D01*
X88804984Y-87419660D01*
X88804979Y-87419660D01*
X88708165Y-87428471D01*
X88602203Y-87438114D01*
X88485825Y-87472366D01*
X88406875Y-87495602D01*
X88406873Y-87495603D01*
X88404572Y-87496280D01*
X88402446Y-87497391D01*
X88402447Y-87497391D01*
X88258051Y-87572880D01*
X88222002Y-87591726D01*
X88140206Y-87657491D01*
X88063312Y-87719315D01*
X88063309Y-87719318D01*
X88061447Y-87720815D01*
X88059908Y-87722649D01*
X88059907Y-87722650D01*
X88040674Y-87745571D01*
X87929024Y-87878630D01*
X87927869Y-87880731D01*
X87869501Y-87986903D01*
X87829776Y-88059162D01*
X87829052Y-88061443D01*
X87829052Y-88061444D01*
X87824164Y-88076854D01*
X87767484Y-88255532D01*
X87765260Y-88275359D01*
X87751600Y-88397145D01*
X87749500Y-88415864D01*
X87749500Y-88776841D01*
X87350500Y-88776841D01*
X87350500Y-88423159D01*
X87349652Y-88414505D01*
X87335713Y-88272351D01*
X87335480Y-88269970D01*
X87330433Y-88253251D01*
X87302624Y-88161146D01*
X87275935Y-88072749D01*
X87267596Y-88057066D01*
X87180342Y-87892962D01*
X87180339Y-87892958D01*
X87179218Y-87890849D01*
X87049011Y-87731200D01*
X86890275Y-87599882D01*
X86709055Y-87501897D01*
X86512254Y-87440977D01*
X86509879Y-87440727D01*
X86509877Y-87440727D01*
X86309752Y-87419693D01*
X86309747Y-87419693D01*
X86307369Y-87419443D01*
X86304984Y-87419660D01*
X86304979Y-87419660D01*
X86208165Y-87428471D01*
X86102203Y-87438114D01*
X85985825Y-87472366D01*
X85906875Y-87495602D01*
X85906873Y-87495603D01*
X85904572Y-87496280D01*
X85902446Y-87497391D01*
X85902447Y-87497391D01*
X85758051Y-87572880D01*
X85722002Y-87591726D01*
X85640206Y-87657491D01*
X85563312Y-87719315D01*
X85563309Y-87719318D01*
X85561447Y-87720815D01*
X85559908Y-87722649D01*
X85559907Y-87722650D01*
X85540674Y-87745571D01*
X85429024Y-87878630D01*
X85427869Y-87880731D01*
X85369501Y-87986903D01*
X85329776Y-88059162D01*
X85329052Y-88061443D01*
X85329052Y-88061444D01*
X85324164Y-88076854D01*
X85267484Y-88255532D01*
X85265260Y-88275359D01*
X85251600Y-88397145D01*
X85249500Y-88415864D01*
X85249500Y-88776841D01*
X84850500Y-88776841D01*
X84850500Y-88423159D01*
X84849652Y-88414505D01*
X84835713Y-88272351D01*
X84835480Y-88269970D01*
X84830433Y-88253251D01*
X84802624Y-88161146D01*
X84775935Y-88072749D01*
X84767596Y-88057066D01*
X84680342Y-87892962D01*
X84680339Y-87892958D01*
X84679218Y-87890849D01*
X84549011Y-87731200D01*
X84390275Y-87599882D01*
X84209055Y-87501897D01*
X84012254Y-87440977D01*
X84009879Y-87440727D01*
X84009877Y-87440727D01*
X83809752Y-87419693D01*
X83809747Y-87419693D01*
X83807369Y-87419443D01*
X83804984Y-87419660D01*
X83804979Y-87419660D01*
X83708165Y-87428471D01*
X83602203Y-87438114D01*
X83485825Y-87472366D01*
X83406875Y-87495602D01*
X83406873Y-87495603D01*
X83404572Y-87496280D01*
X83402446Y-87497391D01*
X83402447Y-87497391D01*
X83258051Y-87572880D01*
X83222002Y-87591726D01*
X83140206Y-87657491D01*
X83063312Y-87719315D01*
X83063309Y-87719318D01*
X83061447Y-87720815D01*
X83059908Y-87722649D01*
X83059907Y-87722650D01*
X83040674Y-87745571D01*
X82929024Y-87878630D01*
X82927869Y-87880731D01*
X82869501Y-87986903D01*
X82829776Y-88059162D01*
X82829052Y-88061443D01*
X82829052Y-88061444D01*
X82824164Y-88076854D01*
X82767484Y-88255532D01*
X82765260Y-88275359D01*
X82751600Y-88397145D01*
X82749500Y-88415864D01*
X82749500Y-88776841D01*
X82350500Y-88776841D01*
X82350500Y-87821166D01*
X82350060Y-87816503D01*
X82347800Y-87792603D01*
X82347519Y-87789631D01*
X82332046Y-87745571D01*
X82303850Y-87665278D01*
X82303849Y-87665277D01*
X82302634Y-87661816D01*
X82222150Y-87552850D01*
X82113184Y-87472366D01*
X82109723Y-87471151D01*
X82109722Y-87471150D01*
X81988188Y-87428471D01*
X81985369Y-87427481D01*
X81982397Y-87427200D01*
X81954980Y-87424608D01*
X81954973Y-87424608D01*
X81953834Y-87424500D01*
X80646166Y-87424500D01*
X80645027Y-87424608D01*
X80645020Y-87424608D01*
X80617603Y-87427200D01*
X80614631Y-87427481D01*
X80611812Y-87428471D01*
X80490278Y-87471150D01*
X80490277Y-87471151D01*
X80486816Y-87472366D01*
X80377850Y-87552850D01*
X80297366Y-87661816D01*
X80296151Y-87665277D01*
X80296150Y-87665278D01*
X80267954Y-87745571D01*
X80252481Y-87789631D01*
X80252200Y-87792603D01*
X80249941Y-87816503D01*
X80249500Y-87821166D01*
X80249500Y-89378834D01*
X80249608Y-89379973D01*
X80249608Y-89379980D01*
X80252200Y-89407397D01*
X80252481Y-89410369D01*
X80253471Y-89413188D01*
X80273537Y-89470327D01*
X80297366Y-89538184D01*
X80377850Y-89647150D01*
X80486816Y-89727634D01*
X80490277Y-89728849D01*
X80490278Y-89728850D01*
X80582422Y-89761208D01*
X80614631Y-89772519D01*
X80617603Y-89772800D01*
X80645020Y-89775392D01*
X80645027Y-89775392D01*
X80646166Y-89775500D01*
X80925500Y-89775500D01*
X80960148Y-89789852D01*
X80974500Y-89824500D01*
X80974500Y-107244877D01*
X80960148Y-107279525D01*
X79281404Y-108958270D01*
X79278252Y-108961158D01*
X79250093Y-108984786D01*
X79250090Y-108984789D01*
X79246806Y-108987545D01*
X79244662Y-108991259D01*
X79226284Y-109023091D01*
X79223988Y-109026695D01*
X79200446Y-109060316D01*
X79198351Y-109068135D01*
X79193457Y-109079948D01*
X79189412Y-109086955D01*
X79188667Y-109091178D01*
X79188667Y-109091179D01*
X79182286Y-109127372D01*
X79181361Y-109131542D01*
X79170736Y-109171193D01*
X79171109Y-109175458D01*
X79171109Y-109175460D01*
X79174314Y-109212088D01*
X79174500Y-109216359D01*
X79174500Y-111318687D01*
X79160148Y-111353335D01*
X79155329Y-111357561D01*
X79071718Y-111421718D01*
X78975464Y-111547159D01*
X78974237Y-111550122D01*
X78974235Y-111550125D01*
X78916184Y-111690272D01*
X78916183Y-111690276D01*
X78914956Y-111693238D01*
X78894318Y-111850000D01*
X73000000Y-111850000D01*
X73000000Y-105000000D01*
X71555089Y-105000000D01*
X71520441Y-104985648D01*
X71506089Y-104951000D01*
X71520441Y-104916352D01*
X71537051Y-104905441D01*
X71562763Y-104895261D01*
X71568121Y-104892316D01*
X71696002Y-104799404D01*
X71700455Y-104795222D01*
X71801211Y-104673429D01*
X71804486Y-104668268D01*
X71871134Y-104526636D01*
X71870891Y-104525462D01*
X73963309Y-104525462D01*
X73986235Y-104596023D01*
X73988842Y-104601562D01*
X74073535Y-104735017D01*
X74077430Y-104739726D01*
X74192658Y-104847931D01*
X74197604Y-104851525D01*
X74336118Y-104927674D01*
X74341798Y-104929923D01*
X74494901Y-104969234D01*
X74500970Y-104970000D01*
X74920253Y-104970000D01*
X74927145Y-104967145D01*
X74930000Y-104960253D01*
X75330000Y-104960253D01*
X75332855Y-104967145D01*
X75339747Y-104970000D01*
X75719363Y-104970000D01*
X75722410Y-104969808D01*
X75839878Y-104954969D01*
X75845797Y-104953449D01*
X75992763Y-104895261D01*
X75998121Y-104892316D01*
X76126002Y-104799404D01*
X76130455Y-104795222D01*
X76231211Y-104673429D01*
X76234486Y-104668268D01*
X76301134Y-104526636D01*
X76300230Y-104522269D01*
X76296777Y-104520000D01*
X75339747Y-104520000D01*
X75332855Y-104522855D01*
X75330000Y-104529747D01*
X75330000Y-104960253D01*
X74930000Y-104960253D01*
X74930000Y-104529747D01*
X74927145Y-104522855D01*
X74920253Y-104520000D01*
X73971281Y-104520000D01*
X73964389Y-104522855D01*
X73963309Y-104525462D01*
X71870891Y-104525462D01*
X71870230Y-104522269D01*
X71866777Y-104520000D01*
X70799000Y-104520000D01*
X70764352Y-104505648D01*
X70750000Y-104471000D01*
X70750000Y-104110253D01*
X71150000Y-104110253D01*
X71152855Y-104117145D01*
X71159747Y-104120000D01*
X71858719Y-104120000D01*
X71865611Y-104117145D01*
X71866691Y-104114538D01*
X71866310Y-104113364D01*
X73958866Y-104113364D01*
X73959770Y-104117731D01*
X73963223Y-104120000D01*
X74920253Y-104120000D01*
X74927145Y-104117145D01*
X74930000Y-104110253D01*
X75330000Y-104110253D01*
X75332855Y-104117145D01*
X75339747Y-104120000D01*
X76288719Y-104120000D01*
X76295611Y-104117145D01*
X76296691Y-104114538D01*
X76273765Y-104043977D01*
X76271158Y-104038438D01*
X76186465Y-103904983D01*
X76182570Y-103900274D01*
X76067342Y-103792069D01*
X76062396Y-103788475D01*
X75923882Y-103712326D01*
X75918202Y-103710077D01*
X75765099Y-103670766D01*
X75759030Y-103670000D01*
X75339747Y-103670000D01*
X75332855Y-103672855D01*
X75330000Y-103679747D01*
X75330000Y-104110253D01*
X74930000Y-104110253D01*
X74930000Y-103679747D01*
X74927145Y-103672855D01*
X74920253Y-103670000D01*
X74540637Y-103670000D01*
X74537590Y-103670192D01*
X74420122Y-103685031D01*
X74414203Y-103686551D01*
X74267237Y-103744739D01*
X74261879Y-103747684D01*
X74133998Y-103840596D01*
X74129545Y-103844778D01*
X74028789Y-103966571D01*
X74025514Y-103971732D01*
X73958866Y-104113364D01*
X71866310Y-104113364D01*
X71843765Y-104043977D01*
X71841158Y-104038438D01*
X71756465Y-103904983D01*
X71752570Y-103900274D01*
X71637342Y-103792069D01*
X71632396Y-103788475D01*
X71493882Y-103712326D01*
X71488202Y-103710077D01*
X71335099Y-103670766D01*
X71329030Y-103670000D01*
X71159747Y-103670000D01*
X71152855Y-103672855D01*
X71150000Y-103679747D01*
X71150000Y-104110253D01*
X70750000Y-104110253D01*
X70750000Y-103679747D01*
X70747145Y-103672855D01*
X70740253Y-103670000D01*
X70610637Y-103670000D01*
X70607590Y-103670192D01*
X70490122Y-103685031D01*
X70484203Y-103686551D01*
X70337237Y-103744739D01*
X70331879Y-103747684D01*
X70203998Y-103840596D01*
X70199545Y-103844778D01*
X70098789Y-103966571D01*
X70095511Y-103971736D01*
X70093336Y-103976358D01*
X70065597Y-104001597D01*
X70028136Y-103999830D01*
X70002897Y-103972091D01*
X70000000Y-103955494D01*
X70000000Y-102890000D01*
X74069965Y-102890000D01*
X74088026Y-103027183D01*
X74140976Y-103155017D01*
X74225209Y-103264791D01*
X74334982Y-103349024D01*
X74462817Y-103401974D01*
X74600000Y-103420035D01*
X74737183Y-103401974D01*
X74865018Y-103349024D01*
X74974791Y-103264791D01*
X75059024Y-103155017D01*
X75111974Y-103027183D01*
X75130035Y-102890000D01*
X75111974Y-102752817D01*
X75059024Y-102624983D01*
X74974791Y-102515209D01*
X74865018Y-102430976D01*
X74737183Y-102378026D01*
X74600000Y-102359965D01*
X74462817Y-102378026D01*
X74334983Y-102430976D01*
X74225209Y-102515209D01*
X74140976Y-102624983D01*
X74088026Y-102752817D01*
X74069965Y-102890000D01*
X70000000Y-102890000D01*
X70000000Y-101149500D01*
X73244318Y-101149500D01*
X73244737Y-101152683D01*
X73258205Y-101254979D01*
X73264956Y-101306262D01*
X73266183Y-101309224D01*
X73266184Y-101309228D01*
X73324235Y-101449375D01*
X73325464Y-101452341D01*
X73421718Y-101577782D01*
X73547159Y-101674036D01*
X73550122Y-101675263D01*
X73550125Y-101675265D01*
X73690272Y-101733316D01*
X73690276Y-101733317D01*
X73693238Y-101734544D01*
X73696419Y-101734963D01*
X73696420Y-101734963D01*
X73846817Y-101754763D01*
X73850000Y-101755182D01*
X73853183Y-101754763D01*
X74003580Y-101734963D01*
X74003581Y-101734963D01*
X74006762Y-101734544D01*
X74009724Y-101733317D01*
X74009728Y-101733316D01*
X74149875Y-101675265D01*
X74149878Y-101675263D01*
X74152841Y-101674036D01*
X74278282Y-101577782D01*
X74374536Y-101452341D01*
X74375765Y-101449375D01*
X74433816Y-101309228D01*
X74433817Y-101309224D01*
X74435044Y-101306262D01*
X74441796Y-101254979D01*
X74455263Y-101152683D01*
X74455682Y-101149500D01*
X74454465Y-101140253D01*
X74435463Y-100995920D01*
X74435463Y-100995919D01*
X74435044Y-100992738D01*
X74433817Y-100989776D01*
X74433816Y-100989772D01*
X74375765Y-100849625D01*
X74375763Y-100849622D01*
X74374536Y-100846659D01*
X74278282Y-100721218D01*
X74200889Y-100661832D01*
X74169671Y-100637878D01*
X74150919Y-100605400D01*
X74150500Y-100599004D01*
X74150500Y-100300496D01*
X74164852Y-100265848D01*
X74169671Y-100261622D01*
X74275733Y-100180238D01*
X74278282Y-100178282D01*
X74374536Y-100052841D01*
X74375765Y-100049875D01*
X74433816Y-99909728D01*
X74433817Y-99909724D01*
X74435044Y-99906762D01*
X74455682Y-99750000D01*
X74449398Y-99702271D01*
X74435463Y-99596420D01*
X74435463Y-99596419D01*
X74435044Y-99593238D01*
X74433817Y-99590276D01*
X74433816Y-99590272D01*
X74375765Y-99450125D01*
X74375763Y-99450122D01*
X74374536Y-99447159D01*
X74314505Y-99368925D01*
X74280238Y-99324267D01*
X74278282Y-99321718D01*
X74152841Y-99225464D01*
X74149878Y-99224237D01*
X74149875Y-99224235D01*
X74009728Y-99166184D01*
X74009724Y-99166183D01*
X74006762Y-99164956D01*
X74003581Y-99164537D01*
X74003580Y-99164537D01*
X73853183Y-99144737D01*
X73850000Y-99144318D01*
X73846817Y-99144737D01*
X73696420Y-99164537D01*
X73696419Y-99164537D01*
X73693238Y-99164956D01*
X73690276Y-99166183D01*
X73690272Y-99166184D01*
X73550125Y-99224235D01*
X73550122Y-99224237D01*
X73547159Y-99225464D01*
X73421718Y-99321718D01*
X73419762Y-99324267D01*
X73385495Y-99368925D01*
X73325464Y-99447159D01*
X73324237Y-99450122D01*
X73324235Y-99450125D01*
X73266184Y-99590272D01*
X73266183Y-99590276D01*
X73264956Y-99593238D01*
X73264537Y-99596419D01*
X73264537Y-99596420D01*
X73250602Y-99702271D01*
X73244318Y-99750000D01*
X73264956Y-99906762D01*
X73266183Y-99909724D01*
X73266184Y-99909728D01*
X73324235Y-100049875D01*
X73325464Y-100052841D01*
X73421718Y-100178282D01*
X73424267Y-100180238D01*
X73530329Y-100261622D01*
X73549081Y-100294100D01*
X73549500Y-100300496D01*
X73549500Y-100599004D01*
X73535148Y-100633652D01*
X73530329Y-100637878D01*
X73499112Y-100661832D01*
X73421718Y-100721218D01*
X73325464Y-100846659D01*
X73324237Y-100849622D01*
X73324235Y-100849625D01*
X73266184Y-100989772D01*
X73266183Y-100989776D01*
X73264956Y-100992738D01*
X73264537Y-100995919D01*
X73264537Y-100995920D01*
X73245535Y-101140253D01*
X73244318Y-101149500D01*
X70000000Y-101149500D01*
X70000000Y-97110000D01*
X74069965Y-97110000D01*
X74088026Y-97247183D01*
X74140976Y-97375017D01*
X74225209Y-97484791D01*
X74334982Y-97569024D01*
X74462817Y-97621974D01*
X74565130Y-97635444D01*
X74568479Y-97635885D01*
X74600000Y-97640035D01*
X74631522Y-97635885D01*
X74634870Y-97635444D01*
X74737183Y-97621974D01*
X74865018Y-97569024D01*
X74974791Y-97484791D01*
X75059024Y-97375017D01*
X75111974Y-97247183D01*
X75130035Y-97110000D01*
X75111974Y-96972817D01*
X75059024Y-96844983D01*
X74974791Y-96735209D01*
X74865018Y-96650976D01*
X74737183Y-96598026D01*
X74600000Y-96579965D01*
X74462817Y-96598026D01*
X74334983Y-96650976D01*
X74225209Y-96735209D01*
X74140976Y-96844983D01*
X74088026Y-96972817D01*
X74069965Y-97110000D01*
X70000000Y-97110000D01*
X70000000Y-96037501D01*
X70014352Y-96002853D01*
X70049000Y-95988501D01*
X70083648Y-96002853D01*
X70090372Y-96011245D01*
X70143538Y-96095021D01*
X70147430Y-96099726D01*
X70262658Y-96207931D01*
X70267604Y-96211525D01*
X70406118Y-96287674D01*
X70411798Y-96289923D01*
X70564901Y-96329234D01*
X70570970Y-96330000D01*
X70740253Y-96330000D01*
X70747145Y-96327145D01*
X70750000Y-96320253D01*
X71150000Y-96320253D01*
X71152855Y-96327145D01*
X71159747Y-96330000D01*
X71289363Y-96330000D01*
X71292410Y-96329808D01*
X71409878Y-96314969D01*
X71415797Y-96313449D01*
X71562763Y-96255261D01*
X71568121Y-96252316D01*
X71696002Y-96159404D01*
X71700455Y-96155222D01*
X71801211Y-96033429D01*
X71804486Y-96028268D01*
X71871134Y-95886636D01*
X71870891Y-95885462D01*
X73963309Y-95885462D01*
X73986235Y-95956023D01*
X73988842Y-95961562D01*
X74073535Y-96095017D01*
X74077430Y-96099726D01*
X74192658Y-96207931D01*
X74197604Y-96211525D01*
X74336118Y-96287674D01*
X74341798Y-96289923D01*
X74494901Y-96329234D01*
X74500970Y-96330000D01*
X74920253Y-96330000D01*
X74927145Y-96327145D01*
X74930000Y-96320253D01*
X75330000Y-96320253D01*
X75332855Y-96327145D01*
X75339747Y-96330000D01*
X75719363Y-96330000D01*
X75722410Y-96329808D01*
X75839878Y-96314969D01*
X75845797Y-96313449D01*
X75992763Y-96255261D01*
X75998121Y-96252316D01*
X76126002Y-96159404D01*
X76130455Y-96155222D01*
X76231211Y-96033429D01*
X76234486Y-96028268D01*
X76301134Y-95886636D01*
X76300230Y-95882269D01*
X76296777Y-95880000D01*
X75339747Y-95880000D01*
X75332855Y-95882855D01*
X75330000Y-95889747D01*
X75330000Y-96320253D01*
X74930000Y-96320253D01*
X74930000Y-95889747D01*
X74927145Y-95882855D01*
X74920253Y-95880000D01*
X73971281Y-95880000D01*
X73964389Y-95882855D01*
X73963309Y-95885462D01*
X71870891Y-95885462D01*
X71870230Y-95882269D01*
X71866777Y-95880000D01*
X71159747Y-95880000D01*
X71152855Y-95882855D01*
X71150000Y-95889747D01*
X71150000Y-96320253D01*
X70750000Y-96320253D01*
X70750000Y-95529000D01*
X70764352Y-95494352D01*
X70799000Y-95480000D01*
X71858719Y-95480000D01*
X71865611Y-95477145D01*
X71866691Y-95474538D01*
X71866310Y-95473364D01*
X73958866Y-95473364D01*
X73959770Y-95477731D01*
X73963223Y-95480000D01*
X74920253Y-95480000D01*
X74927145Y-95477145D01*
X74930000Y-95470253D01*
X75330000Y-95470253D01*
X75332855Y-95477145D01*
X75339747Y-95480000D01*
X76288719Y-95480000D01*
X76295611Y-95477145D01*
X76296691Y-95474538D01*
X76273765Y-95403977D01*
X76271158Y-95398438D01*
X76186465Y-95264983D01*
X76182570Y-95260274D01*
X76067342Y-95152069D01*
X76062396Y-95148475D01*
X75923882Y-95072326D01*
X75918202Y-95070077D01*
X75765099Y-95030766D01*
X75759030Y-95030000D01*
X75339747Y-95030000D01*
X75332855Y-95032855D01*
X75330000Y-95039747D01*
X75330000Y-95470253D01*
X74930000Y-95470253D01*
X74930000Y-95039747D01*
X74927145Y-95032855D01*
X74920253Y-95030000D01*
X74540637Y-95030000D01*
X74537590Y-95030192D01*
X74420122Y-95045031D01*
X74414203Y-95046551D01*
X74267237Y-95104739D01*
X74261879Y-95107684D01*
X74133998Y-95200596D01*
X74129545Y-95204778D01*
X74028789Y-95326571D01*
X74025514Y-95331732D01*
X73958866Y-95473364D01*
X71866310Y-95473364D01*
X71843765Y-95403977D01*
X71841158Y-95398438D01*
X71756465Y-95264983D01*
X71752570Y-95260274D01*
X71637342Y-95152069D01*
X71632396Y-95148475D01*
X71529558Y-95091939D01*
X71506110Y-95062670D01*
X71510225Y-95025394D01*
X71539494Y-95001946D01*
X71553164Y-95000000D01*
X73000000Y-95000000D01*
X73000000Y-86549000D01*
X73014352Y-86514352D01*
X73049000Y-86500000D01*
X126951000Y-86500000D01*
X126985648Y-86514352D01*
G37*
%TD.AperFunction*%
%TD*%
%TA.AperFunction,Conductor*%
%TO.N,/3V3_Vcc*%
G36*
X118514352Y-93014352D02*
G01*
X118985648Y-93485648D01*
X119000000Y-93520296D01*
X119000000Y-97729704D01*
X118985648Y-97764352D01*
X118764352Y-97985648D01*
X118729704Y-98000000D01*
X113520296Y-98000000D01*
X113485648Y-97985648D01*
X113264352Y-97764352D01*
X113250000Y-97729704D01*
X113250000Y-96250000D01*
X113000000Y-96000000D01*
X107770296Y-96000000D01*
X107735648Y-95985648D01*
X107514352Y-95764352D01*
X107500000Y-95729704D01*
X107500000Y-93270296D01*
X107514352Y-93235648D01*
X107735648Y-93014352D01*
X107770296Y-93000000D01*
X118479704Y-93000000D01*
X118514352Y-93014352D01*
G37*
%TD.AperFunction*%
%TD*%
M02*
