M48
; DRILL file {KiCad (5.99.0-13244-g73f40b11ee)} date Sun Dec 26 18:18:18 2021
; FORMAT={-:-/ absolute / metric / decimal}
; #@! TF.CreationDate,2021-12-26T18:18:18+01:00
; #@! TF.GenerationSoftware,Kicad,Pcbnew,(5.99.0-13244-g73f40b11ee)
; #@! TF.FileFunction,Plated,1,2,PTH
FMAT,2
METRIC
; #@! TA.AperFunction,Plated,PTH,ViaDrill
T1C0.400
; #@! TA.AperFunction,Plated,PTH,ComponentDrill
T2C0.600
; #@! TA.AperFunction,Plated,PTH,ComponentDrill
T3C0.950
; #@! TA.AperFunction,Plated,PTH,ViaDrill
T4C3.100
%
G90
G05
T1
X72.3Y-100.0
X73.85Y-99.75
X73.85Y-101.149
X77.58Y-104.5
X78.1Y-106.2
X78.5Y-101.0
X78.8Y-94.8
X79.3Y-91.35
X79.5Y-111.85
X79.7Y-98.85
X79.78Y-103.33
X81.5Y-112.5
X82.45Y-90.5
X82.6Y-103.7
X83.05Y-98.45
X83.05Y-101.4
X83.1Y-96.2
X84.85Y-91.9
X86.8Y-108.3
X87.3Y-101.5
X87.69Y-104.18
X87.7Y-92.6
X89.94Y-106.205
X90.65Y-93.6
X91.765Y-90.68
X93.1Y-97.95
X93.1Y-101.1
X93.7Y-104.65
X93.75Y-96.35
X94.29Y-100.03
X97.8Y-101.7
X97.89Y-107.355
X100.89Y-101.68
X100.9Y-98.7
X102.79Y-103.23
X103.54Y-98.055
X104.44Y-107.355
X105.6Y-105.45
X106.24Y-95.83
X106.24Y-97.83
X106.64Y-101.83
X106.64Y-103.03
X106.89Y-90.68
X107.54Y-96.73
X107.59Y-106.28
X107.85Y-109.2
X107.94Y-103.03
X108.2Y-93.4
X108.2Y-94.5
X108.2Y-95.6
X108.34Y-100.43
X108.49Y-89.18
X108.59Y-106.28
X108.85Y-109.2
X109.59Y-106.28
X109.85Y-109.2
X110.24Y-89.43
X110.99Y-92.28
X110.99Y-96.68
X111.5Y-90.75
X111.99Y-92.33
X112.2Y-88.13
X112.29Y-96.68
X112.29Y-97.68
X112.34Y-98.73
X118.125Y-95.1
X118.125Y-96.2
X118.15Y-94.0
X119.89Y-91.18
X120.39Y-94.58
X120.64Y-92.63
X122.39Y-100.38
X124.027Y-93.567
X126.34Y-86.98
T3
X81.3Y-88.6
X83.8Y-88.6
X86.3Y-88.6
X88.8Y-88.6
X90.45Y-96.25
X90.45Y-98.75
X90.45Y-101.25
X90.45Y-103.75
X91.3Y-88.6
X93.8Y-88.6
X96.3Y-88.6
X97.5Y-109.7
X98.8Y-88.6
X100.0Y-109.7
X101.3Y-88.6
X102.5Y-109.7
X103.8Y-88.6
X106.3Y-88.6
T4
X75.0Y-89.0
X75.0Y-111.0
T2
G00X71.25Y-95.68
M15
G01X70.65Y-95.68
M16
G05
G00X71.25Y-104.32
M15
G01X70.65Y-104.32
M16
G05
G00X75.68Y-95.68
M15
G01X74.58Y-95.68
M16
G05
G00X75.68Y-104.32
M15
G01X74.58Y-104.32
M16
G05
T0
M30
